<?xml version="1.0" ?><svg id="Layer_14" style="enable-background:new 0 0 512 512;" version="1.1" viewBox="0 0 512 512" xml:space="preserve" xmlns="http://www.w3.org/2000/svg" xmlns:xlink="http://www.w3.org/1999/xlink"><style type="text/css">
	.st0{fill:#EFBB8F;}
	.st1{fill:#FFD7B0;}
	.st2{fill:#C1272D;}
	.st3{fill:#E54551;}
	.st4{fill:#FFFFFF;}
	.st5{fill:none;stroke:#FFFFFF;stroke-width:18;stroke-linecap:round;stroke-miterlimit:10;}
</style><g><path class="st0" d="M8.4,247.5c0,0,31.5,87.9,58.2,102.5c14.7,8.1,107.3,7.2,224.3,86.9s186.3,36.3,198.9,14.4s26.3-68.2,21-106.6   S8.4,247.5,8.4,247.5z"/><path class="st1" d="M63.3,294.9c0,0-101.6-50.2-47.4-114S138.4,64.5,217.1,34.2s256.8,75,283.9,205.3s8.4,246.3-149.5,176.2   S193.1,338.2,63.3,294.9z"/><path class="st2" d="M89.8,284c0,0-90.2-44.5-42-101.1S156.4,79.6,226.2,52.8S454.1,119.4,478.2,235   c24.1,115.6,7.5,218.6-132.7,156.4S204.9,322.5,89.8,284z"/><path class="st3" d="M99.2,282.8c0,0-85.8-42.4-40-96.3S162.5,88.3,229,62.7s216.9,63.4,239.8,173.4s7.1,208-126.3,148.8   S208.8,319.4,99.2,282.8z"/><ellipse class="st2" cx="196.1" cy="149.4" rx="74.7" ry="50.7"/><ellipse class="st0" cx="196.1" cy="149.4" rx="64.4" ry="43.7"/><ellipse class="st4" cx="196.1" cy="149.4" rx="45.5" ry="30.9"/><path class="st2" d="M404.8,130.3c-2.9,14.2-21.3,31.9-51.3,49c-13.2,7.5-28.1,14.6-43.9,20.9c17.1-21.1,25.8-47.9,25.5-79.3   c-0.2-16.4-2.8-31.4-5.6-42.9c-6.3-3-12.7-5.8-18.9-8.2c3.3,10.5,8.3,29.6,8.5,51.3c0.4,42.4-16.9,73.9-51.5,93.6   c-14.4,4.2-28.9,7.7-43.1,10.3c-86.8,16.1-119.3,49.9-125.8,57.5c0.2,0.1,0.4,0.2,0.4,0.2c5.7,1.9,11.2,3.7,16.3,5.5   c11.3-10.6,43.4-34.8,112-47.5c46.8-8.7,96.8-26.5,133.9-47.6c29-16.5,48-33.8,55.8-50.4C413.2,138.5,409.1,134.3,404.8,130.3z"/><path class="st2" d="M463.7,217.6c-2.8-8.2-6.3-16.3-10.4-24.2c2,28.8-37.1,50-128.7,70.2c-77.2,17-93.3,52.4-96.5,69.2   c4.9,2.2,9.9,4.6,15.2,7c0.1-2.6,0.9-11.4,9.1-22c9.3-12,29.9-28.4,75.7-38.5C389.2,265.7,445.9,248.7,463.7,217.6z"/><path class="st2" d="M475.7,338.3c-35.6-24.8-79.4-28-127.3-9.1c-26,10.3-46.7,24.4-57.5,32.5c5.3,2.4,10.9,5,16.8,7.6   c11-7.6,27.5-17.8,46.9-25.4c45.6-17.9,85.1-14,117.3,11.6C473.6,350.2,474.8,344.4,475.7,338.3z"/><g><path class="st5" d="M362.9,135.9c18.4,13.3,40.7,33.5,63.4,64.2"/><path class="st5" d="M318,112.2c0,0,5.4,1.3,14.5,5.5"/></g></g></svg>