<?xml version="1.0" ?><svg id="Layer_7" style="enable-background:new 0 0 512 512;" version="1.1" viewBox="0 0 512 512" xml:space="preserve" xmlns="http://www.w3.org/2000/svg" xmlns:xlink="http://www.w3.org/1999/xlink"><style type="text/css">
	.st0{fill:#D8D8D8;}
	.st1{fill:#EAEAEA;}
	.st2{fill:#EAA824;}
	.st3{fill:#FFD522;}
	.st4{fill:#FFBB24;}
	.st5{fill:#F0F0F0;}
	.st6{fill:none;stroke:#FFFFFF;stroke-width:18;stroke-linecap:round;stroke-miterlimit:10;}
</style><g><path class="st0" d="M342.1,160.5v232.4h147.3c12.1,0,22-9.8,22-22V182.5c0-12.1-9.8-22-22-22H342.1z M450.6,344.3h-85.5V209.2   h85.5c6.5,0,11.8,5.1,11.8,11.4v112.3C462.3,339.1,457.1,344.3,450.6,344.3z"/><path class="st1" d="M489.5,160.5H351v219.5h147.3c4.6,0,8.9-1.4,12.5-3.9c0.4-1.7,0.7-3.5,0.7-5.3V182.5   C511.5,170.4,501.6,160.5,489.5,160.5z M471.2,320c0,5.3-3.8,9.8-8.9,11.1v1.8c0,6.3-5.3,11.4-11.8,11.4h-85.5V209.2h8.9v-12.8   h85.5c6.5,0,11.8,5.1,11.8,11.4V320z"/><path class="st2" d="M370.3,107.1H52.1c-2.2,0-4,1.8-4,4V456c0,30.9,25.1,56,56,56h214.2c30.9,0,56-25.1,56-56V111.1   C374.3,108.9,372.5,107.1,370.3,107.1z"/><path class="st3" d="M123.7,491.1h203.1c16.7,0,31.9-6.7,43-17.5c2.9-7.1,4.5-15,4.5-23.1V111.5c0-2.4-2-4.4-4.4-4.4H62.1v322.4   C62.1,463.5,89.7,491.1,123.7,491.1z"/><path class="st4" d="M117.3,186.9H111c-17.7,0-32,14.3-32,32v196.2c0,17.7,14.3,32,32,32h6.4c17.7,0,32-14.3,32-32V218.9   C149.3,201.2,135,186.9,117.3,186.9z"/><path class="st0" d="M108.3,171.8h245.5c7,0,12.7-5.7,12.7-12.7v-48H108.3V171.8z"/><path class="st4" d="M214.4,186.9H208c-17.7,0-32,14.3-32,32v196.2c0,17.7,14.3,32,32,32h6.4c17.7,0,32-14.3,32-32V218.9   C246.4,201.2,232,186.9,214.4,186.9z"/><path class="st4" d="M311.4,186.9H305c-17.7,0-32,14.3-32,32v196.2c0,17.7,14.3,32,32,32h6.4c17.7,0,32-14.3,32-32V218.9   C343.4,201.2,329,186.9,311.4,186.9z"/><path class="st0" d="M406,64.2c0-23.7-19.2-42.9-42.9-42.9c-7.8,0-15.1,2.1-21.3,5.7C339.3,11.7,326,0,310,0   c-9.5,0-18.1,4.2-24,10.8C279.2,4.1,269.8,0,259.5,0c-11,0-20.9,4.6-27.9,12c-10.2-7.6-22.8-12-36.5-12c-12.8,0-24.7,3.9-34.5,10.7   C154.7,4.1,146.2,0,136.7,0c-11.5,0-21.6,6.1-27.3,15.2C101.9,6.9,91,1.8,79,1.8c-22.9,0-41.5,18.6-41.5,41.5   c0,3.6,0.5,7.1,1.3,10.4C18.3,60.1,3.5,79.3,3.5,101.9c0,14.9,6.5,28.4,16.8,37.6C8.7,144,0.5,155.1,0.5,168.2   c0,12.9,7.9,23.9,19.2,28.5c1.5,24.8,22,44.4,47.2,44.4c26.1,0,47.3-21.2,47.3-47.3c0-5.8-1.1-11.4-3-16.6c2.4,0.5,4.9,0.8,7.4,0.8   c18.2,0,33-14.8,33-33c0-5.2-1.2-10.2-3.4-14.6c6.5-4.1,11.4-10.5,13.7-18c9.6,6.2,21,9.9,33.3,9.9c6.4,0,12.5-1,18.3-2.8   c4.1,9.4,13.5,16,24.5,16c9.1,0,17.1-4.6,22-11.5c9.1,7.2,20.6,11.5,33.1,11.5c10.7,0,20.7-3.2,29-8.6c6.1,6.4,14.7,10.4,24.3,10.4   c18.5,0,33.5-15,33.5-33.5c0-0.1,0-0.1,0-0.2C395.2,97.1,406,81.9,406,64.2z"/><path class="st5" d="M400.1,42.6c-7.4-12.7-21.3-21.3-37.1-21.3c-7.8,0-15.1,2.1-21.3,5.7C339.3,11.7,326,0,310,0   c-9.5,0-18.1,4.2-24,10.8C279.2,4.1,269.8,0,259.5,0c-11,0-20.9,4.6-27.9,12c-10.2-7.6-22.8-12-36.5-12c-12.8,0-24.7,3.9-34.5,10.7   C154.7,4.1,146.2,0,136.7,0c-11.5,0-21.6,6.1-27.3,15.2C101.9,6.9,91,1.8,79,1.8c-22.9,0-41.5,18.6-41.5,41.5   c0,3.6,0.5,7.1,1.3,10.4C18.3,60.1,3.5,79.3,3.5,101.9c0,1.7,0.1,3.4,0.3,5c2.8,5.2,6.4,9.8,10.8,13.7c-2.1,0.8-4.2,1.9-6,3.1   c2.9,6,6.9,11.4,11.8,15.8C9,143.8,1,154.6,0.6,167.3c3.4,4.7,8,8.4,13.4,10.6c0.4,6.7,2.2,12.9,5.1,18.6c0.2,0.1,0.5,0.2,0.7,0.3   c0,0.4,0.1,0.8,0.1,1.2c8.1,14.5,23.5,24.3,41.3,24.3c26.1,0,47.3-21.2,47.3-47.3c0-5.8-1.1-11.4-3-16.6c2.4,0.5,4.9,0.8,7.4,0.8   c18.2,0,33-14.8,33-33c0-5.2-1.2-10.2-3.4-14.6c6.5-4.1,11.4-10.5,13.7-18c9.6,6.2,21,9.9,33.3,9.9c6.4,0,12.5-1,18.3-2.8   c4.1,9.4,13.5,16,24.5,16c9.1,0,17.1-4.6,22-11.5c9.1,7.2,20.6,11.5,33.1,11.5c10.7,0,20.7-3.2,29-8.6c6.1,6.4,14.7,10.4,24.3,10.4   c18.5,0,33.5-15,33.5-33.5c0-0.1,0-0.1,0-0.2c15.3-6.5,26.1-21.8,26.1-39.5C400.2,44.4,400.2,43.5,400.1,42.6z"/><line class="st6" x1="343.4" x2="343.4" y1="245.2" y2="352.8"/><line class="st6" x1="343.4" x2="343.4" y1="392.9" y2="417.2"/></g></svg>