<?xml version="1.0" ?><svg id="Layer_6" style="enable-background:new 0 0 512 512;" version="1.1" viewBox="0 0 512 512" xml:space="preserve" xmlns="http://www.w3.org/2000/svg" xmlns:xlink="http://www.w3.org/1999/xlink"><style type="text/css">
	.st0{fill:#5B2418;}
	.st1{fill:#702812;}
	.st2{fill:#AD792D;}
	.st3{fill:#C18C36;}
	.st4{fill:#C69C6D;}
	.st5{fill:#B5895D;}
	.st6{fill:#1697C4;}
	.st7{fill:#0E89AA;}
	.st8{fill:none;stroke:#FFFFFF;stroke-width:18;stroke-linecap:round;stroke-miterlimit:10;}
	.st9{fill:#2D1304;}
	.st10{fill:#AA8D3C;}
	.st11{fill:#E0BA41;}
</style><g><path class="st0" d="M162.1,168.1l-2.7-46.2c-0.9-15.6-2.5-31.1-4.7-46.6l-8.4-58.5H94.9l-8.2,56.8c-2.2,15.3-3.8,30.8-4.8,46.2   l-3,48.8c-1,9.2-4.4,17.9-10.1,25.2l-18.1,23.7c-11.5,14.9-17.7,33.3-17.7,52.1v216.9c0,14.1,11.4,25.6,25.6,25.6h125.6   c14.1,0,25.6-11.4,25.6-25.6v-216c0-19.4-6.6-38.2-18.7-53.4L172.8,194C166.8,186.6,163.1,177.6,162.1,168.1z"/><path class="st1" d="M209.8,486.4v-216c0-19.4-6.6-38.2-18.7-53.4L172.8,194c-5.9-7.5-9.6-16.5-10.6-25.9l-2.7-46.2   c-0.9-15.6-2.5-31.1-4.7-46.6l-8.4-58.5h-33.6l-8.2,56.8c-2.2,15.3-3.8,30.8-4.8,46.2l-3,48.8c-1,9.2-4.4,17.9-10.1,25.2   l-18.1,23.7c-11.5,14.9-17.7,33.3-17.7,52.1v216.9c0,14.1,11.4,25.6,25.6,25.6h107.9C198.4,512,209.8,500.6,209.8,486.4z"/><path class="st0" d="M146.2,26.3H94.7c-1.5,0-2.8-1.2-2.8-2.8v-0.4c0-1.5,1.2-2.8,2.8-2.8h51.4c1.5,0,2.8,1.2,2.8,2.8v0.4   C148.9,25,147.7,26.3,146.2,26.3z"/><path class="st2" d="M147.3,17.4c-1.9,0.3-1.8,1.1-3.8,1.1s-1.9-1.1-3.9-1.1c-1.9,0-1.9,1.1-3.8,1.1c-1.9,0-1.9-1.1-3.8-1.1   c-1.9,0-1.9,1.1-3.8,1.1c-1.9,0-1.9-1.1-3.8-1.1c-1.9,0-1.9,1.1-3.8,1.1s-1.9-1.1-3.8-1.1c-1.9,0-1.9,1.1-3.8,1.1   c-1.9,0-1.9-1.1-3.8-1.1c-1.9,0-1.9,1.1-3.8,1.1c-1.9,0-1.9-1.1-3.8-1.1c-1.9,0-1.9,1.1-3.8,1.1c-1.9,0-1.9-0.7-3.7-1.1V9.1   c0-5,4.1-9.1,9.1-9.1h35.4c5,0,9.1,4.1,9.1,9.1V17.4z"/><path class="st3" d="M101.3,9.1v8.3c1.8,0,1.9,1.1,3.7,1.1c1.9,0,1.9-1.1,3.8-1.1c0,0,0,0,0,0s0,0,0,0c1.9,0,1.9,1.1,3.8,1.1   c1.9,0,1.9-1.1,3.8-1.1c0,0,0,0,0,0s0,0,0,0c1.9,0,1.9,1.1,3.8,1.1c1.9,0,1.9-1.1,3.8-1.1c0,0,0,0,0,0c0,0,0,0,0,0   c1.9,0,1.9,1.1,3.8,1.1c1.9,0,1.9-1.1,3.8-1.1c0,0,0,0,0,0s0,0,0,0c1.9,0,1.9,1.1,3.8,1.1c1.9,0,1.9-1.1,3.8-1.1c0,0,0,0,0,0   s0,0,0,0c1.9,0,1.9,1.1,3.8,1.1c1.9,0,1.9-1,3.8-1.1V9.1c0-5-4.1-9.1-9.1-9.1h-27.7C105.4,0,101.3,4.1,101.3,9.1z"/><rect class="st4" height="154" width="176.7" x="33.1" y="303.7"/><rect class="st5" height="154" width="17.7" x="33.1" y="303.7"/><rect class="st6" height="127" width="176.7" x="33.1" y="317.2"/><rect class="st7" height="127" width="17.3" x="33.1" y="317.2"/><path class="st5" d="M160.7,143.3l-1.3-21.4c-0.8-14.1-2.2-28.1-4.1-42.1H85.8c-1.8,13.3-3.1,26.7-3.9,40.1l-1.4,23.5H160.7z"/><path class="st4" d="M155.3,79.8h-52.9c-1.8,13.3-3.1,26.7-3.9,40.1L97,143.3h63.6l-1.3-21.4C158.6,107.8,157.2,93.7,155.3,79.8z"/><path class="st7" d="M159.9,130.9l-0.5-9c-0.6-9.9-1.4-19.8-2.6-29.7H84.3c-1,9.2-1.8,18.4-2.4,27.7l-0.7,11.1H159.9z"/><path class="st6" d="M156.8,92.2h-56.7c-1,9.2-1.8,18.4-2.4,27.7L97,130.9h62.9l-0.5-9C158.8,111.9,158,102,156.8,92.2z"/><circle class="st4" cx="120.4" cy="358.7" r="64.9"/><circle class="st6" cx="120.4" cy="363.2" r="59.6"/><circle class="st4" cx="120.6" cy="103.5" r="27.4"/><circle class="st6" cx="120.6" cy="105.4" r="25.2"/><path class="st8" d="M159.9,210.9c-3.4-4.8-5.6-7.8-5.6-7.8"/><path class="st8" d="M187.5,289.1c0,0,0.4-29.8-5.5-49.7"/><path d="M431.2,168.1l-2.7-46.2c-0.9-15.6-2.5-31.1-4.7-46.6l-8.4-58.5H364l-8.2,56.8c-2.2,15.3-3.8,30.8-4.8,46.2l-3,48.8   c-1,9.2-4.4,17.9-10.1,25.2l-18.1,23.7c-11.5,14.9-17.7,33.3-17.7,52.1v216.9c0,14.1,11.4,25.6,25.6,25.6h125.6   c14.1,0,25.6-11.4,25.6-25.6v-216c0-19.4-6.6-38.2-18.7-53.4L441.9,194C435.9,186.6,432.2,177.6,431.2,168.1z"/><path class="st9" d="M478.9,486.4v-216c0-19.4-6.6-38.2-18.7-53.4L441.9,194c-5.9-7.5-9.6-16.5-10.6-25.9l-2.7-46.2   c-0.9-15.6-2.5-31.1-4.7-46.6l-8.4-58.5h-33.6l-8.2,56.8c-2.2,15.3-3.8,30.8-4.8,46.2l-3,48.8c-1,9.2-4.4,17.9-10.1,25.2   l-18.1,23.7c-11.5,14.9-17.7,33.3-17.7,52.1v216.9c0,14.1,11.4,25.6,25.6,25.6h107.9C467.5,512,478.9,500.6,478.9,486.4z"/><path class="st0" d="M415.3,26.3h-51.4c-1.5,0-2.8-1.2-2.8-2.8v-0.4c0-1.5,1.2-2.8,2.8-2.8h51.4c1.5,0,2.8,1.2,2.8,2.8v0.4   C418,25,416.8,26.3,415.3,26.3z"/><path class="st10" d="M416.4,17.4c-1.9,0.3-1.8,1.1-3.8,1.1s-1.9-1.1-3.9-1.1c-1.9,0-1.9,1.1-3.8,1.1c-1.9,0-1.9-1.1-3.8-1.1   c-1.9,0-1.9,1.1-3.8,1.1c-1.9,0-1.9-1.1-3.8-1.1c-1.9,0-1.9,1.1-3.8,1.1c-1.9,0-1.9-1.1-3.8-1.1c-1.9,0-1.9,1.1-3.8,1.1   c-1.9,0-1.9-1.1-3.8-1.1c-1.9,0-1.9,1.1-3.8,1.1c-1.9,0-1.9-1.1-3.8-1.1c-1.9,0-1.9,1.1-3.8,1.1c-1.9,0-1.9-0.7-3.7-1.1V9.1   c0-5,4.1-9.1,9.1-9.1h35.4c5,0,9.1,4.1,9.1,9.1V17.4z"/><path class="st11" d="M370.4,9.1v8.3c1.8,0,1.9,1.1,3.7,1.1c1.9,0,1.9-1.1,3.8-1.1c0,0,0,0,0,0c0,0,0,0,0,0c1.9,0,1.9,1.1,3.8,1.1   c1.9,0,1.9-1.1,3.8-1.1c0,0,0,0,0,0s0,0,0,0c1.9,0,1.9,1.1,3.8,1.1c1.9,0,1.9-1.1,3.8-1.1c0,0,0,0,0,0s0,0,0,0   c1.9,0,1.9,1.1,3.8,1.1c1.9,0,1.9-1.1,3.8-1.1c0,0,0,0,0,0c0,0,0,0,0,0c1.9,0,1.9,1.1,3.8,1.1c1.9,0,1.9-1.1,3.8-1.1c0,0,0,0,0,0   s0,0,0,0c1.9,0,1.9,1.1,3.8,1.1c1.9,0,1.9-1,3.8-1.1V9.1c0-5-4.1-9.1-9.1-9.1h-27.7C374.5,0,370.4,4.1,370.4,9.1z"/><ellipse class="st11" cx="390.6" cy="358.7" rx="88.4" ry="101.9"/><path class="st10" d="M319.9,297.5c-11.1,17-17.7,38.2-17.7,61.2c0,23,6.6,44.2,17.7,61.2V297.5z"/><ellipse cx="390.6" cy="358.7" rx="83.3" ry="83.7"/><path class="st8" d="M429,210.9c-3.4-4.8-5.6-7.8-5.6-7.8"/><path class="st8" d="M456.6,289.1c0,0,0.4-29.8-5.5-49.7"/></g></svg>