<?xml version="1.0" ?><!DOCTYPE svg  PUBLIC '-//W3C//DTD SVG 1.1 Tiny//EN'  'http://www.w3.org/Graphics/SVG/1.1/DTD/svg11-tiny.dtd'><svg baseProfile="tiny" height="128px" id="Layer_1" overflow="scroll" version="1.1" viewBox="0 0 128 128" width="128px" xml:space="preserve" xmlns="http://www.w3.org/2000/svg" xmlns:xlink="http://www.w3.org/1999/xlink"><g><path d="M45.5,39.4h37v17c0,1-0.8,1.8-1.8,1.8H47.3c-1,0-1.8-0.8-1.8-1.8V39.4z" fill="#1FC3F3" fill-rule="evenodd"/><path d="M80.5,75.3C80.5,75.3,80.5,75.2,80.5,75.3l0-17H47.5v17c0,0,0,0,0,0   c-0.7,0.7-1.1,1.6-1.1,2.6v25.8c0,4.5,3.7,8.3,8.3,8.3h18.7c4.5,0,8.3-3.7,8.3-8.3V77.9C81.6,76.9,81.2,76,80.5,75.3z" fill="#FFFAD6" fill-rule="evenodd"/><polygon fill="#FFFAD6" fill-rule="evenodd" points="45.5,39.4 64,39.4 82.5,39.4 70.3,23.5 64,23.5 57.7,23.5  "/><rect fill="#1FC3F3" fill-rule="evenodd" height="7.5" width="12.7" x="57.7" y="16"/></g></svg>