<?xml version="1.0" ?><svg data-name="Layer 1" id="Layer_1" viewBox="0 0 512 512" xmlns="http://www.w3.org/2000/svg"><defs><style>.cls-1{fill:#333;}.cls-2{fill:#f2f2f2;}.cls-3{fill:#e53935;}.cls-4{fill:#ce332f;}.cls-5{fill:#e5e5e5;}.cls-6{fill:#b92d2a;}.cls-7{fill:#ccc;}</style></defs><title/><path class="cls-1" d="M360.49,10.45a2.61,2.61,0,0,1,2.61,2.61v8.36A2.09,2.09,0,0,1,361,23.51h-.52V30l24.63,60.47q.24.58.47,1.21c.08.21.15.43.23.65L386,93c.11.32.21.65.31,1l.12.39c.12.4.24.81.36,1.23l.06.19c.13.46.26.93.38,1.41l0,.06a86.21,86.21,0,0,1,1.88,9.51v0q.1.75.19,1.49v.11c.05.46.1.91.14,1.35l0,.2c0,.41.07.8.1,1.19,0,.1,0,.2,0,.3,0,.38,0,.75.06,1.11,0,.1,0,.2,0,.3,0,.46,0,.9,0,1.33V444.25a18.81,18.81,0,0,1-2.54,9.44l-19.62,33.83a4.17,4.17,0,0,0-.24.47,4.3,4.3,0,0,0-.17.5,4.19,4.19,0,0,0-.12.55h0a4.18,4.18,0,0,0,0,.57v8.8a3.15,3.15,0,0,1-.06.63q0,.15-.08.3a3.05,3.05,0,0,1-.89,1.39l-.06.05a3.14,3.14,0,0,1-.35.26l0,0-.05,0-.27.14-.08,0-.36.13-.08,0-.31.07-.11,0-.4,0H148.11a3.14,3.14,0,0,1-3-2.2q0-.15-.08-.3a3.15,3.15,0,0,1-.06-.63v-8.8a4.08,4.08,0,0,0,0-.57h0a4.29,4.29,0,0,0-.12-.55,4.18,4.18,0,0,0-.41-1l-19.62-33.83a18.81,18.81,0,0,1-2.54-9.44V114.15a75.06,75.06,0,0,1,4.63-23.65L151.51,30V23.51H151a2.09,2.09,0,0,1-2.09-2.09V13.06a2.61,2.61,0,0,1,2.61-2.61h209m0-10.45h-209a13.08,13.08,0,0,0-13.06,13.06v8.36a12.47,12.47,0,0,0,2.33,7.27L117.21,86.57a84.53,84.53,0,0,0-5.4,27.59V444.25a29.29,29.29,0,0,0,3.95,14.68l18.78,32.38v7.12a13.63,13.63,0,0,0,.28,2.72c.09.44.2.89.34,1.31a13.59,13.59,0,0,0,13,9.54H363.89a13.48,13.48,0,0,0,1.73-.11l.46-.07c.42-.07.83-.16,1.23-.26l.45-.12a13.7,13.7,0,0,0,1.58-.58l.44-.21q.39-.19.77-.4l.52-.31.4-.27a13.62,13.62,0,0,0,1.26-1l.3-.27a13.43,13.43,0,0,0,1.33-1.39,13.57,13.57,0,0,0,2.49-4.61c.13-.42.25-.87.34-1.31a13.64,13.64,0,0,0,.28-2.73V491.3l18.78-32.38a29.29,29.29,0,0,0,3.95-14.68V114.15c0-.54,0-1.11,0-1.7,0-.13,0-.25,0-.38v0c0-.44,0-.88-.07-1.33,0-.12,0-.23,0-.34v0c0-.46-.07-.92-.11-1.39l0-.26v0c0-.51-.1-1-.16-1.56l0-.17c-.06-.55-.14-1.1-.21-1.64v-.08a96.53,96.53,0,0,0-2.11-10.65l0-.09c-.14-.55-.28-1.08-.43-1.59l-.07-.24v0c-.14-.48-.28-1-.42-1.42l-.12-.38,0-.07,0-.07c-.12-.37-.23-.74-.35-1.1l-.21-.61-.06-.16-.06-.17-.22-.63c-.2-.54-.4-1.06-.6-1.55L371.22,28.69a12.47,12.47,0,0,0,2.33-7.27V13.06A13.08,13.08,0,0,0,360.49,0Z"/><path class="cls-2" d="M122.25,421.09v23.15a18.81,18.81,0,0,0,2.54,9.44l19.62,33.83a4.18,4.18,0,0,1,.56,2.1v8.8a3.13,3.13,0,0,0,3.13,3.13H363.89a3.13,3.13,0,0,0,3.13-3.13v-8.8a4.18,4.18,0,0,1,.56-2.1l19.62-33.83a18.81,18.81,0,0,0,2.54-9.44V421.09Z"/><path class="cls-3" d="M360.49,30V17h-209V30L126.88,90.51a75.06,75.06,0,0,0-4.63,23.65V441.47H389.75V114.15a75.06,75.06,0,0,0-4.63-23.65Z"/><rect class="cls-4" height="13.06" width="208.98" x="151.51" y="16.98"/><path class="cls-2" d="M151.51,10.45h209a2.61,2.61,0,0,1,2.61,2.61v8.36A2.09,2.09,0,0,1,361,23.51H151a2.09,2.09,0,0,1-2.09-2.09V13.06a2.61,2.61,0,0,1,2.61-2.61Z"/><path class="cls-5" d="M367.18,488.49H144.82a4.18,4.18,0,0,1,.16,1.12v8.8a3.13,3.13,0,0,0,3.13,3.13H363.89a3.13,3.13,0,0,0,3.13-3.13v-8.8A4.18,4.18,0,0,1,367.18,488.49Z"/><polygon class="cls-6" points="328.62 23.51 328.62 30.04 360.49 30.04 360.49 23.51 329.14 23.51 328.62 23.51"/><path class="cls-7" d="M357.88,441.47v2.78a18.81,18.81,0,0,1-2.54,9.44l-19.62,33.83a4.18,4.18,0,0,0-.41,1,4.28,4.28,0,0,0-.12.55h0a4.08,4.08,0,0,0,0,.57v8.8a3.15,3.15,0,0,1-.06.63q0,.15-.08.3a3.12,3.12,0,0,1-1.56,1.85l-.07,0-.17.07-.15.06-.17,0-.16,0-.16,0-.19,0h31.51a3.14,3.14,0,0,0,3-2.2q0-.15.08-.3a3.15,3.15,0,0,0,.06-.63h0v-8.8a4.18,4.18,0,0,1,0-.57h0a4.26,4.26,0,0,1,.52-1.52l19.62-33.83a18.81,18.81,0,0,0,2.54-9.44v-2.78Z"/><path class="cls-7" d="M360.49,10.45H328.62a2.61,2.61,0,0,1,2.61,2.61v8.36a2.09,2.09,0,0,1-2.09,2.09H361a2.09,2.09,0,0,0,2.09-2.09V13.06A2.61,2.61,0,0,0,360.49,10.45Z"/><path class="cls-5" d="M367.18,488.49H144.82a4.18,4.18,0,0,1,.16,1.12v8.8a3.13,3.13,0,0,0,3.13,3.13H363.89a3.13,3.13,0,0,0,3.13-3.13v-8.8A4.18,4.18,0,0,1,367.18,488.49Z"/><path class="cls-7" d="M335.31,488.49a4.28,4.28,0,0,0-.12.55h0a4.08,4.08,0,0,0,0,.57v8.8a3.15,3.15,0,0,1-.06.63q0,.15-.08.3a3.12,3.12,0,0,1-1.56,1.85l-.07,0-.17.07-.15.06-.17,0-.16,0-.16,0-.19,0h31.51a3.14,3.14,0,0,0,3-2.2q0-.15.08-.3a3.15,3.15,0,0,0,.06-.63h0v-8.8a4.18,4.18,0,0,1,0-.57h0a4.18,4.18,0,0,1,.12-.55Z"/><path class="cls-6" d="M388.33,101.88a65.91,65.91,0,0,0-3.22-11.37L360.49,30H328.62l24.63,60.47a65.91,65.91,0,0,1,3.22,11.37,67,67,0,0,1,1.42,12.28V441.47h31.87V114.15A67,67,0,0,0,388.33,101.88Z"/></svg>