<?xml version="1.0" ?><svg enable-background="new 0 0 128 128" id="icons" version="1.1" viewBox="0 0 128 128" xml:space="preserve" xmlns="http://www.w3.org/2000/svg" xmlns:xlink="http://www.w3.org/1999/xlink"><g id="coffee"><g id="XMLID_10_"><g><path d="M98,26l1,4h-4H33h-4l1-4c0.5,0,1-0.5,1-1s-0.5-1-1-1c0-1.1,0.9-2,2-2h3h58h3c1.1,0,2,0.9,2,2     c-0.6,0-1,0.5-1,1S97.4,26,98,26z" fill="#BBDEFB"/><polygon fill="#FFE0B2" points="96,44 93,85 91.8,85 36.2,85 35,85 33,44 33.8,44 94.2,44    "/><polygon fill="#E0E0E0" points="95,30 94.2,44 33.8,44 33.8,44 33,30    "/><polygon fill="#E3F2FD" points="91.2,10 93,22 35,22 37,9    "/><polygon fill="#F5F5F5" points="91.8,85 91.8,85 90,117 38,117 36.2,85 36.2,85    "/></g><g><polyline fill="none" points="36.2,85      38,117 90,117 91.8,85    " stroke="#B0BEC5" stroke-linejoin="round" stroke-miterlimit="10" stroke-width="2"/><line fill="none" stroke="#B0BEC5" stroke-linejoin="round" stroke-miterlimit="10" stroke-width="2" x1="33.8" x2="33" y1="44" y2="30"/><line fill="none" stroke="#B0BEC5" stroke-linejoin="round" stroke-miterlimit="10" stroke-width="2" x1="95" x2="94.2" y1="30" y2="44"/><polygon fill="none" points="33.8,44 33,44      35,85 36.2,85 91.8,85 93,85 96,44 94.2,44    " stroke="#FFAB91" stroke-linejoin="round" stroke-miterlimit="10" stroke-width="2"/><polyline fill="none" points="35,22 37,9      91.2,10 93,22    " stroke="#90CAF9" stroke-linejoin="round" stroke-miterlimit="10" stroke-width="2"/><path d="M95,30h4l-1-4     c-0.6,0-1-0.5-1-1s0.4-1,1-1c0-1.1-0.9-2-2-2h-3H35h-3c-1.1,0-2,0.9-2,2c0.5,0,1,0.5,1,1s-0.5,1-1,1l-1,4h4H95z" fill="none" stroke="#64B5F6" stroke-linejoin="round" stroke-miterlimit="10" stroke-width="2"/></g></g><circle cx="63.8" cy="64" fill="#E57373" r="14.2"/><g><path d="M24.2,76.9L24.2,76.9    c-1.6-1.6-1.6-4.1,0-5.7l1.4-1.4c1.6-1.6,4.1-1.6,5.7,0h0c1.6,1.6,1.6,4.1,0,5.7l-1.4,1.4C28.3,78.4,25.7,78.4,24.2,76.9z" fill="#A1887F" stroke="#8D6E63" stroke-linejoin="round" stroke-miterlimit="10" stroke-width="2"/><path d="M31.9,70.7    c-1.1-0.6-2.5-0.4-3.4,0.5c-0.6,0.6-0.9,1.4-0.8,2.1c0,0.8-0.3,1.5-0.8,2.1c-0.9,0.9-2.3,1.1-3.4,0.5" fill="none" stroke="#8D6E63" stroke-linejoin="round" stroke-miterlimit="10" stroke-width="2"/></g><g><path d="M117.1,91.6    L117.1,91.6c-1.7,1.4-4.3,1-5.6-0.7l-1.2-1.6c-1.4-1.7-1-4.3,0.7-5.6l0,0c1.7-1.4,4.3-1,5.6,0.7l1.2,1.6    C119.1,87.7,118.8,90.2,117.1,91.6z" fill="#A1887F" stroke="#8D6E63" stroke-linejoin="round" stroke-miterlimit="10" stroke-width="2"/><path d="M111.9,83.1    c-0.7,1-0.7,2.4,0.1,3.4c0.5,0.7,1.2,1,2,1.1c0.8,0.1,1.5,0.4,2,1.1c0.8,1,0.8,2.4,0.1,3.4" fill="none" stroke="#8D6E63" stroke-linejoin="round" stroke-miterlimit="10" stroke-width="2"/></g><g><path d="M20,110.8L20,110.8    c-2.8,0-5-2.2-5-5v-2.5c0-2.8,2.2-5,5-5h0c2.8,0,5,2.2,5,5v2.5C25,108.5,22.8,110.8,20,110.8z" fill="#8D6E63" stroke="#6D4C41" stroke-linejoin="round" stroke-miterlimit="10" stroke-width="2"/><path d="M21.4,98.5    c-1.5,0.5-2.5,1.8-2.5,3.4c0,1,0.4,2,1.1,2.6s1.1,1.6,1.1,2.6c0,1.6-1.1,3-2.5,3.4" fill="none" stroke="#6D4C41" stroke-linejoin="round" stroke-miterlimit="10" stroke-width="2"/></g><g><path d="M37,112L37,112    c0,3.3-2.7,6-6,6h-3c-3.3,0-6-2.7-6-6v0c0-3.3,2.7-6,6-6h3C34.3,106,37,108.7,37,112z" fill="#8D6E63" stroke="#5D4037" stroke-linejoin="round" stroke-miterlimit="10" stroke-width="2"/><path d="M22.3,110.3    c0.5,1.8,2.2,3,4.1,3c1.2,0,2.3-0.5,3.1-1.4s1.9-1.4,3.1-1.4c1.9,0,3.6,1.3,4.1,3" fill="none" stroke="#5D4037" stroke-linejoin="round" stroke-miterlimit="10" stroke-width="2"/></g><g><path d="M92.1,117L92.1,117    c-2.7-1.2-3.8-4.4-2.6-7l1.1-2.4c1.2-2.7,4.4-3.8,7-2.6h0c2.7,1.2,3.8,4.4,2.6,7l-1.1,2.4C97.9,117.1,94.7,118.2,92.1,117z" fill="#8D6E63" stroke="#6D4C41" stroke-linejoin="round" stroke-miterlimit="10" stroke-width="2"/><path d="M98.9,105.8    c-1.6-0.2-3.2,0.6-4,2.1c-0.5,1-0.5,2.1-0.1,3s0.4,2-0.1,3c-0.7,1.5-2.4,2.4-4,2.1" fill="none" stroke="#6D4C41" stroke-linejoin="round" stroke-miterlimit="10" stroke-width="2"/></g></g></svg>