<?xml version="1.0" ?><svg id="Layer_1" style="enable-background:new 0 0 512 512;" version="1.1" viewBox="0 0 512 512" xml:space="preserve" xmlns="http://www.w3.org/2000/svg" xmlns:xlink="http://www.w3.org/1999/xlink"><style type="text/css">
	.st0{fill:#F9AC82;}
	.st1{fill:#F8BC95;}
	.st2{fill:#0083BF;}
	.st3{fill:#0095DA;}
	.st4{fill:#FFCB05;}
	.st5{fill:#FFDE2F;}
	.st6{fill:#EE3544;}
	.st7{fill:#F15C5C;}
	.st8{fill:#1A3F6F;}
</style><g><polygon class="st0" points="185.9,330.1 252.1,488.7 251.8,488.7 317.9,330.1  "/><path class="st1" d="M250,442c-2.4,0-4.6-1.4-5.5-3.7l-36.2-87c-1.3-3.1,0.2-6.6,3.2-7.8c3.1-1.3,6.6,0.2,7.8,3.2l36.2,87   c1.3,3.1-0.2,6.6-3.2,7.8C251.6,441.8,250.8,442,250,442z"/><path class="st2" d="M337.9,275.1c-2.4,0-4.6,0.5-6.7,1.4c5.3-11.3,8.2-23.8,8.2-37.1c0-48.4-39.2-87.6-87.6-87.6   c-48.4,0-87.6,39.2-87.6,87.6c0,13.3,3,25.9,8.2,37.1c-2.1-0.9-4.3-1.4-6.7-1.4c-9.3,0-16.9,7.6-16.9,16.9s7.6,16.9,16.9,16.9   c3.3,0,6.4-1,9-2.6c-1.7,2.6-2.6,5.7-2.6,9c0,9.3,7.6,16.9,16.9,16.9c5.7,0,10.8-2.9,13.9-7.2c-0.1,0.6-0.1,1.3-0.1,1.9   c0,9.3,7.6,16.9,16.9,16.9c6.8,0,12.6-4,15.3-9.7c-0.1,0.6-0.1,1.2-0.1,1.8c0,9.3,7.6,16.9,16.9,16.9c9.3,0,16.9-7.6,16.9-16.9   c0-0.6,0-1.2-0.1-1.8c2.7,5.7,8.5,9.7,15.3,9.7c9.3,0,16.9-7.6,16.9-16.9c0-0.6,0-1.3-0.1-1.9c3.1,4.4,8.1,7.2,13.9,7.2   c9.3,0,16.9-7.6,16.9-16.9c0-3.3-1-6.4-2.6-9c2.6,1.6,5.7,2.6,9,2.6c9.3,0,16.9-7.6,16.9-16.9S347.2,275.1,337.9,275.1z"/><path class="st3" d="M183.9,255.6c-2.9,0-5.4-2.1-5.9-5c-3.2-19.5,1.4-39,13-55c11.5-16,28.6-26.6,48-29.7c3.3-0.5,6.4,1.7,6.9,5   c0.5,3.3-1.7,6.4-5,6.9c-16.3,2.7-30.6,11.5-40.2,24.9c-9.6,13.4-13.5,29.8-10.8,46.1c0.5,3.3-1.7,6.4-5,6.9   C184.5,255.6,184.2,255.6,183.9,255.6z"/><path class="st4" d="M324.2,164.1c-2,0-3.9,0.4-5.6,1.2c4.4-9.5,6.9-20,6.9-31.2c0-40.6-32.9-73.6-73.6-73.6   c-40.6,0-73.6,32.9-73.6,73.6c0,11.2,2.5,21.7,6.9,31.2c-1.7-0.7-3.6-1.2-5.6-1.2c-7.8,0-14.2,6.4-14.2,14.2s6.4,14.2,14.2,14.2   c2.8,0,5.4-0.8,7.5-2.2c-1.4,2.2-2.2,4.8-2.2,7.6c0,7.8,6.4,14.2,14.2,14.2c4.8,0,9.1-2.4,11.6-6.1c-0.1,0.5-0.1,1.1-0.1,1.6   c0,7.8,6.4,14.2,14.2,14.2c5.7,0,10.6-3.3,12.8-8.2c-0.1,0.5-0.1,1-0.1,1.5c0,7.8,6.4,14.2,14.2,14.2c7.8,0,14.2-6.4,14.2-14.2   c0-0.5,0-1-0.1-1.5c2.3,4.8,7.2,8.2,12.8,8.2c7.8,0,14.2-6.4,14.2-14.2c0-0.5,0-1.1-0.1-1.6c2.6,3.7,6.8,6.1,11.6,6.1   c7.8,0,14.2-6.4,14.2-14.2c0-2.8-0.8-5.4-2.2-7.6c2.2,1.4,4.8,2.2,7.5,2.2c7.8,0,14.2-6.4,14.2-14.2S332,164.1,324.2,164.1z"/><path class="st5" d="M198,148.6c-2.9,0-5.4-2.1-5.9-5c-2.7-16.6,1.2-33.3,11.1-46.9c9.8-13.7,24.4-22.7,41-25.4   c3.3-0.5,6.4,1.7,6.9,5c0.5,3.3-1.7,6.4-5,6.9c-13.4,2.2-25.2,9.5-33.2,20.5c-8,11.1-11.1,24.6-8.9,38c0.5,3.3-1.7,6.4-5,6.9   C198.7,148.6,198.4,148.6,198,148.6z"/><circle class="st6" cx="298.1" cy="67.6" r="30"/><path class="st7" d="M311.1,73c-0.3,0-0.5,0-0.8-0.1c-3.3-0.4-5.6-3.4-5.2-6.7c0.5-3.7-3.4-5.1-4.6-5.4c-3.2-0.9-5.1-4.1-4.2-7.3   c0.8-3.2,4.2-5.1,7.4-4.3c0.6,0.2,3.9,1.1,7,3.6c4.8,3.7,7.1,9.1,6.3,15C316.6,70.8,314,73,311.1,73z"/><path class="st8" d="M340.6,269.3c3.2-9.6,4.9-19.6,4.9-29.9c0-15.8-4-30.7-10.9-43.8c5.9-3.5,9.9-10,9.9-17.3   c0-9.9-7.2-18.2-16.7-19.9c2.5-7.8,3.8-16,3.8-24.3c0-14.1-3.7-27.4-10.2-38.9c7.8-6.6,12.8-16.5,12.8-27.5   c0-11.9-5.9-22.5-14.8-29.1c2.2-3.3,6.2-7.6,13.2-9.4c3.2-0.8,5.1-4.1,4.3-7.3c-0.8-3.2-4.1-5.1-7.3-4.3   c-11.4,3-17.7,10.3-20.9,15.7c-3.3-1-6.8-1.5-10.4-1.5c-15.5,0-28.8,9.9-33.8,23.8c-4-0.6-8.2-1-12.4-1   c-43.9,0-79.6,35.7-79.6,79.6c0,8.4,1.3,16.5,3.8,24.3c-9.5,1.7-16.7,10-16.7,19.9c0,7.4,4,13.8,9.9,17.3   c-7,13.1-10.9,28-10.9,43.8c0,10.3,1.6,20.3,4.9,29.9c-11.4,1.3-20.2,11-20.2,22.8c0,12.7,10.5,23.1,23.3,22.9c0,0.1,0,0.3,0,0.4   c0,10.3,6.8,19,16.1,21.9l63.6,152.2c0.1,0.9,0.4,1.8,1,2.6c1.1,1.7,3,2.7,5,2.7h0.3c2,0,3.9-1,5-2.7c0.5-0.8,0.9-1.7,1-2.6   l63.4-152.2c9.3-2.9,16.1-11.6,16.1-21.9c0-0.1,0-0.3,0-0.4c0.1,0,0.2,0,0.4,0c12.6,0,22.9-10.3,22.9-22.9   C360.8,280.3,351.9,270.6,340.6,269.3z M298.1,43.6c3.3,0,6.5,0.7,9.4,1.9c0.6,0.5,1.3,0.9,2.1,1.1c0.1,0,0.2,0.1,0.4,0.1   c7.2,4.1,12.1,11.9,12.1,20.8c0,13.2-10.8,24-24,24s-24-10.8-24-24C274.2,54.4,284.9,43.6,298.1,43.6z M179.6,170.1   c1.1,0,2.2,0.2,3.2,0.7c2.3,1,4.9,0.5,6.7-1.3c1.7-1.8,2.2-4.5,1.1-6.7c-4.2-9-6.4-18.6-6.4-28.7c0-37.3,30.3-67.6,67.6-67.6   c3.5,0,6.9,0.3,10.3,0.8c0,0.1,0,0.3,0,0.4c0,19.8,16.1,36,36,36c4.5,0,8.8-0.8,12.8-2.4c5.4,9.7,8.5,20.9,8.5,32.8   c0,10-2.1,19.7-6.4,28.7c-1.1,2.3-0.6,4.9,1.1,6.7c1.7,1.8,4.4,2.3,6.7,1.3c1-0.4,2.1-0.7,3.2-0.7c4.5,0,8.2,3.7,8.2,8.2   c0,4.5-3.7,8.2-8.2,8.2c-1.5,0-3-0.4-4.3-1.3c-2.4-1.5-5.5-1.1-7.4,0.8c-2,2-2.3,5.1-0.8,7.4c0.8,1.3,1.3,2.8,1.3,4.4   c0,4.5-3.7,8.2-8.2,8.2c-2.7,0-5.2-1.3-6.7-3.5c-1.6-2.2-4.5-3.1-7-2.2c-2.6,1-4.1,3.5-3.8,6.3c0,0.4,0.1,0.7,0.1,0.9   c0,4.5-3.7,8.2-8.2,8.2c-3.2,0-6.1-1.9-7.4-4.7c-1.2-2.6-4.2-4-7-3.2c-2.8,0.8-4.7,3.5-4.4,6.4c0,0.3,0,0.6,0,0.9   c0,4.5-3.7,8.2-8.2,8.2s-8.2-3.7-8.2-8.2c0-0.3,0-0.6,0-0.9c0.3-2.9-1.5-5.6-4.4-6.4c-0.5-0.2-1.1-0.2-1.6-0.2   c-2.3,0-4.4,1.3-5.4,3.4c-1.4,2.9-4.3,4.7-7.4,4.7c-4.5,0-8.2-3.7-8.2-8.2c0-0.3,0-0.6,0.1-0.9c0.3-2.7-1.3-5.3-3.8-6.3   c-2.6-1-5.5-0.1-7,2.2c-1.5,2.2-4.1,3.5-6.7,3.5c-4.5,0-8.2-3.7-8.2-8.2c0-1.5,0.4-3.1,1.3-4.4c1.5-2.4,1.2-5.5-0.8-7.4   c-2-2-5.1-2.3-7.4-0.8c-1.3,0.8-2.8,1.3-4.3,1.3c-4.5,0-8.2-3.7-8.2-8.2C171.4,173.7,175.1,170.1,179.6,170.1z M252,472.8   l-56.6-135.4c1.2-0.3,2.3-0.8,3.4-1.3c3.5,8.1,11.6,13.7,21,13.7c4.2,0,8.3-1.2,11.8-3.3c3.8,7.3,11.5,12.3,20.3,12.3   c8.8,0,16.5-5,20.3-12.3c3.5,2.1,7.6,3.3,11.8,3.3c9.4,0,17.4-5.6,21-13.7c1.1,0.5,2.2,0.9,3.4,1.3L252,472.8z M337.9,302.9   c-2,0-4-0.6-5.8-1.7c-2.4-1.5-5.5-1.1-7.4,0.8c-2,2-2.3,5.1-0.8,7.4c1.1,1.8,1.7,3.8,1.7,5.8c0,6-4.9,10.9-10.9,10.9   c-3.5,0-6.9-1.7-8.9-4.7c-1.6-2.2-4.5-3.1-7-2.2c-2.6,1-4.1,3.6-3.8,6.3c0.1,0.5,0.1,0.9,0.1,1.2c0,6-4.9,10.9-10.9,10.9   c-4.2,0-8.1-2.5-9.9-6.3c-1.2-2.6-4.2-4-7-3.2c-2.8,0.8-4.7,3.5-4.3,6.4c0,0.4,0.1,0.8,0.1,1.1c0,6-4.9,10.9-10.9,10.9   s-10.9-4.9-10.9-10.9c0-0.4,0-0.8,0.1-1.2c0.3-2.9-1.5-5.6-4.4-6.4c-0.5-0.2-1.1-0.2-1.6-0.2c-2.3,0-4.4,1.3-5.4,3.4   c-1.8,3.8-5.7,6.3-9.9,6.3c-6,0-10.9-4.9-10.9-10.9c0-0.4,0-0.8,0.1-1.2c0.3-2.7-1.3-5.3-3.8-6.3c-2.6-1-5.5-0.1-7,2.2   c-2,2.9-5.4,4.7-8.9,4.7c-6,0-10.9-4.9-10.9-10.9c0-2,0.6-4.1,1.7-5.8c1.5-2.4,1.2-5.5-0.8-7.4c-2-2-5.1-2.3-7.4-0.8   c-1.7,1.1-3.7,1.7-5.8,1.7c-6,0-10.9-4.9-10.9-10.9c0-6,4.9-10.9,10.9-10.9c1.5,0,2.9,0.3,4.3,0.9c2.3,1,4.9,0.5,6.7-1.3   c1.7-1.8,2.2-4.5,1.1-6.7c-5.1-10.9-7.7-22.5-7.7-34.6c0-13.4,3.3-26.1,9.1-37.3c1.9,9.1,10.1,16,19.8,16c2.7,0,5.3-0.5,7.7-1.5   c3.3,6.7,10.2,11.2,18.1,11.2c3.4,0,6.7-0.9,9.6-2.4c3.5,6,10,10,17.4,10s13.9-4,17.4-10c2.9,1.6,6.2,2.4,9.6,2.4   c7.9,0,14.8-4.6,18.1-11.2c2.4,1,5,1.5,7.7,1.5c9.7,0,17.8-6.9,19.8-16c5.8,11.2,9.1,23.9,9.1,37.3c0,12.1-2.6,23.7-7.7,34.6   c-1.1,2.3-0.6,4.9,1.1,6.7c1.7,1.8,4.4,2.3,6.7,1.3c1.4-0.6,2.8-0.9,4.3-0.9c6,0,10.9,4.9,10.9,10.9   C348.8,298.1,343.9,302.9,337.9,302.9z"/></g></svg>