<?xml version="1.0" ?><svg viewBox="0 0 32 32" xmlns="http://www.w3.org/2000/svg"><defs><style>.cls-1{fill:#9c27b0;}.cls-2{fill:#76ff03;}.cls-3{fill:#795548;}</style></defs><title/><g data-name="Layer 3" id="Layer_3"><path class="cls-1" d="M23.72,17.4,19.8,10.16a10.13,10.13,0,0,1-4.23.46,10.51,10.51,0,0,1-.46,3,.5.5,0,0,1-.27.3.55.55,0,0,1-.4,0,10.35,10.35,0,0,1-2.6-1.78,9.72,9.72,0,0,1-3.37,3l2.7,7.78a9.76,9.76,0,0,0,5.07,5.8,6.62,6.62,0,0,0,2.65.57,5.76,5.76,0,0,0,2.35-.49,6.15,6.15,0,0,0,3.32-3.74A9.79,9.79,0,0,0,23.72,17.4Z"/><path class="cls-2" d="M20.24,9.41A9.27,9.27,0,0,0,15.83,5.2a11.58,11.58,0,0,0-2.77-.72l.09.09a.45.45,0,0,1,.09.1.5.5,0,0,1,.07.46,2.85,2.85,0,0,1-1.54,1.51,3.31,3.31,0,0,1-1.28.27,2.1,2.1,0,0,1-1.07-.27l-.06,0,0,0,0,0-.07-.05a.56.56,0,0,1-.05-.08l0,0a.48.48,0,0,1-.07-.24.43.43,0,0,1,0-.11V6A11.13,11.13,0,0,0,7.5,8.87,9.33,9.33,0,0,0,7.62,15a.55.55,0,0,0,.29.29l.18,0a.54.54,0,0,0,.22,0l.16-.09a9.72,9.72,0,0,0,3.37-3,10.35,10.35,0,0,0,2.6,1.78.55.55,0,0,0,.4,0,.5.5,0,0,0,.27-.3,10.51,10.51,0,0,0,.46-3,10.13,10.13,0,0,0,4.23-.46L20,10.1a.55.55,0,0,0,.29-.29A.51.51,0,0,0,20.24,9.41Z"/><path class="cls-3" d="M13.24,4.67a.45.45,0,0,0-.09-.1l-.09-.09C12,3.35,11,2.91,10.18,3.27a1.44,1.44,0,0,0-.54.41.59.59,0,0,0-.13.18A3.63,3.63,0,0,0,9.1,6v.06a.43.43,0,0,0,0,.11.48.48,0,0,0,.07.24l0,0a.56.56,0,0,0,.05.08l.07.05,0,0,0,0,.06,0a2.1,2.1,0,0,0,1.07.27,3.31,3.31,0,0,0,1.28-.27,2.85,2.85,0,0,0,1.54-1.51A.5.5,0,0,0,13.24,4.67Z"/></g></svg>