<?xml version="1.0" ?><svg height="32" id="svg17515" version="1.1" viewBox="0 0 32 32.000001" width="32" xmlns="http://www.w3.org/2000/svg" xmlns:cc="http://creativecommons.org/ns#" xmlns:dc="http://purl.org/dc/elements/1.1/" xmlns:inkscape="http://www.inkscape.org/namespaces/inkscape" xmlns:rdf="http://www.w3.org/1999/02/22-rdf-syntax-ns#" xmlns:sodipodi="http://sodipodi.sourceforge.net/DTD/sodipodi-0.dtd" xmlns:svg="http://www.w3.org/2000/svg"><defs id="defs17517"><clipPath clipPathUnits="userSpaceOnUse" id="clipPath32617-9-8-8-9"><circle cx="-64.623535" cy="50.047192" id="path32619-2-3-5-1" r="38.553814" style="fill:#4bb7c0;fill-opacity:1;stroke:none" transform="matrix(9.3443438,0,0,9.3443438,-627.91229,-5859.5225)"/></clipPath><clipPath clipPathUnits="userSpaceOnUse" id="clipPath19550"><circle cx="-64.623535" cy="50.047192" id="circle19552" r="38.553814" style="fill:#4bb7c0;fill-opacity:1;stroke:none" transform="matrix(9.3443438,0,0,9.3443438,-627.91229,-5859.5225)"/></clipPath></defs><g id="layer1" transform="translate(0,-1020.3622)"><g id="g42131" style="display:inline" transform="translate(769.56257,81.92187)"><path d="m -754.08008,942.34375 c -2.28266,-0.006 -4.56801,0.58623 -6.60937,1.77734 -4.08272,2.38223 -6.55682,6.78958 -6.46485,11.51563 a 0.50009535,0.50009535 0 1 0 1,-0.0195 c -0.0849,-4.36526 2.19772,-8.43245 5.96875,-10.63281 3.77103,-2.20037 8.43492,-2.18665 12.19336,0.0352 3.75844,2.2218 6.01996,6.30132 5.91016,10.66602 a 0.50016126,0.50016126 0 1 0 1,0.0254 c 0.11888,-4.72545 -2.3313,-9.1473 -6.40039,-11.55274 -2.03455,-1.20272 -4.31499,-1.80795 -6.59766,-1.81445 z" id="path19474" style="color:#000000;font-style:normal;font-variant:normal;font-weight:normal;font-stretch:normal;font-size:medium;line-height:normal;font-family:sans-serif;text-indent:0;text-align:start;text-decoration:none;text-decoration-line:none;text-decoration-style:solid;text-decoration-color:#000000;letter-spacing:normal;word-spacing:normal;text-transform:none;direction:ltr;writing-mode:lr-tb;baseline-shift:baseline;text-anchor:start;white-space:normal;clip-rule:nonzero;display:inline;overflow:visible;visibility:visible;opacity:1;isolation:auto;mix-blend-mode:normal;color-interpolation:sRGB;color-interpolation-filters:linearRGB;solid-color:#000000;solid-opacity:1;fill:#cc8634;fill-opacity:1;fill-rule:nonzero;stroke:none;stroke-width:1;stroke-linecap:round;stroke-linejoin:round;stroke-miterlimit:4;stroke-dasharray:none;stroke-dashoffset:0;stroke-opacity:1;color-rendering:auto;image-rendering:auto;shape-rendering:auto;text-rendering:auto;enable-background:accumulate"/><path d="m -766.14844,955.19423 c -0.33333,0.001 -0.66666,6.2e-4 -1,0.002 -0.002,0.14702 -0.009,0.29372 -0.006,0.44141 a 0.50009537,0.50009537 0 1 0 1,-0.0195 c -0.003,-0.14164 0.004,-0.28287 0.006,-0.42383 z" id="path41972" style="color:#000000;font-style:normal;font-variant:normal;font-weight:normal;font-stretch:normal;font-size:medium;line-height:normal;font-family:sans-serif;text-indent:0;text-align:start;text-decoration:none;text-decoration-line:none;text-decoration-style:solid;text-decoration-color:#000000;letter-spacing:normal;word-spacing:normal;text-transform:none;direction:ltr;writing-mode:lr-tb;baseline-shift:baseline;text-anchor:start;white-space:normal;clip-rule:nonzero;display:inline;overflow:visible;visibility:visible;opacity:0.1;isolation:auto;mix-blend-mode:normal;color-interpolation:sRGB;color-interpolation-filters:linearRGB;solid-color:#000000;solid-opacity:1;fill:#3b3c3d;fill-opacity:1;fill-rule:nonzero;stroke:none;stroke-width:0.1;stroke-linecap:round;stroke-linejoin:round;stroke-miterlimit:4;stroke-dasharray:none;stroke-dashoffset:0;stroke-opacity:1;color-rendering:auto;image-rendering:auto;shape-rendering:auto;text-rendering:auto;enable-background:accumulate"/><path d="m -741.08789,955.14931 c -0.33334,10e-6 -0.66667,0.002 -1,0.002 0.003,0.17776 0.0104,0.35634 0.006,0.53516 a 0.50016126,0.50016126 0 1 0 1,0.0254 c 0.005,-0.18818 -0.003,-0.37539 -0.006,-0.5625 z" id="path42068" style="color:#000000;font-style:normal;font-variant:normal;font-weight:normal;font-stretch:normal;font-size:medium;line-height:normal;font-family:sans-serif;text-indent:0;text-align:start;text-decoration:none;text-decoration-line:none;text-decoration-style:solid;text-decoration-color:#000000;letter-spacing:normal;word-spacing:normal;text-transform:none;direction:ltr;writing-mode:lr-tb;baseline-shift:baseline;text-anchor:start;white-space:normal;clip-rule:nonzero;display:inline;overflow:visible;visibility:visible;opacity:0.1;isolation:auto;mix-blend-mode:normal;color-interpolation:sRGB;color-interpolation-filters:linearRGB;solid-color:#000000;solid-opacity:1;fill:#3b3c3d;fill-opacity:1;fill-rule:nonzero;stroke:none;stroke-width:0.1;stroke-linecap:round;stroke-linejoin:round;stroke-miterlimit:4;stroke-dasharray:none;stroke-dashoffset:0;stroke-opacity:1;color-rendering:auto;image-rendering:auto;shape-rendering:auto;text-rendering:auto;enable-background:accumulate"/><path d="m -748.52854,951.01862 c 1.05635,-5e-5 1.94534,0.60724 2.64394,1.52567 0.68693,0.90306 1.1829,2.10543 1.45845,3.30797 l -5.15547,0 c -0.0344,-0.31667 -0.0877,-0.63086 -0.17926,-0.93902 l -0.32998,-1.11013 a 0.05215067,0.05215067 0 0 0 -0.0611,-0.0367 0.05215067,0.05215067 0 0 0 -0.008,0.004 l -0.53165,0.22814 c -0.15412,-0.43249 -0.33898,-0.924 -0.552,-1.36882 0.71083,-0.9649 1.62741,-1.61122 2.71523,-1.61122 z" id="path40400" style="color:#000000;font-style:normal;font-variant:normal;font-weight:normal;font-stretch:normal;font-size:medium;line-height:normal;font-family:sans-serif;text-indent:0;text-align:start;text-decoration:none;text-decoration-line:none;text-decoration-style:solid;text-decoration-color:#000000;letter-spacing:normal;word-spacing:normal;text-transform:none;direction:ltr;writing-mode:lr-tb;baseline-shift:baseline;text-anchor:start;white-space:normal;clip-rule:nonzero;display:inline;overflow:visible;visibility:visible;opacity:1;isolation:auto;mix-blend-mode:normal;color-interpolation:sRGB;color-interpolation-filters:linearRGB;solid-color:#000000;solid-opacity:1;fill:#fa8f48;fill-opacity:1;fill-rule:nonzero;stroke:none;stroke-width:0.09999999;stroke-linecap:round;stroke-linejoin:round;stroke-miterlimit:4;stroke-dasharray:none;stroke-dashoffset:0;stroke-opacity:1;color-rendering:auto;image-rendering:auto;shape-rendering:auto;text-rendering:auto;enable-background:accumulate"/><path d="m -759.69956,950.98638 a 0.05203215,0.05203215 0 0 0 0.004,0 c 1.08553,0 1.99573,0.64844 2.705,1.61162 -0.2279,0.43879 -0.44029,0.90261 -0.5975,1.34131 l -0.48166,-0.20932 a 0.05203215,0.05203215 0 0 0 -0.0305,-0.004 0.05203215,0.05203215 0 0 0 -0.0386,0.0366 l -0.32924,1.1076 c -0.0935,0.31472 -0.14713,0.63574 -0.18087,0.95925 l -5.14782,0.0142 c 0.27186,-1.20545 0.76409,-2.41463 1.45106,-3.32281 0.69769,-0.92235 1.58896,-1.53283 2.64606,-1.53439 z" id="path40398" style="color:#000000;font-style:normal;font-variant:normal;font-weight:normal;font-stretch:normal;font-size:medium;line-height:normal;font-family:sans-serif;text-indent:0;text-align:start;text-decoration:none;text-decoration-line:none;text-decoration-style:solid;text-decoration-color:#000000;letter-spacing:normal;word-spacing:normal;text-transform:none;direction:ltr;writing-mode:lr-tb;baseline-shift:baseline;text-anchor:start;white-space:normal;clip-rule:nonzero;display:inline;overflow:visible;visibility:visible;opacity:1;isolation:auto;mix-blend-mode:normal;color-interpolation:sRGB;color-interpolation-filters:linearRGB;solid-color:#000000;solid-opacity:1;fill:#88b03c;fill-opacity:1;fill-rule:nonzero;stroke:none;stroke-width:0.10000002;stroke-linecap:round;stroke-linejoin:round;stroke-miterlimit:4;stroke-dasharray:none;stroke-dashoffset:0;stroke-opacity:1;color-rendering:auto;image-rendering:auto;shape-rendering:auto;text-rendering:auto;enable-background:accumulate"/><path d="m -758.54102,-65.181641 c -1.69271,0.0039 -3.38541,0.0023 -5.07812,0.0078 -0.0639,0.217873 -0.12824,0.434832 -0.17774,0.654297 l 5.14844,-0.01367 c 0.0228,-0.218125 0.0605,-0.433744 0.10742,-0.648438 z" id="path41970" style="color:#000000;font-style:normal;font-variant:normal;font-weight:normal;font-stretch:normal;font-size:medium;line-height:normal;font-family:sans-serif;text-indent:0;text-align:start;text-decoration:none;text-decoration-line:none;text-decoration-style:solid;text-decoration-color:#000000;letter-spacing:normal;word-spacing:normal;text-transform:none;direction:ltr;writing-mode:lr-tb;baseline-shift:baseline;text-anchor:start;white-space:normal;clip-rule:nonzero;display:inline;overflow:visible;visibility:visible;opacity:0.1;isolation:auto;mix-blend-mode:normal;color-interpolation:sRGB;color-interpolation-filters:linearRGB;solid-color:#000000;solid-opacity:1;fill:#3b3c3d;fill-opacity:1;fill-rule:nonzero;stroke:none;stroke-width:0.1;stroke-linecap:round;stroke-linejoin:round;stroke-miterlimit:4;stroke-dasharray:none;stroke-dashoffset:0;stroke-opacity:1;color-rendering:auto;image-rendering:auto;shape-rendering:auto;text-rendering:auto;enable-background:accumulate" transform="translate(0,1020.3622)"/><path d="m -744.61914,-65.205078 c -1.69792,6.33e-4 -3.39583,0.0062 -5.09375,0.0078 0.053,0.227657 0.10569,0.455798 0.13086,0.6875 l 5.15625,0 c -0.0534,-0.233256 -0.12354,-0.464252 -0.19336,-0.695312 z" id="path41968" style="color:#000000;font-style:normal;font-variant:normal;font-weight:normal;font-stretch:normal;font-size:medium;line-height:normal;font-family:sans-serif;text-indent:0;text-align:start;text-decoration:none;text-decoration-line:none;text-decoration-style:solid;text-decoration-color:#000000;letter-spacing:normal;word-spacing:normal;text-transform:none;direction:ltr;writing-mode:lr-tb;baseline-shift:baseline;text-anchor:start;white-space:normal;clip-rule:nonzero;display:inline;overflow:visible;visibility:visible;opacity:0.1;isolation:auto;mix-blend-mode:normal;color-interpolation:sRGB;color-interpolation-filters:linearRGB;solid-color:#000000;solid-opacity:1;fill:#3b3c3d;fill-opacity:1;fill-rule:nonzero;stroke:none;stroke-width:0.1;stroke-linecap:round;stroke-linejoin:round;stroke-miterlimit:4;stroke-dasharray:none;stroke-dashoffset:0;stroke-opacity:1;color-rendering:auto;image-rendering:auto;shape-rendering:auto;text-rendering:auto;enable-background:accumulate" transform="translate(0,1020.3622)"/><path d="m -761.80766,966.03994 15.37892,0 -0.48753,1.40039 -14.46028,0 z" id="path9124" style="color:#000000;font-style:normal;font-variant:normal;font-weight:normal;font-stretch:normal;font-size:medium;line-height:normal;font-family:sans-serif;text-indent:0;text-align:start;text-decoration:none;text-decoration-line:none;text-decoration-style:solid;text-decoration-color:#000000;letter-spacing:normal;word-spacing:normal;text-transform:none;direction:ltr;writing-mode:lr-tb;baseline-shift:baseline;text-anchor:start;white-space:normal;clip-rule:nonzero;display:inline;overflow:visible;visibility:visible;opacity:1;isolation:auto;mix-blend-mode:normal;color-interpolation:sRGB;color-interpolation-filters:linearRGB;solid-color:#000000;solid-opacity:1;fill:#ecc355;fill-opacity:1;fill-rule:nonzero;stroke:none;stroke-width:0.10000001;stroke-linecap:round;stroke-linejoin:round;stroke-miterlimit:4;stroke-dasharray:none;stroke-dashoffset:0;stroke-opacity:1;color-rendering:auto;image-rendering:auto;shape-rendering:auto;text-rendering:auto;enable-background:accumulate"/><path d="m -761.80859,-54.322266 0.17578,0.570313 0.002,0.002 15.00195,0 0.19922,-0.572266 z" id="path42098" style="color:#000000;font-style:normal;font-variant:normal;font-weight:normal;font-stretch:normal;font-size:medium;line-height:normal;font-family:sans-serif;text-indent:0;text-align:start;text-decoration:none;text-decoration-line:none;text-decoration-style:solid;text-decoration-color:#000000;letter-spacing:normal;word-spacing:normal;text-transform:none;direction:ltr;writing-mode:lr-tb;baseline-shift:baseline;text-anchor:start;white-space:normal;clip-rule:nonzero;display:inline;overflow:visible;visibility:visible;opacity:0.1;isolation:auto;mix-blend-mode:normal;color-interpolation:sRGB;color-interpolation-filters:linearRGB;solid-color:#000000;solid-opacity:1;fill:#3b3c3d;fill-opacity:1;fill-rule:nonzero;stroke:none;stroke-width:0.1;stroke-linecap:round;stroke-linejoin:round;stroke-miterlimit:4;stroke-dasharray:none;stroke-dashoffset:0;stroke-opacity:1;color-rendering:auto;image-rendering:auto;shape-rendering:auto;text-rendering:auto;enable-background:accumulate" transform="translate(0,1020.3622)"/><path d="m -740.67383,955.64931 c -0.0252,4.04548 -1.86488,7.86548 -5.01953,10.40039 l -15.9375,0 -0.004,-0.004 c -0.01,-0.0102 -0.0231,-0.0158 -0.0371,-0.0156 -0.016,-4.4e-4 -0.0312,0.007 -0.041,0.0195 l -0.83203,0 c -3.1405,-2.52543 -4.97943,-6.3251 -5.01758,-10.35352 8.96293,-0.0366 17.92579,-0.0468 26.88874,-0.0468 z" id="path40390" style="color:#000000;font-style:normal;font-variant:normal;font-weight:normal;font-stretch:normal;font-size:medium;line-height:normal;font-family:sans-serif;text-indent:0;text-align:start;text-decoration:none;text-decoration-line:none;text-decoration-style:solid;text-decoration-color:#000000;letter-spacing:normal;word-spacing:normal;text-transform:none;direction:ltr;writing-mode:lr-tb;baseline-shift:baseline;text-anchor:start;white-space:normal;clip-rule:nonzero;display:inline;overflow:visible;visibility:visible;opacity:1;isolation:auto;mix-blend-mode:normal;color-interpolation:sRGB;color-interpolation-filters:linearRGB;solid-color:#000000;solid-opacity:1;fill:#ffd158;fill-opacity:1;fill-rule:nonzero;stroke:none;stroke-width:0.1;stroke-linecap:round;stroke-linejoin:round;stroke-miterlimit:4;stroke-dasharray:none;stroke-dashoffset:0;stroke-opacity:1;color-rendering:auto;image-rendering:auto;shape-rendering:auto;text-rendering:auto;enable-background:accumulate"/><path d="m -749.62305,-64.697266 c -1.23242,0.0012 -2.46484,0.004 -3.69726,0.0059 0.23385,0.232471 0.39062,0.540449 0.39062,0.896484 0,0.34801 -0.14383,0.655782 -0.36719,0.888672 l -0.0234,-0.0098 a 0.05027191,0.05027191 0 0 1 -0.01,-0.0059 c -0.22055,0.17315 -0.48521,0.294922 -0.78711,0.294922 -0.28496,0 -0.53548,-0.111628 -0.75,-0.267578 a 0.05027395,0.05027395 0 0 1 -0.01,0.0059 l -0.004,0.002 c -0.23885,-0.23426 -0.39648,-0.547543 -0.39648,-0.908203 0,-0.353445 0.15378,-0.66022 0.38476,-0.892578 -1.23177,0.0021 -2.46354,0.003 -3.69531,0.0059 -0.1386,0.767275 -0.10618,1.558722 0.11719,2.310547 l 0.30078,1.007813 2.875,-1.257813 -0.0234,3.339844 1.16992,-0.935547 a 0.050005,0.050005 0 0 1 0.0625,0 l 1.16797,0.935547 0.0234,-3.369141 2.85742,1.28711 0.30078,-1.007813 c 0.22491,-0.756999 0.25534,-1.55397 0.11328,-2.326172 z" id="path42103" style="color:#000000;font-style:normal;font-variant:normal;font-weight:normal;font-stretch:normal;font-size:medium;line-height:normal;font-family:sans-serif;text-indent:0;text-align:start;text-decoration:none;text-decoration-line:none;text-decoration-style:solid;text-decoration-color:#000000;letter-spacing:normal;word-spacing:normal;text-transform:none;direction:ltr;writing-mode:lr-tb;baseline-shift:baseline;text-anchor:start;white-space:normal;clip-rule:nonzero;display:inline;overflow:visible;visibility:visible;opacity:1;isolation:auto;mix-blend-mode:normal;color-interpolation:sRGB;color-interpolation-filters:linearRGB;solid-color:#000000;solid-opacity:1;fill:#ecc355;fill-opacity:1;fill-rule:nonzero;stroke:none;stroke-width:0.1;stroke-linecap:round;stroke-linejoin:round;stroke-miterlimit:4;stroke-dasharray:none;stroke-dashoffset:0;stroke-opacity:1;color-rendering:auto;image-rendering:auto;shape-rendering:auto;text-rendering:auto;enable-background:accumulate" transform="translate(0,1020.3622)"/><path d="m -753.33008,956.97158 a 0.05027191,0.05027191 0 0 0 0.01,0.006 l 0.42578,0.1914 -0.0234,3.44336 -1.16797,-0.93554 a 0.050005,0.050005 0 0 0 -0.0625,0 l -1.16992,0.93554 0.0234,-3.42383 0.41797,-0.18359 a 0.05027395,0.05027395 0 0 0 0.01,-0.006 c 0.21452,0.15595 0.46504,0.26758 0.75,0.26758 0.3019,0 0.56656,-0.12177 0.78711,-0.29492 z" id="path40388" style="color:#000000;font-style:normal;font-variant:normal;font-weight:normal;font-stretch:normal;font-size:medium;line-height:normal;font-family:sans-serif;text-indent:0;text-align:start;text-decoration:none;text-decoration-line:none;text-decoration-style:solid;text-decoration-color:#000000;letter-spacing:normal;word-spacing:normal;text-transform:none;direction:ltr;writing-mode:lr-tb;baseline-shift:baseline;text-anchor:start;white-space:normal;clip-rule:nonzero;display:inline;overflow:visible;visibility:visible;opacity:1;isolation:auto;mix-blend-mode:normal;color-interpolation:sRGB;color-interpolation-filters:linearRGB;solid-color:#000000;solid-opacity:1;fill:#ff766c;fill-opacity:1;fill-rule:nonzero;stroke:none;stroke-width:0.1;stroke-linecap:round;stroke-linejoin:round;stroke-miterlimit:4;stroke-dasharray:none;stroke-dashoffset:0;stroke-opacity:1;color-rendering:auto;image-rendering:auto;shape-rendering:auto;text-rendering:auto;enable-background:accumulate"/><path d="m -754.12181,950.09956 0.004,0 c 1.16246,0.002 2.12322,0.74229 2.84457,1.82287 0.34922,0.52318 0.65251,1.32049 0.88412,1.97056 l -2.90526,1.25031 a 0.05179814,0.05179814 0 0 0 -0.0202,0.0142 0.05179814,0.05179814 0 0 0 -0.0104,0.0486 c -0.22554,-0.17071 -0.49243,-0.28932 -0.79712,-0.28932 -0.29118,0 -0.54622,0.11188 -0.76678,0.26909 a 0.05179814,0.05179814 0 0 0 -0.002,-0.002 0.05179814,0.05179814 0 0 0 -0.0202,-0.0121 l -2.99427,-1.29685 c 0.23253,-0.64972 0.57767,-1.41627 0.93065,-1.94629 0.72261,-1.08493 1.68632,-1.82893 2.85266,-1.82893 z" id="path40402" style="color:#000000;font-style:normal;font-variant:normal;font-weight:normal;font-stretch:normal;font-size:medium;line-height:normal;font-family:sans-serif;text-indent:0;text-align:start;text-decoration:none;text-decoration-line:none;text-decoration-style:solid;text-decoration-color:#000000;letter-spacing:normal;word-spacing:normal;text-transform:none;direction:ltr;writing-mode:lr-tb;baseline-shift:baseline;text-anchor:start;white-space:normal;clip-rule:nonzero;display:inline;overflow:visible;visibility:visible;opacity:1;isolation:auto;mix-blend-mode:normal;color-interpolation:sRGB;color-interpolation-filters:linearRGB;solid-color:#000000;solid-opacity:1;fill:#43b6c2;fill-opacity:1;fill-rule:nonzero;stroke:none;stroke-width:0.10000001;stroke-linecap:round;stroke-linejoin:round;stroke-miterlimit:4;stroke-dasharray:none;stroke-dashoffset:0;stroke-opacity:1;color-rendering:auto;image-rendering:auto;shape-rendering:auto;text-rendering:auto;enable-background:accumulate"/><path d="m -757.72656,-66.921875 c -0.0483,0.119641 -0.10429,0.242212 -0.14649,0.357422 l 0.1543,0.06641 a 0.050005,0.050005 0 0 0 0.0137,0.0059 l 2.84766,1.232422 c 0.2104,-0.156124 0.45787,-0.265625 0.74023,-0.265625 0.28276,0 0.53008,0.111058 0.74024,0.267579 l 2.82617,-1.214844 a 0.050005,0.050005 0 0 0 0.01,-0.0039 l 0.002,0 0.004,-0.002 a 0.050005,0.050005 0 0 0 0.004,-0.002 l 0.11914,-0.05078 c -0.0412,-0.115084 -0.0933,-0.240276 -0.13867,-0.361328 -8e-5,-2.2e-4 -0.002,2.2e-4 -0.002,0 l -2.82422,1.214844 c -0.21016,-0.15652 -0.45748,-0.267578 -0.74024,-0.267578 -0.28236,0 -0.52983,0.109505 -0.74023,0.265624 l -2.84766,-1.232421 a 0.050005,0.050005 0 0 1 -0.0137,-0.0059 z" id="path42070" style="color:#000000;font-style:normal;font-variant:normal;font-weight:normal;font-stretch:normal;font-size:medium;line-height:normal;font-family:sans-serif;text-indent:0;text-align:start;text-decoration:none;text-decoration-line:none;text-decoration-style:solid;text-decoration-color:#000000;letter-spacing:normal;word-spacing:normal;text-transform:none;direction:ltr;writing-mode:lr-tb;baseline-shift:baseline;text-anchor:start;white-space:normal;clip-rule:nonzero;display:inline;overflow:visible;visibility:visible;opacity:1;isolation:auto;mix-blend-mode:normal;color-interpolation:sRGB;color-interpolation-filters:linearRGB;solid-color:#000000;solid-opacity:1;fill:#42aab5;fill-opacity:1;fill-rule:nonzero;stroke:none;stroke-width:0.1;stroke-linecap:round;stroke-linejoin:round;stroke-miterlimit:4;stroke-dasharray:none;stroke-dashoffset:0;stroke-opacity:1;color-rendering:auto;image-rendering:auto;shape-rendering:auto;text-rendering:auto;enable-background:accumulate" transform="translate(0,1020.3622)"/><path d="m -753.33008,-63.390625 c -0.22055,0.17315 -0.48521,0.294922 -0.78711,0.294922 -0.28496,0 -0.53548,-0.111628 -0.75,-0.267578 a 0.05027395,0.05027395 0 0 1 -0.01,0.0059 l -0.41797,0.183594 -0.002,0.40039 0.42579,-0.1875 c 0.21275,0.162821 0.46534,0.277344 0.7539,0.277344 0.30889,0 0.58169,-0.124514 0.80078,-0.308594 l 0.41993,0.189454 0.002,-0.390625 -0.42578,-0.191407 a 0.05027191,0.05027191 0 0 1 -0.01,-0.0059 z" id="path42088" style="color:#000000;font-style:normal;font-variant:normal;font-weight:normal;font-stretch:normal;font-size:medium;line-height:normal;font-family:sans-serif;text-indent:0;text-align:start;text-decoration:none;text-decoration-line:none;text-decoration-style:solid;text-decoration-color:#000000;letter-spacing:normal;word-spacing:normal;text-transform:none;direction:ltr;writing-mode:lr-tb;baseline-shift:baseline;text-anchor:start;white-space:normal;clip-rule:nonzero;display:inline;overflow:visible;visibility:visible;opacity:1;isolation:auto;mix-blend-mode:normal;color-interpolation:sRGB;color-interpolation-filters:linearRGB;solid-color:#000000;solid-opacity:1;fill:#ec7067;fill-opacity:1;fill-rule:nonzero;stroke:none;stroke-width:0.1;stroke-linecap:round;stroke-linejoin:round;stroke-miterlimit:4;stroke-dasharray:none;stroke-dashoffset:0;stroke-opacity:1;color-rendering:auto;image-rendering:auto;shape-rendering:auto;text-rendering:auto;enable-background:accumulate" transform="translate(0,1020.3622)"/><path d="m -750.03627,953.66884 0.30078,1.00781 c 0.27568,0.9279 0.27568,1.91781 0,2.84571 l -0.30078,1.00781 -3.30664,-1.49024 c 0.25215,-0.23742 0.41406,-0.56808 0.41406,-0.9414 0,-0.40035 -0.19182,-0.74613 -0.47656,-0.98438 a 0.050005,0.050005 0 0 0 0.0156,-0.004 l 2.83985,-1.22071 a 0.050005,0.050005 0 0 0 0.008,-0.004 l 0.002,0 0.004,-0.002 a 0.050005,0.050005 0 0 0 0.004,-0.002 z" id="path40394" style="color:#000000;font-style:normal;font-variant:normal;font-weight:normal;font-stretch:normal;font-size:medium;line-height:normal;font-family:sans-serif;text-indent:0;text-align:start;text-decoration:none;text-decoration-line:none;text-decoration-style:solid;text-decoration-color:#000000;letter-spacing:normal;word-spacing:normal;text-transform:none;direction:ltr;writing-mode:lr-tb;baseline-shift:baseline;text-anchor:start;white-space:normal;clip-rule:nonzero;display:inline;overflow:visible;visibility:visible;opacity:1;isolation:auto;mix-blend-mode:normal;color-interpolation:sRGB;color-interpolation-filters:linearRGB;solid-color:#000000;solid-opacity:1;fill:#ff766c;fill-opacity:1;fill-rule:nonzero;stroke:none;stroke-width:0.1;stroke-linecap:round;stroke-linejoin:round;stroke-miterlimit:4;stroke-dasharray:none;stroke-dashoffset:0;stroke-opacity:1;color-rendering:auto;image-rendering:auto;shape-rendering:auto;text-rendering:auto;enable-background:accumulate"/><path d="m -758.16993,953.66884 0.45117,0.19531 a 0.050005,0.050005 0 0 0 0.0137,0.006 l 2.89258,1.25196 c -0.2789,0.2382 -0.46485,0.58141 -0.46485,0.97656 0,0.39 0.18048,0.7282 0.45313,0.9668 l -3.34571,1.46484 -0.30078,-1.00781 c -0.27568,-0.9279 -0.27568,-1.91781 0,-2.84571 z" id="path40396" style="color:#000000;font-style:normal;font-variant:normal;font-weight:normal;font-stretch:normal;font-size:medium;line-height:normal;font-family:sans-serif;text-indent:0;text-align:start;text-decoration:none;text-decoration-line:none;text-decoration-style:solid;text-decoration-color:#000000;letter-spacing:normal;word-spacing:normal;text-transform:none;direction:ltr;writing-mode:lr-tb;baseline-shift:baseline;text-anchor:start;white-space:normal;clip-rule:nonzero;display:inline;overflow:visible;visibility:visible;opacity:1;isolation:auto;mix-blend-mode:normal;color-interpolation:sRGB;color-interpolation-filters:linearRGB;solid-color:#000000;solid-opacity:1;fill:#ff766c;fill-opacity:1;fill-rule:nonzero;stroke:none;stroke-width:0.1;stroke-linecap:round;stroke-linejoin:round;stroke-miterlimit:4;stroke-dasharray:none;stroke-dashoffset:0;stroke-opacity:1;color-rendering:auto;image-rendering:auto;shape-rendering:auto;text-rendering:auto;enable-background:accumulate"/><path d="m -754.11716,954.83684 c 0.69788,0 1.26167,0.56378 1.26167,1.26167 0,0.69787 -0.56379,1.26372 -1.26167,1.26372 -0.69787,0 -1.26372,-0.56585 -1.26372,-1.26372 0,-0.69789 0.56585,-1.26167 1.26372,-1.26167 z" id="path40392" style="color:#000000;font-style:normal;font-variant:normal;font-weight:normal;font-stretch:normal;font-size:medium;line-height:normal;font-family:sans-serif;text-indent:0;text-align:start;text-decoration:none;text-decoration-line:none;text-decoration-style:solid;text-decoration-color:#000000;letter-spacing:normal;word-spacing:normal;text-transform:none;direction:ltr;writing-mode:lr-tb;baseline-shift:baseline;text-anchor:start;white-space:normal;clip-rule:nonzero;display:inline;overflow:visible;visibility:visible;opacity:1;isolation:auto;mix-blend-mode:normal;color-interpolation:sRGB;color-interpolation-filters:linearRGB;solid-color:#000000;solid-opacity:1;fill:#ffd158;fill-opacity:1;fill-rule:nonzero;stroke:none;stroke-width:0.1;stroke-linecap:round;stroke-linejoin:round;stroke-miterlimit:4;stroke-dasharray:none;stroke-dashoffset:0;stroke-opacity:1;color-rendering:auto;image-rendering:auto;shape-rendering:auto;text-rendering:auto;enable-background:accumulate"/></g></g></svg>