<?xml version="1.0" ?><svg enable-background="new 0 0 24 24" id="Layer_1" version="1.1" viewBox="0 0 24 24" xml:space="preserve" xmlns="http://www.w3.org/2000/svg" xmlns:xlink="http://www.w3.org/1999/xlink"><g><path d="M23.5,12h-0.5375977c0.2612305-3.3292236-1.0064087-7.0535889-3.7299805-7.8500977   c-1.1524048-0.3352051-2.4348145-0.0983887-3.7348022,0.6746216C14.5134277,3.7224121,13.3086548,3,12,3   c-1.5274048,0-2.9140015,0.9815674-3.9711304,2.4075928C7.130249,5.0475464,6.2629395,4.949585,5.4501953,5.1489258   C2.8997803,5.7747192,1.5142822,8.982605,1.3850708,12H0.5C0.2236328,12,0,12.2236328,0,12.5S0.2236328,13,0.5,13h0.5217285   c0.1105347,3.2290039,1.2627563,5.1182861,3.3278809,7.3579102C4.7265625,20.7661133,5.2626953,21,5.8212891,21h12.3574219   c0.5585938,0,1.0947266-0.2338867,1.4716797-0.6425781C21.7155151,18.1182861,22.8677368,16.2290039,22.9782715,13H23.5   c0.2763672,0,0.5-0.2236328,0.5-0.5S23.7763672,12,23.5,12z" fill="#303C42"/><path d="M18.9511719,5.1098633C21.1721191,5.7594604,22.2069702,9.1125488,21.9588013,12H17.975769   C17.9919434,11.8106079,18,11.6275024,18,11.4443359c0-1.9823608-0.7230225-4.1733398-1.878479-5.8288574   C16.9082642,5.170166,17.9328613,4.8123779,18.9511719,5.1098633z" fill="#E82C2A"/><path d="M18.9562988,6.1098633c1.8681641,0.5463867,2.8934326,3.0057373,3.0254517,5.4917603   c0.1254272-2.7900391-0.9108887-5.8717651-3.0305786-6.4917603c-1.0183105-0.2974854-2.0429077,0.0603027-2.8296509,0.5056152   c0.1694946,0.2427979,0.326416,0.4998779,0.4763794,0.7634277C17.302063,6.06073,18.1300659,5.8684692,18.9562988,6.1098633z" fill="#FFFFFF" opacity="0.2"/><path d="M12,4c2.6923828,0,5,4.0932617,5,7.4443359C17,11.6245728,16.987854,11.809082,16.968811,12H7.031189   C7.012146,11.809082,7,11.6245728,7,11.4443359C7,8.0932617,9.3076172,4,12,4z" fill="#E82C2A"/><path d="M12.5,5c1.4450684,0,2.7752686,1.1834106,3.701355,2.7940674   C15.2994995,5.6947632,13.7312622,4,12,4c-2.6923828,0-5,4.0932617-5,7.4443359C7,11.6245728,7.012146,11.809082,7.031189,12   h0.4873657C7.7077637,8.7421265,9.9252319,5,12.5,5z" fill="#FFFFFF" opacity="0.2"/><path d="M5.6884766,6.1201172C6.2377319,5.9841309,6.8361816,6.03479,7.4682007,6.2556763   C6.5552368,7.8128052,6,9.7084961,6,11.4443359C6,11.6275024,6.0080566,11.8106079,6.024231,12H2.3844604   C2.5079346,9.4281006,3.6537476,6.6193848,5.6884766,6.1201172z" fill="#E82C2A"/><path d="M6.2202759,7.1201172c0.270874-0.0670776,0.5540161-0.0878906,0.8469238-0.0661011   c0.1290283-0.2698975,0.2520752-0.5443115,0.401001-0.7983398C6.8361816,6.03479,6.2377319,5.9841309,5.6884766,6.1201172   C3.6537476,6.6193848,2.5079346,9.4281006,2.3844604,12h0.6315308C3.3510742,9.743103,4.4476318,7.5550537,6.2202759,7.1201172z" fill="#FFFFFF" opacity="0.2"/><path d="M18.9160156,19.6791992C18.7275391,19.8833008,18.4589844,20,18.1787109,20H5.8212891   c-0.2802734,0-0.5488281-0.1166992-0.7373047-0.3203125C3.1503906,17.5812988,2.1281128,15.9133301,2.0211792,13h19.9576416   C21.8718872,15.9133301,20.8496094,17.5812378,18.9160156,19.6791992z" fill="#FADABA"/><path d="M21.2969971,13c-0.2998657,1.6820679-1.0049438,2.9505005-2.1262817,4.2978516   C18.5281982,18.0698853,17.5585327,18.5,16.5541382,18.5H5.3001099c-0.2794189,0-0.5534668-0.1207275-0.7427368-0.3262329   c-1.0175171-1.1047974-1.7749634-2.0945435-2.2862549-3.2061768c0.4221802,1.8014526,1.3601074,3.135498,2.8128662,4.7120972   C5.2724609,19.8833008,5.5410156,20,5.8212891,20h12.3574219c0.2802734,0,0.5488281-0.1166992,0.7373047-0.3208008   C20.8496094,17.5812378,21.8718872,15.9133301,21.9788208,13H21.2969971z" opacity="0.1"/><linearGradient gradientUnits="userSpaceOnUse" id="SVGID_1_" x1="2.1353891" x2="22.0311546" y1="7.8093381" y2="17.0868855"><stop offset="0" style="stop-color:#FFFFFF;stop-opacity:0.2"/><stop offset="1" style="stop-color:#FFFFFF;stop-opacity:0"/></linearGradient><path d="M23.5,12h-0.5375977c0.2612305-3.3292236-1.0064087-7.0535889-3.7299805-7.8500977   c-1.1524048-0.3352051-2.4348145-0.0983887-3.7348022,0.6746216C14.5134277,3.7224121,13.3086548,3,12,3   c-1.5274048,0-2.9140015,0.9815674-3.9711304,2.4075928C7.130249,5.0475464,6.2629395,4.949585,5.4501953,5.1489258   C2.8997803,5.7747192,1.5142822,8.982605,1.3850708,12H0.5C0.2236328,12,0,12.2236328,0,12.5S0.2236328,13,0.5,13h0.5217285   c0.1105347,3.2290039,1.2627563,5.1182861,3.3278809,7.3579102C4.7265625,20.7661133,5.2626953,21,5.8212891,21h12.3574219   c0.5585938,0,1.0947266-0.2338867,1.4716797-0.6425781C21.7155151,18.1182861,22.8677368,16.2290039,22.9782715,13H23.5   c0.2763672,0,0.5-0.2236328,0.5-0.5S23.7763672,12,23.5,12z" fill="url(#SVGID_1_)"/></g><g/><g/><g/><g/><g/><g/><g/><g/><g/><g/><g/><g/><g/><g/><g/></svg>