<?xml version="1.0" ?><svg id="Слой_1" style="enable-background:new 0 0 512 512;" version="1.1" viewBox="0 0 512 512" xml:space="preserve" xmlns="http://www.w3.org/2000/svg" xmlns:xlink="http://www.w3.org/1999/xlink"><style type="text/css">
	.st0{fill:#EAE159;}
	.st1{fill:#3E2619;}
	.st2{fill:#9A7047;}
	.st3{fill:#FFFFFF;}
	.st4{fill:#CDC24E;}
	.st5{fill:#6CA35D;}
	.st6{fill:#52794F;}
</style><g id="XMLID_14_"><path class="st0" d="M302.5,144.8c-15.8,2.9-29.2,5-40.9,6.4c-0.5,3.4-0.9,6.7-1.2,10.1c13.4,0.6,23.7,3.9,23.7,7.9   c0,4.4-12.6,8-28.1,8c-15.5,0-28.1-3.6-28.1-8c0-4.2,11.1-7.5,25.3-7.9c0.2-3.2,0.5-6.4,0.8-9.6c-12.4-1.5-27.1-3.6-44.5-6.9   C129.1,130,43.8,190.2,72.9,286.7c10.9,36.3,27.3,83.8,47.9,125.9c-9.4-19.5-18-40.1-25.5-60.1c42.7,83.6,99,145.9,163.1,100.1   c0,0,1.1-0.1,2.9-0.2c1.8,0.1,2.8,0.2,2.8,0.2c48.1,34.3,91.7,7.8,128.5-42.8c20-41.4,35.8-87.7,46.5-123.2   C468.2,190.2,382.8,130,302.5,144.8z M120.5,213.6c-8.4,14.3-20.2,23-26.3,19.4c-6.1-3.6-4.2-18.1,4.2-32.4   c8.4-14.3,20.2-23,26.3-19.4C130.8,184.8,128.9,199.3,120.5,213.6z" id="XMLID_26_"/><path class="st1" d="M252.8,169c0.1-2.5,0.3-5.2,0.5-7.8c-14.2,0.4-25.3,3.8-25.3,7.9c0,4.4,12.6,8,28.1,8   c15.5,0,28.1-3.6,28.1-8c0-4-10.3-7.3-23.7-7.9c-0.2,2.6-0.5,5.3-0.7,7.9L252.8,169z" id="XMLID_10_"/><path class="st2" d="M261.6,151.2c4-27.7,15.2-54.3,46.6-71.6l-1.6-12c-14.4,6.6-24.8,15.2-32.4,25   c-0.3,10.1-2.4,18.3-3.6,22c-2.1,1.2-5.7,3.1-10.4,5c-3.4,10.4-5.1,21.3-6.2,32c0.6,0.1,1.3,0.2,1.9,0.2   C257.8,151.7,259.7,151.4,261.6,151.2z" id="XMLID_9_"/><path class="st2" d="M256,161.2c1.5,0,2.9,0.1,4.4,0.1c0.3-3.4,0.7-6.7,1.2-10.1c-1.9,0.2-3.8,0.5-5.6,0.7   c-0.6-0.1-1.3-0.2-1.9-0.2c-0.3,3.2-0.6,6.4-0.8,9.6C254.2,161.3,255.1,161.2,256,161.2z" id="XMLID_8_"/><path class="st2" d="M253.2,161.3c-0.2,2.6-0.3,5.2-0.5,7.8l7,0.2c0.1-2.6,0.4-5.3,0.7-7.9c-1.4-0.1-2.9-0.1-4.4-0.1   C255.1,161.2,254.2,161.3,253.2,161.3z" id="XMLID_7_"/><path class="st2" d="M274.2,92.7c-6.5,8.3-10.9,17.5-14,27c4.7-1.9,8.3-3.8,10.4-5   C271.8,110.9,273.9,102.7,274.2,92.7z" id="XMLID_6_"/><path class="st3" d="M124.7,181.2c-6.1-3.6-17.9,5.1-26.3,19.4c-8.4,14.3-10.3,28.8-4.2,32.4   c6.1,3.6,17.9-5.1,26.3-19.4C128.9,199.3,130.8,184.8,124.7,181.2z" id="XMLID_5_"/><path class="st4" d="M264.1,452.6c0,0-1.1-0.1-2.8-0.2c-1.8,0.1-2.9,0.2-2.9,0.2C194.3,498.4,138,436,95.2,352.5   c7.5,20.1,16,40.6,25.5,60.1c34.3,70,80.3,124.8,133,87.2c0,0,0.9-0.1,2.3-0.2c1.4,0.1,2.2,0.2,2.2,0.2   c53.4,38.1,100-18.6,134.3-89.9C355.7,460.4,312.1,486.9,264.1,452.6z" id="XMLID_4_"/><g id="XMLID_15_"><path class="st5" d="M195.1,0c0,0.6-0.1,1.1-0.1,1.7c6,64.9,53.5,92.5,76.7,100.1C278,77.3,278.6,17.3,195.1,0z" id="XMLID_3_"/><path class="st6" d="M195,1.7c-5.6,92.6,49.1,102.4,73.6,100.4c1.1-0.1,2.2-0.2,3.1-0.3    C248.6,94.2,201,66.6,195,1.7z" id="XMLID_2_"/><path class="st6" d="M271.7,101.8C271.6,102.3,271.9,101.3,271.7,101.8L271.7,101.8z" id="XMLID_1_"/></g></g></svg>