<?xml version="1.0" ?><svg viewBox="0 0 32 32" xmlns="http://www.w3.org/2000/svg"><defs><style>.cls-1{fill:#00712f;}.cls-2{fill:#00963e;}.cls-3{fill:#5b4036;}.cls-4{fill:#795548;}.cls-5{fill:#00c853;}</style></defs><title/><g data-name="Layer 3" id="Layer_3"><path class="cls-1" d="M6.69,8.05a4.55,4.55,0,0,1,3-1.57,4.72,4.72,0,0,0-1.17,4.15L9.81,17.9A12.54,12.54,0,0,1,10,20.16l-.07,5.58a2.88,2.88,0,0,0,.54,1.69A4.56,4.56,0,0,1,6.6,23.31l-1-11.93A4.53,4.53,0,0,1,6.69,8.05Z"/><path class="cls-2" d="M21.93,20.16a12.54,12.54,0,0,1,.19-2.26l1.29-7.27a4.68,4.68,0,0,0-1.19-4.16,4.54,4.54,0,0,1,4.16,4.91l-1,11.93a4.54,4.54,0,0,1-3.94,4.13,2.91,2.91,0,0,0,.54-1.7Z"/><path class="cls-3" d="M14,5.79V5.11a1.87,1.87,0,0,1,2-1.69V6A13,13,0,0,1,14,5.79Z"/><path class="cls-4" d="M16,3.42h0a1.87,1.87,0,0,1,2,1.69v.67A12.74,12.74,0,0,1,16,6Z"/><path class="cls-5" d="M18,5.78c.25,0,.5-.06.75-.11l.46-.1a3.23,3.23,0,0,1,3,.89h0a4.68,4.68,0,0,1,1.19,4.16L22.12,17.9a12.54,12.54,0,0,0-.19,2.26L22,25.74a2.91,2.91,0,0,1-.54,1.7A3.12,3.12,0,0,1,21,28a3.32,3.32,0,0,1-2.66.78L18,28.75a13.57,13.57,0,0,0-2-.15V6A12.74,12.74,0,0,0,18,5.78Z"/><path class="cls-2" d="M9.69,6.48l0,0a3.23,3.23,0,0,1,3-.89l.46.1c.27,0,.55.08.82.12A13,13,0,0,0,16,6V28.6a13.6,13.6,0,0,0-2,.15l-.32.05h0a2.7,2.7,0,0,1-.49,0A3.27,3.27,0,0,1,11,28a3.13,3.13,0,0,1-1.06-2.28L10,20.16a12.54,12.54,0,0,0-.19-2.26L8.52,10.63A4.72,4.72,0,0,1,9.69,6.48Z"/></g></svg>