<?xml version="1.0" ?><svg viewBox="0 0 64 64" xmlns="http://www.w3.org/2000/svg"><defs><style>.cls-1{fill:#aa7b50;}.cls-2{fill:#bb9573;}.cls-3{fill:#c73b40;}.cls-4{fill:#d26266;}.cls-5{fill:#ffffab;}.cls-6{fill:#ffffb5;}.cls-7{fill:#ffffbc;}.cls-8{fill:#f478af;}.cls-9{fill:#f693bf;}.cls-10{fill:#d16796;}</style></defs><title/><g data-name="Layer 25" id="Layer_25"><polygon class="cls-1" points="51 37 13 37 16.093 63 47.907 63 51 37"/><polygon class="cls-2" points="48 37 44.907 63 47.907 63 51 37 48 37"/><polygon class="cls-3" points="53 31 25 31 11 31 9 31 9 37 12.35 37 26.35 37 37.65 37 51.65 37 55 37 55 31 53 31"/><polygon class="cls-4" points="53 31 52 31 52 37 55 37 55 31 53 31"/><path class="cls-5" d="M29.55,17.76c-.28-.09-.57-.18-.87-.26h-.01a.845.845,0,0,0-.17-.05,4.371,4.371,0,0,0-.52-.12,5.1,5.1,0,0,0-.68-.13,4.506,4.506,0,0,0-.53-.08c-.29-.04-.58-.07-.88-.09S25.3,17,25,17s-.6.01-.89.03a12,12,0,0,0-1.61.2c-.33.06-.66.13-.98.21a1.17,1.17,0,0,0-.2.05q-.45.12-.87.27c-.29.1-.57.2-.85.32-.3.13-.6.26-.89.41-.24.13-.48.26-.71.39-.25.15-.5.3-.74.46q-.3.195-.6.42a3.919,3.919,0,0,0-.32.25,7.083,7.083,0,0,0-.68.57c-.18.15-.35.32-.52.48-.21.21-.42.43-.62.66s-.39.45-.57.69c-.15.18-.28.36-.41.55a3.617,3.617,0,0,0-.22.32c-.01.02-.03.04-.04.06A13.937,13.937,0,0,0,11,31H25a13.732,13.732,0,0,1,.97-5.1A14.027,14.027,0,0,1,32,18.89,13.985,13.985,0,0,0,29.55,17.76Z"/><circle class="cls-3" cx="32" cy="3" r="2"/><path class="cls-6" d="M46,18.88a13.94,13.94,0,0,0-14,.01,13.94,13.94,0,0,0-14-.01A14,14,0,0,1,28.32,5.49a.7.7,0,0,1,.14-.03l.01-.01c.02,0,.03-.01.05-.01a13.982,13.982,0,0,1,6.96,0c.02,0,.03.01.05.01l.01.01a.7.7,0,0,1,.14.03A14,14,0,0,1,46,18.88Z"/><path class="cls-7" d="M32.48,5.44c.02,0,.03.01.05.01l.01.01a.7.7,0,0,1,.14.03A13.972,13.972,0,0,1,42.918,17.562,13.771,13.771,0,0,1,46,18.88,14,14,0,0,0,35.68,5.49a.7.7,0,0,0-.14-.03l-.01-.01c-.02,0-.03-.01-.05-.01A14.24,14.24,0,0,0,32,5a13.776,13.776,0,0,0-1.5.088A14.549,14.549,0,0,1,32.48,5.44Z"/><path class="cls-8" d="M35.68,5.49c-.02.02-.15-.01-.2-.05a13.982,13.982,0,0,0-6.96,0c-.05.04-.18.07-.2.05a14.021,14.021,0,0,0-8.04,5.85,5,5,0,0,0,7.35.1c.01-.01.01-.02.02-.02a4.957,4.957,0,0,0,8.7,0c.01,0,.01.01.02.02a5,5,0,0,0,7.35-.1A14.021,14.021,0,0,0,35.68,5.49Z"/><path class="cls-8" d="M29.55,17.76q-.435-.15-.87-.27v.01s-.19-.05-.2-.06c-.17-.04-.33-.08-.5-.11a5.1,5.1,0,0,0-.68-.13,4.506,4.506,0,0,0-.53-.08c-.29-.04-.58-.07-.88-.09S25.3,17,25,17s-.6.01-.89.03a14.16,14.16,0,0,0-1.61.2c-.33.06-.66.13-.98.21-.05.04-.79.22-1.07.32s-.57.2-.85.32c-.3.13-.6.26-.89.41-.24.13-.48.26-.71.39-.25.15-.5.3-.74.46q-.3.195-.6.42a3.919,3.919,0,0,0-.32.25,7.083,7.083,0,0,0-.68.57c-.18.15-.35.32-.52.48-.21.21-.42.43-.62.66s-.39.45-.57.69c-.15.18-.28.36-.41.55a3.617,3.617,0,0,0-.22.32c-.01.02-.03.04-.04.06a5,5,0,0,0,7.35.1c.01-.01.01-.02.02-.02A4.975,4.975,0,0,0,25,26a4.435,4.435,0,0,0,.97-.1A14.027,14.027,0,0,1,32,18.89,13.985,13.985,0,0,0,29.55,17.76Z"/><path class="cls-5" d="M46,18.88A14.009,14.009,0,0,0,25,31H53A13.973,13.973,0,0,0,46,18.88Z"/><path class="cls-7" d="M46,18.88A13.854,13.854,0,0,0,39,17a14.187,14.187,0,0,0-1.495.087A13.821,13.821,0,0,1,43,18.88,13.973,13.973,0,0,1,50,31h3A13.973,13.973,0,0,0,46,18.88Z"/><path class="cls-8" d="M42.68,17.49c-.02.02-.15-.01-.2-.05a13.982,13.982,0,0,0-6.96,0c-.05.04-.18.07-.2.05a14.021,14.021,0,0,0-8.04,5.85,5,5,0,0,0,7.35.1c.01-.01.01-.02.02-.02a4.957,4.957,0,0,0,8.7,0c.01,0,.01.01.02.02a5,5,0,0,0,7.35-.1A14.021,14.021,0,0,0,42.68,17.49Z"/><path class="cls-9" d="M42.68,17.49c-.02.02-.15-.01-.2-.05A14.24,14.24,0,0,0,39,17a13.776,13.776,0,0,0-1.5.088,14.549,14.549,0,0,1,1.98.352c.05.04.18.07.2.05a14.021,14.021,0,0,1,8.04,5.85,4.963,4.963,0,0,1-2.18,1.417,4.865,4.865,0,0,0,5.18-1.417A14.021,14.021,0,0,0,42.68,17.49Z"/><path class="cls-9" d="M35.9,5.335c-.02.02-.15-.01-.2-.05a14.24,14.24,0,0,0-3.48-.44,13.761,13.761,0,0,0-1.5.089,14.759,14.759,0,0,1,1.98.351c.05.04.18.07.2.05a14.021,14.021,0,0,1,8.04,5.85A4.96,4.96,0,0,1,38.76,12.6a4.865,4.865,0,0,0,5.18-1.417A14.021,14.021,0,0,0,35.9,5.335Z"/><circle class="cls-10" cx="27" cy="9" r="1"/><circle class="cls-10" cx="32" cy="9.972" r="1"/><circle class="cls-10" cx="37" cy="9" r="1"/><circle class="cls-10" cx="34" cy="21" r="1"/><circle class="cls-10" cx="39" cy="21.972" r="1"/><circle class="cls-10" cx="44" cy="21" r="1"/><circle class="cls-10" cx="20" cy="21" r="1"/><circle class="cls-10" cx="25" cy="21.972" r="1"/><path d="M55,30H53.966a15.011,15.011,0,0,0-2.373-7.124.867.867,0,0,0-.036-.083c-.167-.255-.351-.5-.532-.738-.043-.058-.083-.118-.127-.175-.148-.194-.3-.38-.462-.566q-.139-.166-.285-.328c-.158-.177-.318-.352-.484-.52-.106-.108-.218-.21-.328-.315-.284-.27-.576-.529-.88-.776-.135-.11-.269-.221-.408-.327-.173-.131-.349-.256-.527-.379-.148-.1-.3-.2-.451-.3-.034-.022-.065-.044-.1-.065A14.97,14.97,0,0,0,35.942,4.525l-.018,0-.011,0c-.021-.006-.054-.016-.095-.025a.913.913,0,0,0-.1-.026l-.011,0c-.233-.059-.466-.106-.7-.153-.071-.015-.143-.034-.214-.047l-.074-.012A2.969,2.969,0,0,0,35,3a3,3,0,0,0-6,0,2.969,2.969,0,0,0,.283,1.253l-.07.011c-.2.038-.4.086-.6.132-.105.024-.21.043-.315.069l-.015,0h-.007l-.042.009-.024.007c-.06.013-.11.027-.151.038q-.664.181-1.3.421a14.964,14.964,0,0,0-9.726,13.362c-.1.065-.213.128-.312.193-.217.143-.436.295-.641.449a3.5,3.5,0,0,0-.328.257,7.227,7.227,0,0,0-.724.605c-.154.127-.3.267-.446.406l-.142.135c-.226.226-.453.463-.653.694-.221.244-.432.5-.6.722a6.832,6.832,0,0,0-.424.566,4.657,4.657,0,0,0-.281.406l0,.006q-.015.021-.03.045h0A14.929,14.929,0,0,0,10.036,30H9a1,1,0,0,0-1,1v6a1,1,0,0,0,1,1h3.112L15.1,63.118a1,1,0,0,0,.993.882H47.907a1,1,0,0,0,.993-.882L51.888,38H55a1,1,0,0,0,1-1V31A1,1,0,0,0,55,30Zm-4.551-5.095A12.976,12.976,0,0,1,51.961,30H26.046c0-.026,0-.051,0-.077a12.9,12.9,0,0,1,.207-1.472c0-.027.013-.052.019-.078a12.854,12.854,0,0,1,.353-1.318c.034-.107.072-.213.11-.319.137-.392.29-.777.463-1.153.025-.053.046-.107.071-.159.084-.177.19-.343.283-.516a5.992,5.992,0,0,0,6.91-.009,5.943,5.943,0,0,0,9.069,0,5.989,5.989,0,0,0,6.914.007ZM45.5,19.746a13.116,13.116,0,0,1,1.273.844l.1.079a12.97,12.97,0,0,1,2.186,2.117l.049.06c.095.118.173.248.264.369a4,4,0,0,1-5.256-.437,1.048,1.048,0,0,0-1.645.157,3.958,3.958,0,0,1-6.952,0,1,1,0,0,0-.874-.515,1.031,1.031,0,0,0-.77.357,4,4,0,0,1-5.251.443c.063-.083.117-.172.182-.254s.115-.149.176-.222a13.024,13.024,0,0,1,.96-1.049c.038-.037.079-.07.117-.107.3-.288.624-.56.956-.82.1-.076.2-.152.3-.226a13.235,13.235,0,0,1,1.172-.779l.012-.007,0,0a13.2,13.2,0,0,1,11.433-.771l.094.039a12.223,12.223,0,0,1,1.466.722ZM32,2a1,1,0,1,1-1,1A1,1,0,0,1,32,2ZM21.713,11.06c.1-.131.206-.256.312-.382.134-.162.27-.321.412-.475.116-.127.236-.251.358-.373q.207-.208.423-.406c.136-.125.274-.249.416-.368s.27-.22.407-.327c.162-.125.325-.25.492-.368.117-.082.237-.159.357-.237.2-.128.391-.256.594-.373.081-.047.165-.089.247-.134a13.005,13.005,0,0,1,2.677-1.111l.054-.017a1.287,1.287,0,0,0,.324-.084c.332-.083.664-.131,1-.188.21-.037.419-.089.628-.115.343-.043.685-.051,1.028-.066.2-.009.4-.032.6-.031a12.7,12.7,0,0,1,1.532.094c.2.024.4.075.6.109.34.057.68.106,1.02.19a1.39,1.39,0,0,0,.27.071c.325.089.643.194.958.308.046.017.094.029.14.046.349.131.692.278,1.027.437.116.055.226.119.34.177.219.112.437.225.649.349.129.076.254.16.381.24.188.119.375.239.557.368.129.092.255.189.381.286.17.13.338.262.5.4q.185.158.364.323c.158.143.311.291.462.442.113.115.226.231.335.35.148.16.291.326.431.495.1.12.2.24.3.364.038.049.072.1.11.152a4,4,0,0,1-5.271-.428,1.048,1.048,0,0,0-1.645.157,3.958,3.958,0,0,1-6.952,0,1,1,0,0,0-.874-.514,1.027,1.027,0,0,0-.769.356,4,4,0,0,1-5.273.43C21.644,11.158,21.676,11.107,21.713,11.06ZM20.535,12.9a6,6,0,0,0,6.932.006,5.944,5.944,0,0,0,9.068,0,5.992,5.992,0,0,0,6.93,0,12.979,12.979,0,0,1,1.408,4.3c-.038-.016-.078-.026-.116-.042s-.092-.033-.138-.051c-.358-.145-.724-.274-1.095-.391-.1-.032-.2-.068-.3-.1s-.187-.064-.283-.091a1.2,1.2,0,0,0-.119-.025c-.032-.011-.065-.021-.1-.03a15.058,15.058,0,0,0-7.45,0c-.033.009-.066.019-.1.03a1.2,1.2,0,0,0-.119.025,15.066,15.066,0,0,0-3.033,1.209L32,17.746c-.089-.048-.186-.08-.276-.126-.374-.19-.755-.363-1.145-.522-.124-.05-.247-.1-.373-.151-.11-.041-.216-.093-.327-.132l-.024-.007-.039-.012c-.291-.1-.581-.191-.871-.27a.906.906,0,0,0-.1-.019c-.035-.01-.071-.023-.106-.03-.013,0-.027-.006-.041-.009s-.042-.015-.062-.02c-.141-.033-.269-.062-.349-.075-.031-.006-.059-.016-.09-.021a6.068,6.068,0,0,0-.718-.137c-.177-.038-.357-.06-.524-.079-.113-.015-.227-.025-.341-.037-.216-.025-.43-.052-.651-.067C25.646,16.011,25.324,16,25,16h0c-.064,0-.126.006-.19.006-.257,0-.514.009-.753.025h-.018l-.085.008c-.105.007-.211.02-.316.029-.082.007-.164.013-.245.022-.358.039-.717.087-1.07.155l-.171.034c-.092.018-.184.035-.275.054q-.238.051-.426.1c-.056.013-.116.023-.172.037h0a1.674,1.674,0,0,0-.214.054c-.127.034-.242.076-.365.113-.095.028-.19.056-.284.087-.116.033-.219.065-.29.09-.313.109-.616.217-.921.348l-.075.035h0A12.979,12.979,0,0,1,20.535,12.9ZM14.751,23.009c.161-.215.33-.42.523-.633s.379-.415.552-.588l.132-.125c.111-.107.224-.216.393-.36a7.431,7.431,0,0,1,.657-.549,3.173,3.173,0,0,1,.252-.194c.182-.137.364-.264.553-.387.228-.152.464-.294.679-.423l.011-.006h0a13.193,13.193,0,0,1,11.489-.731,15,15,0,0,0-3.549,3.78c-.018.029-.024.062-.04.092s-.051.084-.077.125q-.146.229-.283.463l-.017.029-.012.02c-.068.116-.132.235-.2.353q-.123.227-.238.456l-.038.076c-.059.12-.116.241-.172.363-.034.075-.073.147-.106.222C25.179,25,25.091,25,25,25a3.99,3.99,0,0,1-3.476-2.066,1,1,0,0,0-.874-.514,1.027,1.027,0,0,0-.769.356A4,4,0,0,1,14.6,23.2C14.647,23.14,14.693,23.079,14.751,23.009ZM13.542,24.9a6,6,0,0,0,6.925,0,5.974,5.974,0,0,0,4.093,2.075c-.029.1-.056.208-.083.312-.058.227-.114.454-.162.683-.024.118-.043.236-.065.355-.04.218-.081.437-.111.657s-.051.459-.072.689c-.01.11-.027.218-.034.328H12.038A12.927,12.927,0,0,1,13.542,24.9ZM47.02,62H16.981l-.476-4H26a1,1,0,0,0,0-2H16.267l-.238-2H22a1,1,0,0,0,0-2H16a.934.934,0,0,0-.2.041L14.126,38H49.874ZM54,36H10V32H54Z"/></g></svg>