<?xml version="1.0" ?><!DOCTYPE svg  PUBLIC '-//W3C//DTD SVG 1.1//EN'  'http://www.w3.org/Graphics/SVG/1.1/DTD/svg11.dtd'><svg enable-background="new 0 0 128 128" id="Слой_1" version="1.1" viewBox="0 0 128 128" xml:space="preserve" xmlns="http://www.w3.org/2000/svg" xmlns:xlink="http://www.w3.org/1999/xlink"><g><g><g><g><path d="M79.4,124H48.6c-3.2,0-5.7-2.6-5.7-5.7V56.4c0-4.8,2.7-9.2,7-11.4l0,0c1.8-0.9,3.3-2.1,4.4-3.7      c2-2.6,2.7-6,2.3-9.3l-0.1-1c-0.6-4.5-0.2-11.9,0.8-16.3l0.4-1.7h-2.3V4h17.1v9.1h-2.3l0.4,1.7c1,4.4,1.4,11.8,0.8,16.3l-0.1,1      c-0.4,3.3,0.3,6.7,2.3,9.3c1.2,1.5,2.7,2.8,4.4,3.7l0,0c4.3,2.2,7,6.6,7,11.4v61.9C85.1,121.4,82.6,124,79.4,124z" fill="#FBB161"/></g><g><rect fill="#645F5A" height="49.1" width="42.3" x="42.9" y="66.9"/></g><g><circle cx="64" cy="89.6" fill="#FFFFFF" r="8.6"/></g><g><g><path d="M71.4,32.1c0.6-4.6,0.3-12.7-0.7-17.3l-0.4-1.7h2.3V4H55.4v9.1h2.3l-0.4,1.7c-1,4.5-1.3,12.7-0.7,17.3       c0.2,1.3,0.1,2.6-0.1,3.9h14.9C71.2,34.7,71.2,33.4,71.4,32.1z" fill="#645F5A"/></g></g><g opacity="0.2"><g><path d="M78.1,45c-1.8-0.9-3.3-2.1-4.4-3.7c-2-2.6-2.7-6-2.3-9.3l0.1-1c0.6-4.5,0.2-11.9-0.8-16.3l-0.4-1.7h2.3       V4h-3.4v9.1h-2.3l0.4,1.7c1,4.4,1.4,11.8,0.8,16.3l-0.1,1c-0.4,3.3,0.1,6.8,2.3,9.3c4.2,4.8,8,7,8,15v61.9       c0,3.2-2.6,5.7-5.7,5.7h6.9c3.2,0,5.7-2.6,5.7-5.7V56.4C85.1,51.6,82.4,47.2,78.1,45z" fill="#62345B"/></g></g><g><path d="M79.4,126H48.6c-4.3,0-7.7-3.5-7.7-7.7V56.4c0-5.6,3.1-10.7,8.1-13.2c1.5-0.7,2.7-1.8,3.7-3.1      c1.6-2.1,2.3-4.9,1.9-7.8l-0.1-1c-0.6-4.5-0.2-11.5,0.7-16.2c-1-0.1-1.8-1-1.8-2V4c0-1.1,0.9-2,2-2h17.1c1.1,0,2,0.9,2,2v9.1      c0,1-0.8,1.9-1.8,2c0.9,4.7,1.2,11.7,0.7,16.2l-0.1,1c-0.4,2.9,0.3,5.8,1.9,7.8c1,1.3,2.3,2.4,3.7,3.1c5,2.5,8.1,7.5,8.1,13.2      v61.9C87.1,122.5,83.7,126,79.4,126z M57.4,11.1h0.3c0.6,0,1.2,0.3,1.6,0.8c0.4,0.5,0.5,1.1,0.4,1.7l-0.4,1.7      c-1,4.2-1.3,11.3-0.8,15.6l0.1,1c0.5,4-0.5,7.8-2.7,10.8c-1.4,1.8-3.1,3.2-5.1,4.2c-3.7,1.8-5.9,5.5-5.9,9.6v61.9      c0,2,1.7,3.7,3.7,3.7h30.9c2,0,3.7-1.7,3.7-3.7V56.4c0-4.1-2.3-7.8-5.9-9.6c-2-1-3.8-2.5-5.1-4.2c-2.2-3-3.2-6.8-2.7-10.8l0.1-1      c0.5-4.3,0.2-11.4-0.8-15.6l-0.4-1.7c-0.1-0.6,0-1.2,0.4-1.7c0.4-0.5,1-0.8,1.6-0.8h0.3V6H57.4V11.1z" fill="#62345B"/></g><g><path d="M72.6,15.1H55.4c-1.1,0-2-0.9-2-2s0.9-2,2-2h17.1c1.1,0,2,0.9,2,2S73.7,15.1,72.6,15.1z" fill="#62345B"/></g></g></g><g><rect fill="#FFFFFF" height="5.7" width="20.6" x="53.7" y="101.1"/></g><g><path d="M72.1,81.5l4-4c-6.7-6.7-17.6-6.7-24.2,0l4,4C60.4,77,67.6,77,72.1,81.5z" fill="#FFFFFF"/></g></g></svg>