<?xml version="1.0" ?><!DOCTYPE svg  PUBLIC '-//W3C//DTD SVG 1.1//EN'  'http://www.w3.org/Graphics/SVG/1.1/DTD/svg11.dtd'><svg enable-background="new 0 0 128 128" id="Слой_1" version="1.1" viewBox="0 0 128 128" xml:space="preserve" xmlns="http://www.w3.org/2000/svg" xmlns:xlink="http://www.w3.org/1999/xlink"><g><g><g><g><path d="M84.2,124H43.8c-3.6,0-6.5-2.9-6.5-6.5V53.5c0-8,2-11.8,5.4-14l8.7-5.8c3.4-2.3,5.4-6.1,5.4-10.1v-9.1      h-2.6V4h19.6v10.4h-2.6v9.1c0,4.1,2,7.9,5.4,10.1l8.7,5.8c3.4,2.3,5.4,6.1,5.4,14v63.9C90.7,121.1,87.8,124,84.2,124z" fill="#27A249"/></g><g><rect fill="#24763B" height="10.4" width="19.6" x="54.2" y="4"/></g><g><rect fill="#FFFFFF" height="3.9" width="19.6" x="54.2" y="4"/></g><g><path d="M84.2,124H43.8c-3.6,0-6.5-2.9-6.5-6.5V53.5c0-8,2-11.8,5.4-14l8.7-5.8h25.2l8.7,5.8      c3.4,2.3,5.4,6.1,5.4,14v63.9C90.7,121.1,87.8,124,84.2,124z" fill="#2B4C26"/></g><g><path d="M38.6,114.9h50.9V58.8c0-7.2-5.8-13-13-13H51.6c-7.2,0-13,5.8-13,13V114.9z" fill="#FFFFFF"/></g><g><path d="M85.7,111.2H42.3V58.8c0-5.1,4.2-9.3,9.3-9.3h24.8c5.1,0,9.3,4.2,9.3,9.3V111.2z M45.3,108.2h37.4V58.8      c0-3.5-2.8-6.3-6.3-6.3H51.6c-3.5,0-6.3,2.8-6.3,6.3V108.2z" fill="#27A249"/></g><g opacity="0.3"><g><path d="M85.3,39.5l-8.7-5.8c-3.4-2.3-5.4-6.1-5.4-10.1v-9.1h2.6V4h-5.2v10.4h0v9.1c0,4.1,2,10.5,5.4,12.7       l3.5,3.2c3.4,2.3,4.1,6.1,4.1,14V124h2.6c3.6,0,6.5-2.9,6.5-6.5V53.5C90.7,45.6,88.7,41.8,85.3,39.5z" fill="#62345B"/></g></g><g><path d="M84.2,126H43.8c-4.7,0-8.5-3.8-8.5-8.5V53.5c0-7.9,1.9-12.8,6.3-15.7l8.7-5.8c2.8-1.9,4.5-5,4.5-8.5      v-7.1h-0.6c-1.1,0-2-0.9-2-2V4c0-1.1,0.9-2,2-2h19.6c1.1,0,2,0.9,2,2v10.4c0,1.1-0.9,2-2,2h-0.6v7.1c0,3.4,1.7,6.6,4.5,8.5      l8.7,5.8c4.4,2.9,6.3,7.7,6.3,15.7v63.9C92.7,122.2,88.9,126,84.2,126z M56.2,12.4h0.6c1.1,0,2,0.9,2,2v9.1      c0,4.7-2.4,9.2-6.3,11.8l-8.7,5.8c-2.2,1.5-4.5,4.1-4.5,12.4v63.9c0,2.5,2,4.5,4.5,4.5h40.4c2.5,0,4.5-2,4.5-4.5V53.5      c0-8.2-2.3-10.9-4.5-12.4l-8.7-5.8c-3.9-2.6-6.3-7-6.3-11.8v-9.1c0-1.1,0.9-2,2-2h0.6V6H56.2V12.4z" fill="#62345B"/></g><g><path d="M73.8,16.4H54.2c-1.1,0-2-0.9-2-2s0.9-2,2-2h19.6c1.1,0,2,0.9,2,2S74.9,16.4,73.8,16.4z" fill="#62345B"/></g></g></g><g><circle cx="64" cy="65.1" fill="#934441" r="9.8"/></g><g><rect fill="#F16570" height="11.7" width="35.2" x="46.4" y="79.6"/></g></g></svg>