<?xml version="1.0" ?><svg id="Layer_8" style="enable-background:new 0 0 512 512;" version="1.1" viewBox="0 0 512 512" xml:space="preserve" xmlns="http://www.w3.org/2000/svg" xmlns:xlink="http://www.w3.org/1999/xlink"><style type="text/css">
	.st0{fill:#79AA2D;}
	.st1{fill:#8CC63F;}
	.st2{fill:#B6E867;}
</style><g><path class="st0" d="M256,483.8c0,0-68-84.4-136.1-145.5s-114-20-114-20s-27-25.8,34.1-75.2s-42.3-47-11.7-95.2   s82.2-55.2,82.2-55.2s1.4,0,27.1-37.6S202.5,17.7,221,34s37.6,16.4,58.2,16.4c0,0,140.2,44.5,105.6,124.3s-73.5,128.8-71,162.7   c2.5,33.9-18.9,136.8-18.9,136.8S290.9,508.8,256,483.8z"/><path class="st1" d="M251.7,480.5c0,0-60-132.8-81.7-177.5s-58.7-79.2-75.3-98.3s-24.3-39.6-8.9-52.3   c15.3-12.8,34.5-16.6,38.3-17.9c3.8-1.3-4.5-33.2,40.5-48.5s69.3-29.4,69.3-29.4s21.7-28.1,46-28.1s63.8,7.7,63.8,7.7   s43.4-10.2,47.2-14s19.2-10.2,40.9,11.5S453.5,86,453.5,86s51.1,10.2,57.5,48.5c6.4,38.3-33.2,46-33.2,46s38.4,21.7,33.9,58.7   s-27.5,31.9-31.3,37.7c-3.8,5.7-47.2,24.9-46,44c1.3,19.2,2.6,38.3,2.6,38.3s-2.6,10.2-30.6,17.9s-42.1-15.3-56.2,28.1   s-48.5,79.2-63.8,86.8S251.7,480.5,251.7,480.5z"/><g><path class="st2" d="M233.8,103c0,0,6.4,3.6,15.1,11.7C244,108.8,239,104.6,233.8,103z"/><path class="st2" d="M293.7,403.2c0.9-20,2.2-42.6,3.2-63.5c0-0.1,0-0.3,0.1-0.4c10.4-29.3,55.4-147.2,122.7-184.7    c1.7-1,0.4-3.6-1.4-2.7c-13.7,6.4-30.5,17.8-48.3,37.7c-0.9,1-2.6,0.4-2.7-1c-1.1-40.9,14.1-91.8,22-115.4c0.6-1.8-2-2.9-2.8-1.2    c-20.8,40.3-24.2,112.8-24.7,126.9c0,0.3-0.1,0.6-0.3,0.9c-20.3,25.5-41.4,62.6-60.4,116.4c-0.6,1.7-3.1,1.2-3-0.6    c0.8-18.4,1.3-33.5,1.1-41.2c-0.6-18.9-0.4-78.5-0.2-116.1c0-2-2.9-2.1-3.1-0.1c-0.7,9-1.4,19.9-2,32.9c-0.1,1.8-2.7,2-3,0.3    c-5.9-28-17.7-48.4-29.1-62.6c-1.2-1.5-3.5,0.1-2.5,1.7c16.5,29.4,28.9,73.6,33.5,91.3c0,0.1,0.1,0.3,0,0.4    c-0.6,21.5-0.8,46.8-0.4,76.1c0.2,19.5-0.6,37.6-2.2,54.2c-0.2,1.7-2.6,1.9-3,0.2c-9.7-37.5-37.5-130.6-80.9-161.7    c-54.9-39.4-68.7-31.1-68.7-31.1s64.1,10.1,91.5,68.7c23.4,50,50.2,128.6,57.6,150.6c0.1,0.2,0.1,0.5,0.1,0.7    c-9.4,61.4-27.8,96.9-30.9,102.5c-0.3,0.5-0.3,1.1,0.1,1.6c12.8,19.7,35.5,5,41.7,0.5c0.7-0.5,0.9-1.5,0.3-2.2    c-1.6-1.9-4.4-7.7-5.5-24.6c-0.4-5.7-0.2-16.8,0.3-30.9c0-0.2,0.1-0.5,0.2-0.7c19-34.4,56.6-93.6,91.8-95    c-11.8,0.4-57,6.5-88.1,73C295.9,405.4,293.6,404.9,293.7,403.2z"/><path class="st2" d="M385.7,330.9c0.7,0,1.3,0,2,0C387.6,330.9,386.9,330.9,385.7,330.9z"/><path class="st2" d="M384.7,330.9c0.4,0,0.7,0,1,0C385.3,330.9,385,330.9,384.7,330.9z"/></g></g></svg>