<?xml version="1.0" ?><svg id="Layer_1_1_" style="enable-background:new 0 0 64 64;" version="1.1" viewBox="0 0 64 64" xml:space="preserve" xmlns="http://www.w3.org/2000/svg" xmlns:xlink="http://www.w3.org/1999/xlink"><g><g><path d="M32,14L32,14c0.634,0,1.235,0.281,1.64,0.768l2.506,3.007C37.344,19.213,38,21.025,38,22.896V28    c0,1.105-0.895,2-2,2h-8c-1.105,0-2-0.895-2-2v-5.104c0-1.871,0.656-3.684,1.854-5.121l2.506-3.007C30.765,14.281,31.366,14,32,14    z" style="fill:#FC6E51;"/><path d="M36,37L36,37c0.64,0.64,1,1.509,1,2.414v1.172c0,0.906-0.36,1.774-1,2.414h0    c-0.64,0.64-1.509,1-2.414,1h-3.172c-0.906,0-1.774-0.36-2.414-1l0,0c-0.64-0.64-1-1.509-1-2.414v-1.172    c0-0.906,0.36-1.774,1-2.414L36,37z" style="fill:#FC6E51;"/><path d="M27.06,38.804C28.014,39.565,29.175,40,30.414,40h3.172c1.239,0,2.4-0.435,3.354-1.196    C36.816,38.126,36.494,37.494,36,37h-8C27.506,37.494,27.184,38.126,27.06,38.804z" style="fill:#E9573F;"/><path d="M36,37L36,37c-0.64,0.64-1.509,1-2.414,1h-3.172c-0.906,0-1.774-0.36-2.414-1l0,0    c-0.64-0.64-1-1.509-1-2.414v-1.172c0-0.906,0.36-1.774,1-2.414l0,0c0.64-0.64,1.509-1,2.414-1h3.172c0.906,0,1.774,0.36,2.414,1    l0,0c0.64,0.64,1,1.509,1,2.414v1.172C37,35.491,36.64,36.36,36,37z" style="fill:#FC6E51;"/><path d="M38,52L38,52c-3.314,0-6-2.686-6-6v-2h2c2.209,0,4,1.791,4,4V52z" style="fill:#FC6E51;"/><path d="M36.661,45.033C35.953,44.398,35.026,44,34,44h-2v2h1.586C34.703,46,35.763,45.657,36.661,45.033z" style="fill:#E9573F;"/><path d="M26,52L26,52c3.314,0,6-2.686,6-6v-2h-2c-2.209,0-4,1.791-4,4V52z" style="fill:#FC6E51;"/><path d="M20.394,20h-4.252l2.067-3.617C18.727,15.477,19,14.451,19,13.407V7h-2V2h-1l-2.572,1.029    C8.942,4.823,6,9.168,6,14c0,3.777,1.778,7.334,4.8,9.6c2.077,1.558,4.604,2.4,7.2,2.4h8v-3C24.75,21.126,22.647,20,20.394,20z" style="fill:#FC6E51;"/><path d="M50.572,3.029L48,2h-1v5h-2v6.407c0,1.044,0.273,2.07,0.791,2.977L47.857,20h-4.252    c-2.253,0-4.356,1.126-5.606,3v3h8c2.596,0,5.123-0.842,7.2-2.4c3.022-2.266,4.8-5.823,4.8-9.6    C58,9.168,55.058,4.823,50.572,3.029z" style="fill:#FC6E51;"/><path d="M40,22.896c0-0.587-0.052-1.169-0.154-1.742C39.127,21.639,38.495,22.258,38,23v3h2V22.896z" style="fill:#E9573F;"/><path d="M26,26v-3c-0.495-0.742-1.127-1.361-1.846-1.845C24.052,21.727,24,22.31,24,22.896V26H26z" style="fill:#E9573F;"/><rect height="6" style="fill:#B27946;" width="4" x="30" y="56"/><path d="M50,21l-2.143-1h-4.252c-0.142,0-0.281,0.017-0.422,0.026L50,21z" style="fill:#E9573F;"/><path d="M14,21l6.816-0.974C20.676,20.017,20.536,20,20.394,20h-4.252L14,21z" style="fill:#E9573F;"/><path d="M30.414,30c-0.905,0-1.774,0.36-2.414,1c-0.273,0.273-0.483,0.593-0.648,0.935    C27.564,31.969,27.778,32,28,32h8c0.222,0,0.436-0.031,0.648-0.065C36.483,31.593,36.273,31.273,36,31c-0.64-0.64-1.509-1-2.414-1    H30.414z" style="fill:#E9573F;"/><path d="M30,44c-1.026,0-1.953,0.398-2.661,1.033C28.237,45.657,29.297,46,30.414,46H32v-2H30z" style="fill:#E9573F;"/></g><g><path d="M50.943,2.1L48.192,1H46v5h-2v7.407c0,1.217,0.319,2.418,0.923,3.473L46.134,19h-2.529c-1.806,0-3.513,0.636-4.874,1.744    c-0.314-1.271-0.902-2.467-1.732-3.496v-5.005c0-2.469,0.961-4.79,2.707-6.536l-1.414-1.414C36.17,6.417,35,9.24,35,12.243v2.595    l-0.592-0.71c-0.375-0.45-0.868-0.762-1.408-0.945V1h-2v12.183c-0.541,0.183-1.033,0.495-1.409,0.945L29,14.837v-2.594    c0-3.003-1.17-5.826-3.293-7.95l-1.414,1.414C26.039,7.453,27,9.774,27,12.243v5.005c-0.83,1.029-1.418,2.225-1.732,3.496    C23.907,19.636,22.2,19,20.395,19h-2.529l1.211-2.12C19.681,15.825,20,14.624,20,13.407V6h-2V1h-2.192l-2.751,1.1    C8.162,4.058,5,8.729,5,14c0,4.07,1.944,7.958,5.2,10.4c2.235,1.677,5.006,2.6,7.8,2.6h7v1c0,1.262,0.785,2.339,1.891,2.782    c-0.486,0.648-0.775,1.407-0.85,2.218h-4.576l-2.297,3.445l1.664,1.109L22.535,35h3.505c0.067,0.718,0.289,1.403,0.681,2    c-0.392,0.597-0.614,1.282-0.681,2h-4.576l-2.297,3.445l1.664,1.109L22.535,41h3.505c0.095,1.021,0.518,1.973,1.253,2.707    c0.023,0.023,0.051,0.039,0.074,0.061C25.951,44.652,25,46.212,25,48v5h1c1.958,0,3.728-0.81,5-2.111V55h-2v8h6v-8h-2v-4.111    C34.272,52.19,36.042,53,38,53h1v-5c0-1.788-0.951-3.348-2.367-4.232c0.023-0.022,0.051-0.038,0.074-0.061    c0.734-0.734,1.157-1.686,1.253-2.707h3.505l1.703,2.555l1.664-1.109L42.535,39H37.96c-0.067-0.718-0.289-1.403-0.681-2    c0.392-0.597,0.614-1.282,0.681-2h3.505l1.703,2.555l1.664-1.109L42.535,33H37.96c-0.076-0.811-0.364-1.57-0.85-2.218    C38.215,30.339,39,29.262,39,28v-1h7c2.794,0,5.564-0.923,7.8-2.6C57.056,21.958,59,18.07,59,14C59,8.729,55.838,4.058,50.943,2.1    z M33,61h-2v-4h2V61z M27,22.896c0-1.634,0.576-3.226,1.623-4.481l2.504-3.006C31.344,15.149,31.662,15,32,15    s0.656,0.149,0.872,0.408l2.505,3.007C36.424,19.67,37,21.262,37,22.896V28c0,0.551-0.448,1-1,1h-2.414h-3.172H28    c-0.552,0-1-0.449-1-1V22.896z M35.293,31.708C35.749,32.163,36,32.769,36,33.414v1.172c0,0.645-0.251,1.251-0.707,1.707    S34.23,37,33.586,37h-3.172c-0.645,0-1.251-0.251-1.707-0.707S28,35.23,28,34.586v-1.172c0-0.645,0.251-1.251,0.707-1.707    C29.163,31.251,29.77,31,30.414,31h3.172C34.23,31,34.837,31.251,35.293,31.708z M36,39.414v1.172    c0,0.645-0.251,1.251-0.707,1.707S34.23,43,33.586,43H33h-2h-0.586c-0.645,0-1.251-0.251-1.707-0.707S28,41.23,28,40.586v-1.172    c0-0.357,0.084-0.698,0.23-1.012C28.89,38.781,29.632,39,30.414,39h3.172c0.782,0,1.524-0.219,2.184-0.598    C35.916,38.716,36,39.057,36,39.414z M18,25c-2.364,0-4.708-0.781-6.601-2.2C8.645,20.734,7,17.444,7,14    c0-4.449,2.669-8.391,6.799-10.042L16,3.077v3.418c-1.904,1.421-3.265,3.442-3.844,5.759l-0.126,0.502l1.939,0.487l0.126-0.503    c0.479-1.918,1.617-3.591,3.217-4.741H18v5.407c0,0.869-0.228,1.727-0.659,2.48l-3.209,5.617l1.736,0.992L16.723,21h3.672    c1.829,0,3.526,0.872,4.605,2.334V25H18z M27,50.899V48c0-1.654,1.346-3,3-3h0.414H31v1C31,48.415,29.279,50.435,27,50.899z     M34,45c1.654,0,3,1.346,3,3v2.899c-2.279-0.465-4-2.484-4-4.899v-1h0.586H34z M52.601,22.8C50.708,24.219,48.364,25,46,25h-7    v-1.666C40.08,21.872,41.776,21,43.605,21h3.672l0.855,1.496l1.736-0.992l-3.209-5.617C46.228,15.133,46,14.276,46,13.407V8h0.688    c1.6,1.149,2.737,2.822,3.217,4.742l0.126,0.502l1.939-0.487l-0.126-0.501c-0.579-2.318-1.94-4.339-3.844-5.76V3.077l2.201,0.88    C54.331,5.609,57,9.551,57,14C57,17.444,55.355,20.734,52.601,22.8z"/><circle cx="30" cy="22" r="1"/><circle cx="34" cy="22" r="1"/></g></g></svg>