<?xml version="1.0" ?><svg id="ART" viewBox="0 0 150 150" xmlns="http://www.w3.org/2000/svg"><defs><style>.cls-1{fill:none;stroke-linecap:round;stroke-linejoin:round;}.cls-1,.cls-2{stroke:#000;stroke-width:4px;}.cls-2{fill:#49af20;stroke-miterlimit:10;}.cls-3{fill:#d83419;}.cls-4{fill:#fff;}</style></defs><title/><path class="cls-1" d="M75,52.72c2.63-10.87,3.5-36.5-6.62-45.13"/><path class="cls-2" d="M78.52,31.14C73.4,15,105.94-1.81,124.3,10.6,111.43,21.14,105.63,45.2,78.52,31.14Z"/><path class="cls-3" d="M75,51.94c7.59,0,10.76-10.59,25.31-10.59S131,52.29,131,76.65s-21.2,67.06-31.8,67.06-17.29-5.65-24.2-5.65-13.6,5.65-24.2,5.65S19,101,19,76.65,35.14,41.35,49.69,41.35,67.41,51.94,75,51.94Z" data-name="&lt;Clipping Path&gt;" id="_Clipping_Path_"/><path class="cls-1" d="M75,51.94c7.59,0,10.76-10.59,25.31-10.59S131,52.29,131,76.65s-21.2,67.06-31.8,67.06-17.29-5.65-24.2-5.65-13.6,5.65-24.2,5.65S19,101,19,76.65,35.14,41.35,49.69,41.35,67.41,51.94,75,51.94Z" data-name="&lt;Clipping Path&gt;" id="_Clipping_Path_2"/><path class="cls-4" d="M36.67,57c9.11-9.62,18.27-6.82,20.75-2.13s-4.37,11.84-9.21,16.4-10.59,12.32-15.63,12S25.81,68.48,36.67,57Z"/><path class="cls-4" d="M36.67,57c9.11-9.62,18.27-6.82,20.75-2.13s-4.37,11.84-9.21,16.4-10.59,12.32-15.63,12S25.81,68.48,36.67,57Z"/></svg>