<?xml version="1.0" ?><svg id="Layer_13" style="enable-background:new 0 0 512 512;" version="1.1" viewBox="0 0 512 512" xml:space="preserve" xmlns="http://www.w3.org/2000/svg" xmlns:xlink="http://www.w3.org/1999/xlink"><style type="text/css">
	.st0{fill:#736357;}
	.st1{fill:#9B928C;}
	.st2{fill:#D82F23;}
	.st3{fill:#FC4F38;}
	.st4{fill:#FF9C71;}
	.st5{fill:#FFD7B0;}
	.st6{fill:none;stroke:#FFFFFF;stroke-width:18;stroke-linecap:round;stroke-miterlimit:10;}
</style><g><path class="st0" d="M41.5,133.6c-83.3,137.2-31.9,263.1,72.8,322.4s314.8,43,377.4-67.9C100.5,547,41.5,133.6,41.5,133.6z"/><g><path class="st1" d="M26.2,369.5c-0.2-8.6,0.4-16.2,2.1-20.9c6.5-17.7,8-24.5,8.2-59.8c0.2-35.3-16.6,15.7-26.6,19.5    c-10,3.8-10-24.5,9.2-55.6c13.8-22.4,3.1-27-13.2-34.5C-7,274.4,1.9,326.3,26.2,369.5z"/><path class="st1" d="M361.6,476.9c-11-11.1-32.6-19.2-63.7-20c-56.2-1.4-28.1,39.1-55.5,22.2c-27.5-16.9-23.2-57.7-23.2-57.7    S148,463,120.3,452c-27.8-11-30.8-79.6-54.1-120.2c-14.9-25.9-24.6,18.4-29.7,54c19.7,28.4,46.4,52.3,77.9,70.2    C177.1,491.4,277.6,499.8,361.6,476.9z"/></g><path class="st2" d="M280.3,283.5c0,0,43.4-38,136.5,7.2s54.2,85.5,54.2,85.5s75.1-29.5,10.9-133.2s-196.6-73.4-203-46.4   S280.3,283.5,280.3,283.5z"/><path class="st3" d="M46.6,124.6c-56.1,99.3-16.7,227.9,88.1,287.1s306,66.7,362.2-32.7S442.7,111.1,338,51.9   S102.7,25.2,46.6,124.6z M477.2,367.9c-18.3,32.5-76.1,34.6-129,4.7c-52.9-29.9-80.9-80.5-62.6-112.9s76.1-34.6,129-4.7   C467.5,284.9,495.6,335.4,477.2,367.9z"/><path class="st4" d="M304.4,241.3l6.8-1.3c-0.4-2-10.2-49.9-55.3-71.8c-19-9.2-39.7-8.8-59.9,1.2c-15.1,7.5-24.4,17.5-24.8,17.9   l5.1,4.7c0.1-0.1,9-9.7,23-16.5c18.4-9,36.4-9.4,53.5-1.1C294.8,194.7,304.3,240.8,304.4,241.3z"/><path class="st4" d="M280.1,116.9c33.6,16.8,56.5,41.7,68.1,74c8.7,24.1,7.4,43.6,7.4,43.8l7,0.5c0.1-0.8,1.4-20.9-7.7-46.4   c-8.4-23.5-27.6-56.1-71.6-78.1C248,93,209.6,98,172.4,125.1c-27.8,20.2-44.9,45.3-45.6,46.3l5.8,3.9c0.2-0.2,17.2-25.1,44-44.6   C212,104.9,246.9,100.2,280.1,116.9z"/><path class="st4" d="M350.4,120.3C321.1,90.7,280.5,69.1,239.1,61c-31.6-6.2-66.5,7.6-101,39.8c-25.7,24-41.9,49.4-42.6,50.5   l5.9,3.7c0.6-1,65-101.1,136.4-87.2c64.6,12.6,158.1,70.1,156.5,177.3c2.3,0.9,4.6,1.9,6.9,3C402.5,199.4,385.1,155.3,350.4,120.3z   "/><path class="st4" d="M389,113c-5.7-6.7-12-13.3-19.1-19.9C325,50.9,277.6,31.2,229,34.5c-55.6,3.7-109.6,37.4-160.5,99.9l5.4,4.4   c49.6-61,101.9-93.8,155.5-97.4c46.6-3.1,92.2,15.9,135.7,56.6c46,43.1,61.5,89.4,66.4,120.5c3.3,20.9,2.4,38,1.2,48.1   c2.2,1.6,4.3,3.3,6.4,5c1.4-9.6,3.2-29-0.7-53.8c-2.6-16.5-8-37-19-59.1c33.4,44.7,47.4,84.5,53,112.6c3.9,19.3,4.3,35.2,3.8,46.5   c2.5,5.5,4.3,11,5.3,16.4c1.5-8.8,4.2-31.6-2.2-63.8c-7.4-37.5-29.2-95.2-90.4-157.7L389,113z"/><path class="st4" d="M279.7,285l2.4,6.5c-1.9,0.7-48,17-90-10.3c-17.7-11.5-28-29.5-29.8-51.9c-1.4-16.7,2.4-30,2.6-30.5l6.7,1.9   c0,0.1-3.6,12.7-2.3,28.2c1.7,20.4,10.7,36,26.7,46.4C234.8,300.8,279.2,285.2,279.7,285z"/><path class="st4" d="M160.6,328.4c31.7,20.1,64.8,26.9,98.5,20.2c25.2-5,41.2-16.1,41.4-16.2l4,5.7c-0.7,0.5-17.2,12-43.7,17.3   c-24.4,4.9-62.3,5.3-103.9-21c-33.3-21.1-48.8-56.5-44.7-102.4c3-34.2,15.6-61.8,16.1-63l6.3,2.9c-0.1,0.3-12.6,27.6-15.5,60.7   C115.2,276.3,129.1,308.5,160.6,328.4z"/><path class="st4" d="M329.1,360.1c-91,56.5-188.3,6.1-232.4-42.7c-48.7-53.9,3.8-160.8,4.3-161.8l-6.2-3.1   c-0.6,1.1-14,28.1-21.3,62.6c-9.8,46.1-3.6,83.1,18,107c28.3,31.3,67.8,54.9,108.3,64.8c47.8,11.6,94.5,3.9,135.4-22.4   C333.1,363.1,331.1,361.6,329.1,360.1z"/><path class="st4" d="M433.8,393c-9.4,6.2-23.2,14-41.5,20.5c-26.9,9.7-68.2,18.3-123.8,12.7c24.6-2,44.9-7.9,60.4-14.2   c23.1-9.4,38.7-20.8,46.3-27c-2.5-0.9-5-1.9-7.6-2.9c-8.1,6.2-22.2,15.7-41.7,23.6c-29.2,11.9-76.8,22.4-137.5,5.3   c-57.3-16.2-97.2-45.5-118.5-87C45.3,276.2,46.4,214.5,73,140.5l-6.6-2.4c-27.3,75.9-28.3,139.5-2.8,189   c22.3,43.3,63.6,73.8,122.8,90.5c9.3,2.6,18.2,4.6,26.9,6.1l0,0.2c85.1,20.2,145.8,9,181.7-3.9c30.5-11,48.7-24.9,55.5-30.8   C445.4,391,439.8,392.3,433.8,393z"/><path class="st5" d="M248.6,279.2c-2.5,0.6-5.1-0.8-5.9-3.3c-1.1-3.6-2.5-7.8-3.1-8c-3.2-0.9-6.4-2.2-9.5-3.9   c-10.2-5.8-16.8-15.1-18.9-25c-2.3-10.8-9.2-20.1-18.6-25.8L68.6,137.2c-0.7-0.4-0.9-1.3-0.5-1.9c0.4-0.7,1.2-0.9,1.9-0.6   l129.1,66.8c9.8,5.1,21.3,6.2,31.7,2.6c9.6-3.3,21.1-2.5,31.3,3.3c3.8,2.1,7.1,4.8,9.9,7.8c0.4,0.4,2.8,0.1,5.2-0.4   c2.6-0.5,5.1,1,5.9,3.5l0,0c0.6,2-0.1,4.2-1.8,5.5c-1.2,0.9-2.3,2.1-2,2.8c3.6,8.9,3.4,18.7-1.3,27.1c-5.1,9-14.3,14.3-24.6,15.4   c-0.6,0.8-1,3.3-1.1,5.6C252.1,276.8,250.7,278.6,248.6,279.2L248.6,279.2z"/><path class="st6" d="M251.2,70.9c25.4,6.8,58,19.6,95.3,43.6"/><path class="st6" d="M192.7,63.8c0,0,6.4-0.8,18,0"/></g></svg>