<?xml version="1.0" ?><!DOCTYPE svg  PUBLIC '-//W3C//DTD SVG 1.1//EN'  'http://www.w3.org/Graphics/SVG/1.1/DTD/svg11.dtd'><svg enable-background="new 0 0 91 91" height="91px" id="Layer_1" version="1.1" viewBox="0 0 91 91" width="91px" xml:space="preserve" xmlns="http://www.w3.org/2000/svg" xmlns:xlink="http://www.w3.org/1999/xlink"><g><g><g><g><path d="M55.002,67.001c-10.506,5.429-22.288,8.828-35.279,10.172c-5.398,0.562-10.232-3.364-10.79-8.758      c-0.558-5.398,3.368-10.234,8.76-10.786c20.79-2.16,37.6-10.8,49.979-25.688c3.472-4.174,9.666-4.741,13.84-1.274      c4.172,3.475,4.743,9.667,1.274,13.841C74.872,54.029,65.584,61.543,55.002,67.001z" fill="#DEB198"/><path d="M18.696,79.482c-6.206,0-11.367-4.658-12.006-10.837c-0.332-3.208,0.606-6.357,2.642-8.862      c2.036-2.508,4.924-4.069,8.131-4.399C37.642,53.289,53.951,44.916,65.938,30.5c2.304-2.77,5.691-4.358,9.294-4.358      c2.813,0,5.554,0.993,7.722,2.791c5.122,4.264,5.823,11.897,1.567,17.019c-8.07,9.71-17.652,17.468-28.483,23.054      c-10.721,5.54-22.861,9.042-36.083,10.411C19.533,79.461,19.111,79.482,18.696,79.482z M75.231,30.653      c-2.259,0-4.382,0.994-5.825,2.731C56.642,48.738,39.32,57.65,17.927,59.872c-2.011,0.206-3.819,1.183-5.093,2.755      c-1.276,1.571-1.864,3.544-1.657,5.557c0.427,4.13,4.089,7.188,8.313,6.746c12.658-1.312,24.258-4.652,34.477-9.932      c10.291-5.311,19.402-12.688,27.084-21.931c2.667-3.209,2.229-7.995-0.982-10.666C78.713,31.275,76.993,30.653,75.231,30.653z" fill="#434B56"/></g><path d="M20.43,72.398c-1.228,0-2.233-0.982-2.255-2.216l-0.109-6.308c-0.021-1.246,0.971-2.272,2.216-2.294     c1.272-0.063,2.272,0.97,2.294,2.217l0.109,6.307c0.021,1.245-0.971,2.272-2.216,2.294C20.456,72.398,20.444,72.398,20.43,72.398     z" fill="#434B56"/><path d="M35.637,69.132c-1.109,0-2.077-0.82-2.232-1.952l-0.826-6.055c-0.167-1.233,0.696-2.371,1.931-2.539     c1.239-0.163,2.372,0.696,2.539,1.932l0.825,6.054c0.169,1.233-0.695,2.372-1.929,2.539     C35.841,69.124,35.74,69.132,35.637,69.132z" fill="#434B56"/><path d="M53.001,63.479c-0.817,0-1.605-0.445-2.006-1.22l-3.217-6.231c-0.571-1.107-0.138-2.469,0.97-3.04     c1.103-0.571,2.467-0.138,3.039,0.97l3.217,6.23c0.571,1.107,0.136,2.469-0.971,3.04C53.702,63.399,53.35,63.479,53.001,63.479z" fill="#434B56"/><path d="M67.662,52.605c-0.602,0-1.202-0.24-1.646-0.715l-4.095-4.372c-0.853-0.909-0.807-2.337,0.103-3.188     s2.337-0.808,3.189,0.104l4.095,4.374c0.853,0.909,0.806,2.337-0.103,3.188C68.77,52.404,68.214,52.605,67.662,52.605z" fill="#434B56"/><path d="M77.364,43.003c-0.444,0-0.896-0.132-1.289-0.406l-5.231-3.653c-1.021-0.713-1.27-2.119-0.558-3.141     c0.711-1.021,2.119-1.272,3.142-0.557l5.23,3.653c1.021,0.713,1.271,2.119,0.558,3.141     C78.778,42.667,78.077,43.003,77.364,43.003z" fill="#434B56"/><path d="M8.932,70.67c-0.46,0-0.923-0.14-1.323-0.43l-6.503-4.72c-1.008-0.73-1.231-2.141-0.501-3.148     c0.732-1.008,2.143-1.233,3.15-0.501l6.503,4.718c1.008,0.732,1.231,2.143,0.501,3.15C10.316,70.348,9.629,70.67,8.932,70.67z" fill="#434B56"/><path d="M2.508,73.985c-0.817,0-1.606-0.444-2.006-1.222c-0.571-1.107-0.136-2.467,0.971-3.038l6.425-3.315     c1.109-0.571,2.469-0.136,3.04,0.972c0.571,1.104,0.136,2.467-0.971,3.037l-6.425,3.316C3.209,73.904,2.855,73.985,2.508,73.985z     " fill="#434B56"/><path d="M82.137,32.879c-1.237,0-2.243-0.996-2.255-2.235l-0.07-8.03c-0.011-1.245,0.991-2.263,2.236-2.274     c0.008,0,0.014,0,0.02,0c1.237,0,2.245,0.996,2.255,2.235l0.07,8.03c0.011,1.245-0.989,2.263-2.236,2.274     C82.15,32.879,82.143,32.879,82.137,32.879z" fill="#434B56"/><path d="M82.139,32.879c-0.817,0-1.606-0.447-2.006-1.224c-0.571-1.107-0.137-2.467,0.971-3.038l6.432-3.314     c1.106-0.571,2.467-0.134,3.037,0.973c0.571,1.107,0.137,2.467-0.971,3.038l-6.432,3.313     C82.84,32.799,82.486,32.879,82.139,32.879z" fill="#434B56"/><path d="M32.026,40.495c-0.663,0-1.317-0.29-1.764-0.847c-0.777-0.973-0.62-2.391,0.354-3.17     c2.849-2.279,2.187-3.772,0.274-7.228c-1.779-3.213-4.468-8.071,1.571-12.511c1.004-0.74,2.416-0.524,3.154,0.48     s0.522,2.417-0.481,3.154c-2.716,1.997-2.232,3.197-0.297,6.691c1.804,3.261,4.533,8.187-1.402,12.937     C33.017,40.334,32.52,40.495,32.026,40.495z" fill="#434B56"/><path d="M44.189,35.938c-0.612,0-1.222-0.249-1.667-0.736c-0.839-0.921-0.775-2.346,0.146-3.186     c2.995-2.731,2.265-3.838,0.499-6.513c-1.894-2.871-4.757-7.21,0.981-13.08c0.87-0.892,2.3-0.907,3.189-0.035     c0.892,0.87,0.906,2.298,0.036,3.189c-3.194,3.267-2.217,4.749-0.44,7.441c1.839,2.788,4.617,6.999-1.225,12.33     C45.277,35.744,44.731,35.938,44.189,35.938z" fill="#434B56"/></g></g></g></svg>