<?xml version="1.0" ?><svg id="Layer_1_1_" style="enable-background:new 0 0 64 64;" version="1.1" viewBox="0 0 64 64" xml:space="preserve" xmlns="http://www.w3.org/2000/svg" xmlns:xlink="http://www.w3.org/1999/xlink"><g><g><path d="M39.631,21.988l4.242-3.941C44.592,17.379,45,16.443,45,15.462v0c0-0.936-0.372-1.833-1.034-2.495    L33.707,2.707C33.254,2.254,32.64,2,32,2h0c-0.64,0-1.254,0.254-1.707,0.707L20.034,12.966C19.372,13.628,19,14.526,19,15.462v0    c0,0.981,0.408,1.918,1.127,2.585l4.242,3.941H39.631z" style="fill:#DFB28B;"/><path d="M28.757,8.519c-1.513,1.829-4.32,5.824-6.111,11.869l1.722,1.6h15.263l1.722-1.6    c-1.791-6.046-4.598-10.04-6.112-11.871C34.443,7.553,33.262,7,32,7S29.557,7.553,28.757,8.519z" style="fill:#CF9E76;"/><path d="M32,43h-5.331c-0.967,0-1.795-0.691-1.968-1.642L23,32c0-12.263,5.347-19.848,7.298-22.207    C30.717,9.286,31.342,9,32,9h0c0.658,0,1.283,0.286,1.702,0.793C35.653,12.152,41,19.737,41,32l-1.701,9.358    C39.126,42.309,38.297,43,37.331,43H32z" style="fill:#DFB28B;"/></g><g><rect height="2.001" transform="matrix(0.9362 -0.3514 0.3514 0.9362 -11.1378 13.6384)" width="8.544" x="27.728" y="36.5"/><rect height="2.001" transform="matrix(0.9362 -0.3514 0.3514 0.9362 -8.6777 13.1919)" width="8.544" x="27.728" y="29.5"/><rect height="2.001" transform="matrix(0.9362 -0.3514 0.3514 0.9362 -6.2176 12.7453)" width="8.544" x="27.728" y="22.5"/><path d="M49,57v-2c-8.113,0-9.915-4.591-9.992-11.524c0.649-0.44,1.126-1.121,1.275-1.939l1.701-9.358L42,32    c0-3.669-0.467-6.916-1.175-9.756l3.728-3.464C45.473,17.926,46,16.717,46,15.462c0-1.209-0.471-2.346-1.326-3.203L34.414,2    c-1.291-1.289-3.537-1.29-4.828,0L19.325,12.26C18.471,13.116,18,14.253,18,15.462c0,1.255,0.527,2.464,1.446,3.317l3.728,3.464    C22.467,25.084,22,28.331,22,32l1.718,9.537c0.148,0.818,0.626,1.499,1.275,1.939C24.915,50.409,23.113,55,15,55v2    c11.127,0,11.936-8.433,11.995-13h1.997C28.832,58.071,25.279,61,20,61v2c7.623,0,10.833-5.539,10.985-19h2.029    C33.167,57.461,36.377,63,44,63v-2c-5.279,0-8.832-2.929-8.992-17h1.997C37.064,48.567,37.873,57,49,57z M20.808,17.314    C20.294,16.837,20,16.163,20,15.462c0-0.675,0.263-1.311,0.74-1.789L31,3.415c0.535-0.535,1.465-0.535,2,0l10.259,10.259    C43.737,14.151,44,14.787,44,15.462c0,0.701-0.294,1.375-0.808,1.853l-2.969,2.758c-1.741-5.542-4.334-9.204-5.751-10.918    C33.864,8.421,32.963,8,32,8s-1.864,0.421-2.473,1.156c-1.417,1.714-4.01,5.375-5.751,10.917L20.808,17.314z M24,31.911    c0.027-12.03,5.414-19.48,7.068-21.479c0.453-0.548,1.41-0.547,1.863-0.001c1.654,2,7.041,9.45,7.068,21.48l-1.685,9.269    C38.229,41.655,37.814,42,37.331,42H26.669c-0.483,0-0.897-0.345-0.984-0.821L24,31.911z"/></g></g></svg>