<?xml version="1.0" ?><!DOCTYPE svg  PUBLIC '-//W3C//DTD SVG 1.1//EN'  'http://www.w3.org/Graphics/SVG/1.1/DTD/svg11.dtd'><svg enable-background="new 0 0 128 128" id="Layer_1" version="1.1" viewBox="0 0 128 128" xml:space="preserve" xmlns="http://www.w3.org/2000/svg" xmlns:xlink="http://www.w3.org/1999/xlink"><path d="M84,113.7c0,1.2-1,2.3-2.3,2.3H45.3c-1.2,0-2.3-1-2.3-2.3v-7.5c0-1.2,1-2.3,2.3-2.3h36.5  c1.2,0,2.3,1,2.3,2.3V113.7z" fill="#FFFFFF"/><path d="M84,101.7c0,1.2-1,2.3-2.3,2.3H45.3c-1.2,0-2.3-1-2.3-2.3v-7.5c0-1.2,1-2.3,2.3-2.3h36.5  c1.2,0,2.3,1,2.3,2.3V101.7z" fill="#FFFFFF"/><path d="M84,89.7c0,1.2-1,2.3-2.3,2.3H45.3C44,92,43,91,43,89.7v-7.5c0-1.2,1-2.3,2.3-2.3h36.5c1.2,0,2.3,1,2.3,2.3  V89.7z" fill="#FFFFFF"/><path d="M84,77.7c0,1.2-1,2.3-2.3,2.3H45.3C44,80,43,79,43,77.7v-7.5c0-1.2,1-2.3,2.3-2.3h36.5c1.2,0,2.3,1,2.3,2.3  V77.7z" fill="#FFFFFF"/><path d="M84,65.7c0,1.2-1,2.3-2.3,2.3H45.3C44,68,43,67,43,65.7v-7.5c0-1.2,1-2.3,2.3-2.3h36.5c1.2,0,2.3,1,2.3,2.3  V65.7z" fill="#FFFFFF"/><path d="M84,113.7c0,1.2-1,2.3-2.3,2.3H45.3  c-1.2,0-2.3-1-2.3-2.3v-7.5c0-1.2,1-2.3,2.3-2.3h36.5c1.2,0,2.3,1,2.3,2.3V113.7z" fill="none" stroke="#3D3D3D" stroke-miterlimit="10" stroke-width="2"/><path d="M84,101.7c0,1.2-1,2.3-2.3,2.3H45.3  c-1.2,0-2.3-1-2.3-2.3v-7.5c0-1.2,1-2.3,2.3-2.3h36.5c1.2,0,2.3,1,2.3,2.3V101.7z" fill="none" stroke="#3D3D3D" stroke-miterlimit="10" stroke-width="2"/><path d="M84,89.7c0,1.2-1,2.3-2.3,2.3H45.3  C44,92,43,91,43,89.7v-7.5c0-1.2,1-2.3,2.3-2.3h36.5c1.2,0,2.3,1,2.3,2.3V89.7z" fill="none" stroke="#3D3D3D" stroke-miterlimit="10" stroke-width="2"/><path d="M84,77.7c0,1.2-1,2.3-2.3,2.3H45.3  C44,80,43,79,43,77.7v-7.5c0-1.2,1-2.3,2.3-2.3h36.5c1.2,0,2.3,1,2.3,2.3V77.7z" fill="none" stroke="#3D3D3D" stroke-miterlimit="10" stroke-width="2"/><path d="M84,65.7c0,1.2-1,2.3-2.3,2.3H45.3  C44,68,43,67,43,65.7v-7.5c0-1.2,1-2.3,2.3-2.3h36.5c1.2,0,2.3,1,2.3,2.3V65.7z" fill="none" stroke="#3D3D3D" stroke-miterlimit="10" stroke-width="2"/><rect fill="none" height="5" stroke="#3D3D3D" stroke-miterlimit="10" stroke-width="2" width="12" x="57" y="21"/><path d="M83,45.9v7.9c0,1.2-0.7,2.2-1.9,2.2H44.9c-1.2,0-1.9-1-1.9-2.2v-7.9C43,44.6,53.9,26,55.1,26h15.8  C72.1,26,83,44.6,83,45.9z" fill="#E2E2E2"/><path d="M83,45.9v7.9c0,1.2-0.7,2.2-1.9,2.2H44.9  c-1.2,0-1.9-1-1.9-2.2v-7.9C43,44.6,53.9,26,55.1,26h15.8C72.1,26,83,44.6,83,45.9z" fill="none" stroke="#3D3D3D" stroke-miterlimit="10" stroke-width="2"/><path d="M65,116H51.7c-1.2,0-2.7-0.9-2.7-2.1V106  c0-1.2,1.5-2,2.7-2H65" fill="none" stroke="#3D3D3D" stroke-miterlimit="10" stroke-width="2"/><path d="M64,104H51.5c-1.2,0-2.5-1.1-2.5-2.2v-7.4  c0-1.2,1.3-2.3,2.5-2.3H64" fill="none" stroke="#3D3D3D" stroke-miterlimit="10" stroke-width="2"/><path d="M65,92H51.7c-1.2,0-2.7-0.7-2.7-2v-7.9  c0-1.2,1.5-2.1,2.7-2.1H65" fill="none" stroke="#3D3D3D" stroke-miterlimit="10" stroke-width="2"/><path d="M65,80H51.7c-1.2,0-2.7-0.7-2.7-2v-7.9  c0-1.2,1.5-2.1,2.7-2.1H65" fill="none" stroke="#3D3D3D" stroke-miterlimit="10" stroke-width="2"/><path d="M65,68H51.7c-1.2,0-2.7-0.6-2.7-1.8v-7.9  c0-1.2,1.5-2.3,2.7-2.3H65" fill="none" stroke="#3D3D3D" stroke-miterlimit="10" stroke-width="2"/><path d="M61,56h13.3c1.2,0,2.7-0.9,2.7-2.1v-7.7  c0-1.2-5.6-19.9-6.9-19.9" fill="none" stroke="#3D3D3D" stroke-miterlimit="10" stroke-width="2"/><path d="M65,56H51.7c-1.2,0-2.7-0.9-2.7-2.1v-7.7  c0-1.2,5.6-19.9,6.9-19.9" fill="none" stroke="#3D3D3D" stroke-miterlimit="10" stroke-width="2"/><line fill="none" stroke="#3D3D3D" stroke-miterlimit="10" stroke-width="2" x1="51" x2="75" y1="26" y2="26"/><path d="M68.6,11H57.4c-2.5,0-4.4,1.9-4.4,4.4V22h20v-6.6C73,12.9,71.1,11,68.6,11z" fill="#8DCEA8"/><path d="M68.6,11H57.4c-2.5,0-4.4,1.9-4.4,4.4V22h20v-6.6  C73,12.9,71.1,11,68.6,11z" fill="none" stroke="#3D3D3D" stroke-miterlimit="10" stroke-width="2"/><line fill="none" stroke="#3D3D3D" stroke-miterlimit="10" stroke-width="2" x1="56" x2="56" y1="22" y2="18"/><line fill="none" stroke="#3D3D3D" stroke-miterlimit="10" stroke-width="2" x1="61" x2="61" y1="22" y2="18"/><line fill="none" stroke="#3D3D3D" stroke-miterlimit="10" stroke-width="2" x1="65" x2="65" y1="22" y2="18"/><line fill="none" stroke="#3D3D3D" stroke-miterlimit="10" stroke-width="2" x1="70" x2="70" y1="22" y2="18"/></svg>