<?xml version="1.0" ?><svg id="Layer_15" style="enable-background:new 0 0 512 512;" version="1.1" viewBox="0 0 512 512" xml:space="preserve" xmlns="http://www.w3.org/2000/svg" xmlns:xlink="http://www.w3.org/1999/xlink"><style type="text/css">
	.st0{fill:#8E4D13;}
	.st1{fill:#C66E00;}
	.st2{fill:#CCCCCC;}
	.st3{fill:#E6E6E6;}
	.st4{fill:#A35E1A;}
	.st5{fill:#F7931E;}
	.st6{fill:none;stroke:#FFFFFF;stroke-width:18;stroke-linecap:round;stroke-miterlimit:10;}
</style><g><path class="st0" d="M309.5,121.6c-75.1,0-139,40-163.2,95.9c-7.1,16.5-23.6,26.6-41.5,26.1c-0.8,0-1.6,0-2.3,0   c-38.9,0-70.5,28.2-70.5,63s31.6,63,70.5,63c12.4,0,24-2.9,34.2-7.9c15.7-7.8,34.5-5.4,47.7,6.1c31.6,27.6,76,44.7,125.2,44.7   c95.8,0,173.5-65.1,173.5-145.5S405.3,121.6,309.5,121.6z"/><path class="st1" d="M309.5,121.6c-75.1,0-139,40-163.2,95.9c-7.1,16.5-23.6,26.6-41.5,26.1c-0.8,0-1.6,0-2.3,0   c-27.9,0-52,14.5-63.4,35.5c11.4,21,35.5,35.5,63.4,35.5c12.4,0,24-2.9,34.2-7.9c15.7-7.8,34.5-5.4,47.7,6.1   c31.6,27.6,76,44.7,125.2,44.7c84.6,0,155.1-50.8,170.4-118C464.6,172.4,394.1,121.6,309.5,121.6z"/><path class="st0" d="M408.8,147.7c-5.1,2.8-10.7,4.7-16.6,5.6c-36.2,5.4-82.9,31.7-101.5,49.7c-27,26.1-26.7,70.3,0.8,98.7   c27.4,28.4,71.6,30.3,98.6,4.2c17.7-17.1,41.8-61.6,48.5-98.2c1.7-9.3,6-17.9,12.5-24.7C439.5,169.3,425.2,157.4,408.8,147.7z"/><g><path class="st2" d="M430.6,108.1l-63.7,61.6l36.8,38.1l63.6-61.5c10.8,7.8,25.9,7,35.8-2.6c11.1-10.7,11.4-28.5,0.7-39.6    c-5.8-6-13.7-8.9-21.4-8.5c0.6-7.7-2-15.7-7.8-21.7c-10.7-11.1-28.5-11.4-39.6-0.7C425.4,82.6,423.9,97.2,430.6,108.1z"/><path class="st3" d="M403.7,179.8l51.9-50.2c6-5.8,14.4-8.2,22.5-6.6c8.7,1.7,18.1-0.7,25-7.3c1.9-1.9,3.5-3.9,4.8-6.1    c-1.1-1.9-2.5-3.8-4.1-5.5c-5.8-6-13.7-8.9-21.4-8.5c0.7-8.4-2.4-17.1-9.4-23.2c-9.4-8.4-23.6-9.3-34.1-2.3    c-3.8,2.5-6.6,5.7-8.7,9.3c-0.2,0.2-1.1,2.2-1.1,2.2c-3.9,8.4-3.4,18.5,1.5,26.5l-49.8,48.1L403.7,179.8z"/><path class="st4" d="M286.7,186c-27,26.1-26.7,70.3,0.8,98.7s71.6,30.3,98.6,4.2c17.7-17.1,41.8-61.6,48.5-98.2    c1.8-10,6.7-19.1,14-26.2l5.5-5.3l-36.8-38.1l-2.2,2.2c-7.3,7.1-16.7,11.6-26.7,13.1C352,141.7,305.3,168.1,286.7,186z"/><path class="st5" d="M415,123.2c-7.3,7.1-16.7,11.6-26.8,13.1c-36.2,5.4-82.9,31.7-101.5,49.7c-0.1,0.1-0.2,0.2-0.3,0.3    c-16.6,16.2-18.2,42.7-3.8,60.9c1.5,1.9,3.1,3.8,4.9,5.5c27.4,28.4,71.6,30.3,98.6,4.2c17.7-17.1,41.8-61.6,48.5-98.2    c0.9-5.1,2.7-9.9,5.1-14.4l-22.4-23.2L415,123.2z"/></g><path class="st3" d="M492.5,384.6h-473C8.7,384.6,0,375.8,0,365.1v0c0-10.8,8.7-19.5,19.5-19.5h473c10.8,0,19.5,8.7,19.5,19.5v0   C512,375.8,503.3,384.6,492.5,384.6z"/><path class="st3" d="M414.1,446.6H97.9c-13.7,0-26.4-6.9-33.8-18.4L36,384.6h440l-28.1,43.6C440.5,439.6,427.7,446.6,414.1,446.6z"/><polygon class="st2" points="463.7,403.6 476,384.6 36,384.6 48.3,403.6  "/><path class="st6" d="M288,218.6c0,0,16.9-23.1,42-32"/><path class="st6" d="M441,93.6c0,0,2-16,16-16"/></g></svg>