<?xml version="1.0" ?><svg id="Christmas_Icon" style="enable-background:new 0 0 56 56;" version="1.1" viewBox="0 0 56 56" xml:space="preserve" xmlns="http://www.w3.org/2000/svg" xmlns:xlink="http://www.w3.org/1999/xlink"><style type="text/css">
	.st0{fill:#F5F5F5;stroke:#3E2723;stroke-linecap:round;stroke-linejoin:round;stroke-miterlimit:10;}
	.st1{fill:#E0E0E0;}
	.st2{fill:#8D6E63;stroke:#3E2723;stroke-linecap:round;stroke-linejoin:round;stroke-miterlimit:10;}
	.st3{fill:#5D4037;}
	.st4{fill:none;stroke:#3E2723;stroke-linecap:round;stroke-linejoin:round;stroke-miterlimit:10;}
	.st5{fill:#FFD54F;stroke:#3E2723;stroke-linecap:round;stroke-linejoin:round;stroke-miterlimit:10;}
	.st6{fill:#E53935;stroke:#3E2723;stroke-linecap:round;stroke-linejoin:round;stroke-miterlimit:10;}
	.st7{fill:#B71C1C;}
	.st8{fill:#FFA000;}
	.st9{fill:#FFECB3;stroke:#3E2723;stroke-linecap:round;stroke-linejoin:round;stroke-miterlimit:10;}
	.st10{fill:#FFE082;}
	.st11{fill:#3E2723;}
	.st12{fill:#81C784;stroke:#3E2723;stroke-linecap:round;stroke-linejoin:round;stroke-miterlimit:10;}
	.st13{fill:#43A047;}
	.st14{fill:#263238;}
	.st15{fill:#4E342E;stroke:#3E2723;stroke-linecap:round;stroke-linejoin:round;stroke-miterlimit:10;}
	.st16{fill:none;}
	.st17{fill:#A1887F;stroke:#3E2723;stroke-linecap:round;stroke-linejoin:round;stroke-miterlimit:10;}
	.st18{fill:#6D4C41;}
	.st19{fill:#6D4C41;stroke:#3E2723;stroke-linecap:round;stroke-linejoin:round;stroke-miterlimit:10;}
	.st20{fill:#E0E0E0;stroke:#3E2723;stroke-miterlimit:10;}
	.st21{fill:#D81B60;stroke:#3E2723;stroke-linecap:round;stroke-linejoin:round;stroke-miterlimit:10;}
	.st22{fill:#E0E0E0;stroke:#3E2723;stroke-linecap:round;stroke-linejoin:round;stroke-miterlimit:10;}
	.st23{fill:#FBC02D;stroke:#3E2723;stroke-linecap:round;stroke-linejoin:round;stroke-miterlimit:10;}
</style><g id="Wine"><path class="st5" d="M40.5,55.5h-12c-1.4,0-2.5-1.1-2.5-2.5V26.1c0-1.7,0.4-3.3,1.2-4.8l4.3-7.7h6l4.3,7.7c0.8,1.5,1.2,3.1,1.2,4.8   V53C43,54.4,41.9,55.5,40.5,55.5z"/><path class="st8" d="M42.5,26.1c0-1.6-0.4-3.2-1.2-4.6L37.2,14h-4.4l4,7.2c0.8,1.5,1.2,3.1,1.2,4.8V53c0,0.8-0.4,1.5-1,2h3.5   c1.1,0,2-0.9,2-2V26.1z"/><path class="st6" d="M36.5,13.5h-4c-0.6,0-1-0.4-1-1v-11c0-0.6,0.4-1,1-1h4c0.6,0,1,0.4,1,1v11C37.5,13.1,37.1,13.5,36.5,13.5z"/><rect class="st6" height="16" width="17" x="26" y="29.5"/><rect class="st7" height="15" width="4.5" x="38" y="30"/><path class="st0" d="M21.5,38.5h-1c-4.1,0-7.5-3.4-7.5-7.5V20c0-1.4,1.1-2.5,2.5-2.5h11c1.4,0,2.5,1.1,2.5,2.5v11   C29,35.1,25.6,38.5,21.5,38.5z"/><path class="st5" d="M27,27.5V31c0,3-2.5,5.5-5.5,5.5h-1c-3,0-5.5-2.5-5.5-5.5v-3.5H27z"/><rect class="st0" height="14" width="3" x="19.5" y="38.5"/><path class="st0" d="M28,55.5H14c-0.6,0-1-0.4-1-1v-1c0-0.6,0.4-1,1-1h14c0.6,0,1,0.4,1,1v1C29,55.1,28.6,55.5,28,55.5z"/></g></svg>