<?xml version="1.0" ?><!DOCTYPE svg  PUBLIC '-//W3C//DTD SVG 1.1//EN'  'http://www.w3.org/Graphics/SVG/1.1/DTD/svg11.dtd'><svg enable-background="new 0 0 128 128" id="Слой_1" version="1.1" viewBox="0 0 128 128" xml:space="preserve" xmlns="http://www.w3.org/2000/svg" xmlns:xlink="http://www.w3.org/1999/xlink"><g><g><g><path d="M75.5,124H52.5c-3,0-5.5-2.4-5.5-5.5V55.3c0-4.9,2-9.7,5.5-13.2l0,0C56,38.7,58,33.9,58,29V9.5h-1.1V4     h14.2v5.5H70V29c0,4.9,2,9.7,5.5,13.2l0,0c3.5,3.5,5.5,8.2,5.5,13.2v63.2C80.9,121.6,78.5,124,75.5,124z" fill="#98D1A2"/></g><g><path d="M75.5,124H52.5c-3,0-5.5-2.4-5.5-5.5V55.3c0-4.9,2-9.7,5.5-13.2l0,0C56,38.7,58,33.9,58,29v-8.6h12V29     c0,4.9,2,9.7,5.5,13.2l0,0c3.5,3.5,5.5,8.2,5.5,13.2v63.2C80.9,121.6,78.5,124,75.5,124z" fill="#AE516E"/></g><g opacity="0.2"><g><path d="M75.5,42.2L75.5,42.2C72,38.7,70,33.9,70,29V4h-4.4v25c0,4.9,0.9,9.7,4.4,13.2c3.5,3.5,3.3,8.2,3.3,13.2      v63.2c0,3-2.4,5.5-5.5,5.5h7.6c3,0,5.5-2.4,5.5-5.5V55.3C80.9,50.4,78.9,45.7,75.5,42.2z" fill="#62345B"/></g></g><g><rect fill="#CCCC63" height="32.7" width="33.8" x="47.1" y="69.4"/></g><g><path d="M80.9,104.2H47.1c-1.1,0-2-0.9-2-2s0.9-2,2-2h33.8c1.1,0,2,0.9,2,2S82,104.2,80.9,104.2z" fill="#62345B"/></g><g><path d="M80.9,71.4H47.1c-1.1,0-2-0.9-2-2s0.9-2,2-2h33.8c1.1,0,2,0.9,2,2S82,71.4,80.9,71.4z" fill="#62345B"/></g><g><path d="M75.5,126H52.5c-4.1,0-7.5-3.3-7.5-7.5V55.3c0-5.5,2.1-10.7,6-14.6C54.3,37.6,56,33.4,56,29V11.2     c-0.6-0.3-1.1-1-1.1-1.8V4c0-1.1,0.9-2,2-2h14.2c1.1,0,2,0.9,2,2v5.5c0,0.8-0.4,1.5-1.1,1.8V29c0,4.4,1.7,8.6,4.9,11.8     c3.9,3.9,6,9.1,6,14.6v63.2C82.9,122.7,79.6,126,75.5,126z M58.9,7.7C59.6,8,60,8.7,60,9.5V29c0,5.5-2.1,10.7-6,14.6     c-3.1,3.1-4.9,7.3-4.9,11.8v63.2c0,1.9,1.5,3.5,3.5,3.5h22.9c1.9,0,3.5-1.5,3.5-3.5V55.3c0-4.4-1.7-8.6-4.9-11.8     c-3.9-3.9-6-9.1-6-14.6V9.5c0-0.8,0.4-1.5,1.1-1.8V6H58.9V7.7z" fill="#62345B"/></g><g><path d="M71.1,11.5H56.9c-1.1,0-2-0.9-2-2s0.9-2,2-2h14.2c1.1,0,2,0.9,2,2S72.2,11.5,71.1,11.5z" fill="#62345B"/></g></g><g><circle cx="59.6" cy="85.8" fill="#FFFFFF" r="2.7"/></g><g><circle cx="68.4" cy="85.8" fill="#FFFFFF" r="2.7"/></g><g><circle cx="64" cy="91.3" fill="#FFFFFF" r="2.7"/></g><g><path d="M64,84.1c-0.3,0-0.5-0.2-0.5-0.5v-4.4c0-0.3,0.2-0.5,0.5-0.5s0.5,0.2,0.5,0.5v4.4    C64.5,83.9,64.3,84.1,64,84.1z" fill="#FFFFFF"/></g></g></svg>