<?xml version="1.0" ?><!DOCTYPE svg  PUBLIC '-//W3C//DTD SVG 1.1//EN'  'http://www.w3.org/Graphics/SVG/1.1/DTD/svg11.dtd'><svg enable-background="new 0 0 91 91" height="91px" id="Layer_1" version="1.1" viewBox="0 0 91 91" width="91px" xml:space="preserve" xmlns="http://www.w3.org/2000/svg" xmlns:xlink="http://www.w3.org/1999/xlink"><g><g><g><path d="M10.329,57.033h67.99c0.969-0.495,6.243-3.563,5.619-11.402c-0.605-7.656-9.132-8.024-10.765-8.017     c-3.061,2.591-7.793,4.536-14.159,5.792c-0.054,0.01-0.11,0.016-0.163,0.016c-0.392,0-0.742-0.277-0.82-0.676     c-0.09-0.454,0.206-0.894,0.658-0.984c8.154-1.607,13.435-4.31,15.696-8.033c1.36-2.241,1.602-4.91,0.719-7.936     c-1.798-5.199-8.302-5.674-10.328-5.699c-0.235,0.949-0.611,1.899-1.196,2.847c-3.72,6.028-12.315,6.432-12.68,6.447     c-0.528,0.031-0.852-0.343-0.869-0.805c-0.02-0.462,0.341-0.852,0.803-0.871c0.082-0.004,8.072-0.39,11.318-5.652     c1.11-1.798,1.467-3.581,1.054-5.296c-0.787-3.283-4.078-5.317-4.111-5.338C43.68,1.205,30.629,7.593,25.848,10.713     c3.328,0.43,7.464,2.26,8.388,7.291c0.795,4.369-3.082,6.632-5.247,7.221c-3.603,0.967-13.099,4.526-13.812,9.331     c-0.516,3.496,0.532,5.894,1.956,7.532c0.018,0.02,0.035,0.037,0.049,0.059c2.038,2.298,4.824,3.05,5.021,3.101     c0.45,0.113,0.723,0.566,0.61,1.015c-0.095,0.382-0.435,0.636-0.813,0.636c-0.066,0-0.134-0.008-0.201-0.023     c-0.057-0.014-3.23-0.852-5.67-3.428c-1.453-0.113-8.154-0.306-8.982,5.365C6.407,53.854,9.544,56.466,10.329,57.033z" fill="#B1E1F8"/><path d="M17.193,80.174c2.334,4.472,3.515,5.356,11.769,5.356h33.103c8.251,0,9.432-0.885,11.788-5.399     l9.677-21.423H7.494L17.193,80.174z" fill="#E4E4E6"/></g><g><path d="M22.004,48.274c-0.179,0-0.362-0.021-0.545-0.066c-3.815-0.948-10.679-5.127-9.345-14.156     c1.132-7.655,14.549-11.46,16.074-11.87c0.337-0.097,3.474-1.073,3-3.67c-0.978-5.331-7.343-4.85-7.616-4.828     c-0.98,0.089-1.901-0.478-2.279-1.383c-0.38-0.908-0.129-1.957,0.62-2.593c0.177-0.15,17.869-14.856,38.872-0.932     c0.105,0.064,4.354,2.693,5.44,7.219c0.611,2.547,0.13,5.121-1.431,7.647c-4.111,6.666-13.439,7.106-13.835,7.122     c-1.261,0.037-2.3-0.924-2.349-2.172c-0.051-1.249,0.924-2.301,2.171-2.35c0.068-0.004,7.324-0.376,10.163-4.976     c2.998-4.857-1.637-8.078-2.596-8.676C46.235,4.56,35.518,7.373,29.63,10.216c2.744,1.165,5.265,3.423,6.011,7.482     c0.982,5.389-3.674,8.148-6.273,8.854c-3.936,1.06-12.227,4.446-12.776,8.164c-1.046,7.065,5.249,8.916,5.97,9.103     c1.204,0.314,1.937,1.545,1.629,2.751C23.931,47.593,23.013,48.274,22.004,48.274z" fill="#434B56"/><path d="M58.854,44.8c-1.058,0-2.005-0.748-2.218-1.826c-0.241-1.226,0.558-2.416,1.783-2.658     c7.634-1.504,12.736-4.055,14.751-7.373c1.153-1.898,1.345-4.105,0.585-6.744c-1.805-5.079-9.437-4.732-9.519-4.727     c-1.258,0.057-2.313-0.889-2.383-2.133c-0.069-1.245,0.877-2.311,2.122-2.385c0.454-0.027,11.18-0.561,14.073,7.815     c0.014,0.035,0.023,0.07,0.033,0.105c1.14,3.897,0.789,7.402-1.044,10.416c-2.732,4.499-8.702,7.683-17.744,9.465     C59.146,44.784,59,44.8,58.854,44.8z" fill="#434B56"/><path d="M41.78,46.334c-1.173,0-1.875-0.021-1.945-0.025c-1.249-0.043-2.225-1.089-2.182-2.339     c0.043-1.249,1.089-2.241,2.338-2.184c0.041,0.002,4.115,0.134,9.425-0.277c1.237-0.078,2.335,0.836,2.43,2.083     c0.096,1.246-0.836,2.335-2.083,2.431C46.405,46.281,43.553,46.334,41.78,46.334z" fill="#434B56"/><path d="M78.521,60.086c-0.865,0-1.689-0.499-2.067-1.339c-0.509-1.136-0.004-2.467,1.126-2.982     c0.256-0.121,5.528-2.707,4.943-10.069c-0.544-6.893-9.206-6.713-9.572-6.702c-1.241,0.049-2.292-0.939-2.332-2.186     c-0.041-1.245,0.929-2.292,2.176-2.336c4.603-0.166,13.53,1.888,14.239,10.868c0.846,10.642-7.244,14.395-7.589,14.548     C79.144,60.021,78.828,60.086,78.521,60.086z" fill="#434B56"/><path d="M10.064,60.084c-0.396,0-0.797-0.105-1.162-0.327c-0.243-0.148-5.956-3.708-4.82-11.443     c1.076-7.356,8.774-8.428,12.696-7.97c1.241,0.146,2.13,1.271,1.983,2.512c-0.146,1.241-1.274,2.121-2.511,1.984     c-0.279-0.034-6.983-0.718-7.69,4.131c-0.691,4.701,2.572,6.841,2.71,6.93c1.044,0.667,1.37,2.058,0.715,3.11     C11.557,59.7,10.82,60.084,10.064,60.084z" fill="#434B56"/><path d="M88.631,60.084H2.396c-1.249,0-2.262-1.012-2.262-2.262c0-1.249,1.013-2.263,2.262-2.263h86.235     c1.251,0,2.264,1.014,2.264,2.263C90.895,59.072,89.882,60.084,88.631,60.084z" fill="#434B56"/><path d="M62.066,88.583H28.966c-9.027,0-11.472-1.188-14.539-7.064L7.71,67.24     c-0.532-1.13-0.046-2.479,1.083-3.01c1.132-0.532,2.479-0.047,3.01,1.085l6.675,14.194c1.913,3.658,2.377,4.549,10.486,4.549     h33.101c8.107,0,8.573-0.891,10.527-4.635l6.636-14.11c0.532-1.13,1.88-1.615,3.011-1.083c1.13,0.531,1.615,1.88,1.083,3.01     l-6.677,14.194C73.536,87.395,71.091,88.583,62.066,88.583z" fill="#434B56"/></g><path d="M64.976,77.893c-0.347,0-0.7-0.08-1.031-0.25c-1.11-0.57-1.551-1.935-0.981-3.045l4.793-9.353    c0.57-1.112,1.933-1.553,3.045-0.981c1.112,0.57,1.551,1.935,0.982,3.045l-4.793,9.353C66.591,77.442,65.798,77.893,64.976,77.893    z" fill="#FFFFFF"/></g></g></svg>