<?xml version="1.0" encoding="UTF-8"?>
<svg width="800" height="800" version="1.1" viewBox="0 0 800.00001 800.00001" xmlns="http://www.w3.org/2000/svg">
 <defs>
  <linearGradient id="c" x1="354.24" x2="67.356" y1="444.92" y2="736.39" gradientUnits="userSpaceOnUse">
   <stop stop-color="#0e0f0e" offset="0"/>
   <stop stop-color="#0e0f0e" stop-opacity="0" offset="1"/>
  </linearGradient>
  <mask id="b" maskUnits="userSpaceOnUse">
   <circle cx="400" cy="400" r="400" color="#000000" color-rendering="auto" fill="#fff" image-rendering="auto" shape-rendering="auto" solid-color="#000000" style="isolation:auto;mix-blend-mode:normal"/>
  </mask>
  <mask id="a" maskUnits="userSpaceOnUse">
   <circle cx="400" cy="400" r="400" color="#000000" color-rendering="auto" fill="#fff" image-rendering="auto" shape-rendering="auto" solid-color="#000000" style="isolation:auto;mix-blend-mode:normal"/>
  </mask>
 </defs>
 <circle cx="400" cy="400" r="400" color="#000000" color-rendering="auto" fill="#1c8adb" image-rendering="auto" shape-rendering="auto" solid-color="#000000" style="isolation:auto;mix-blend-mode:normal"/>
 <path d="m176.27 269.53-174.94 174.94c14.863 164.24 105.5 300.63 327.56 352.27l207.5-207.55c0.61335-0.52364 1.2127-1.0663 1.7871-1.6406 5.7793-5.7793 9.0273-13.618 9.0273-21.791 0-2.6208-0.33828-5.206-0.98242-7.7012l30.391-31.865h2.166v-0.21875h0.0781l44.877-167.49v-18.49h-344.54v-70.473h-18.49z" color="#000000" color-rendering="auto" fill="url(#c)" image-rendering="auto" mask="url(#a)" opacity=".42" shape-rendering="auto" solid-color="#000000" style="isolation:auto;mix-blend-mode:normal"/>
 <path d="m176.27 269.53v18.49h84.42v70.472l44.877 167.49h0.0771v0.21908h273.13v-0.21908h0.0771l44.877-167.49v-18.49h-344.55v-70.473h-102.91zm103.56 88.963h6.2453l5.9901 10.374-6.4572 11.188-5.7782-21.562zm13.365 0h4.8633l-2.4317 4.2109-2.4317-4.2109zm11.98 0h17.884l5.9877 10.374-14.929 25.865-14.932-25.865 5.9901-10.374zm25 0h4.8633l-2.4316 4.2109-2.4317-4.2109zm11.98 0h17.884l5.9877 10.374-14.929 25.865-14.932-25.865 5.9901-10.374zm25 0h4.8633l-2.4317 4.2109-2.4317-4.2109zm11.98 0h17.884l5.9877 10.374-14.929 25.865-14.932-25.865 5.9901-10.374zm25 0h4.8633l-2.4316 4.2109-2.4317-4.2109zm11.98 0h17.884l5.9877 10.374-14.929 25.865-14.932-25.865 5.9901-10.374zm25 0h4.8633l-2.4317 4.2109-2.4317-4.2109zm11.98 0h17.884l5.9877 10.374-14.929 25.865-14.932-25.865 5.9901-10.374zm25 0h4.8633l-2.4317 4.2109-2.4317-4.2109zm11.98 0h17.884l5.9877 10.374-14.929 25.865-14.932-25.865 5.9901-10.374zm25 0h4.8633l-2.4316 4.2109-2.4317-4.2109zm11.98 0h17.884l5.9877 10.374-14.929 25.865-14.932-25.865 5.9901-10.374zm25 0h4.8633l-2.4317 4.2109-2.4317-4.2109zm11.98 0h17.884l5.9877 10.374-14.929 25.865-14.932-25.865 5.9901-10.374zm25 0h4.8633l-2.4316 4.2109-2.4317-4.2109zm11.98 0h3.5632l-4.9259 18.389-4.6274-8.0148 5.9901-10.374zm-305.39 16.538 14.929 25.865-13.225 22.911-9.4666-35.329 7.7621-13.446zm36.981 0 14.929 25.865-14.929 25.862-14.932-25.862 14.932-25.865zm36.981 0 14.929 25.865-14.929 25.862-14.932-25.862 14.932-25.865zm36.981 0 14.929 25.865-14.929 25.862-14.932-25.862 14.932-25.865zm36.981 0 14.929 25.865-14.929 25.862-14.932-25.862 14.932-25.865zm36.981 0 14.929 25.865-14.929 25.862-14.932-25.862 14.932-25.865zm36.981 0 14.929 25.865-14.929 25.862-14.932-25.862 14.932-25.865zm36.981 0 14.929 25.865-14.929 25.862-14.932-25.862 14.932-25.865zm36.981 0 5.9275 10.271-9.4642 35.329-11.395-19.735 14.932-25.865zm-277.35 32.026 14.929 25.865-14.929 25.862-13.834-23.96-0.69579-2.5978 14.53-25.169zm36.981 0 14.929 25.865-14.929 25.862-14.932-25.862 14.932-25.865zm36.981 0 14.929 25.865-14.929 25.862-14.932-25.862 14.932-25.865zm36.981 0 14.929 25.865-14.929 25.862-14.932-25.862 14.932-25.865zm36.981 0 14.929 25.865-14.929 25.862-14.932-25.862 14.932-25.865zm36.981 0 14.929 25.865-14.929 25.862-14.932-25.862 14.932-25.865zm36.981 0 14.929 25.865-14.929 25.862-14.932-25.862 14.932-25.865zm36.981 0 12.695 21.996-3.869 14.441-8.8262 15.291-14.932-25.862 14.932-25.865zm-240.37 32.028 14.929 25.862-14.929 25.862-14.932-25.862 14.932-25.862zm36.981 0 14.929 25.862-14.929 25.862-14.932-25.862 14.932-25.862zm36.981 0 14.929 25.862-14.929 25.862-14.932-25.862 14.932-25.862zm36.981 0 14.929 25.862-14.929 25.862-14.932-25.862 14.932-25.862zm36.981 0 14.929 25.862-14.929 25.862-14.932-25.862 14.932-25.862zm36.981 0 14.929 25.862-14.929 25.862-14.932-25.862 14.932-25.862zm36.981 0 14.929 25.862-14.929 25.862-14.932-25.862 14.932-25.862zm-248.04 18.745 4.1098 7.1168-1.5048 2.605-2.605-9.7218zm7.6706 13.28 14.929 25.862-6.1971 10.735h-3.036l-8.5036-31.734 2.8073-4.8633zm36.981 0 14.929 25.862-6.1971 10.735h-17.467l-6.1971-10.735 14.932-25.862zm36.981 0 14.929 25.862-6.1971 10.735h-17.467l-6.1971-10.735 14.932-25.862zm36.981 0 14.929 25.862-6.1971 10.735h-17.467l-6.1971-10.735 14.932-25.862zm36.981 0 14.929 25.862-6.1971 10.735h-17.467l-6.1971-10.735 14.932-25.862zm36.981 0 14.929 25.862-6.1971 10.735h-17.467l-6.1971-10.735 14.932-25.862zm36.981 0 14.929 25.862-6.1947 10.735h-17.467l-6.1995-10.735 14.932-25.862zm36.981 0 0.97507 1.6877-9.3535 34.91h-0.35391l-6.1995-10.735 14.932-25.862zm-240.37 32.026 2.6387 4.572h-5.2798l2.6411-4.572zm36.981 0 2.6387 4.572h-5.2774l2.6387-4.572zm36.981 0 2.6387 4.572h-5.2774l2.6387-4.572zm36.981 0 2.6387 4.572h-5.2774l2.6387-4.572zm36.981 0 2.6387 4.572h-5.2774l2.6387-4.572zm36.981 0 2.6387 4.572h-5.2798l2.6411-4.572zm36.981 0 2.6387 4.572h-5.2774l2.6387-4.572zm-179.32 31.811a30.817 30.817 0 0 0 -30.817 30.817 30.817 30.817 0 0 0 30.817 30.817 30.817 30.817 0 0 0 30.817 -30.817 30.817 30.817 0 0 0 -30.817 -30.817zm141.21 0a30.817 30.817 0 0 0 -30.817 30.817 30.817 30.817 0 0 0 30.817 30.817 30.817 30.817 0 0 0 30.817 -30.817 30.817 30.817 0 0 0 -30.817 -30.817z" color="#000000" color-rendering="auto" fill="#f8fffd" image-rendering="auto" mask="url(#b)" shape-rendering="auto" solid-color="#000000" style="isolation:auto;mix-blend-mode:normal"/>
</svg>
