<?xml version="1.0" ?>
<svg viewBox="0 0 48 48"
  xmlns="http://www.w3.org/2000/svg"
  xmlns:xlink="http://www.w3.org/1999/xlink">
  <defs>
    <style>.cls-1{fill:#cc7c33;}.cls-2{fill:url(#linear-gradient);}.cls-3{fill:url(#linear-gradient-2);}.cls-4{fill:#fff;stroke:#fff;stroke-miterlimit:10;stroke-width:0.5px;}</style>
    <linearGradient gradientUnits="userSpaceOnUse" id="linear-gradient" x1="24.67" x2="24.67" y1="17.01" y2="36.28">
      <stop offset="0" stop-color="#fbd855"/>
      <stop offset="1" stop-color="#f6d352"/>
    </linearGradient>
    <linearGradient gradientUnits="userSpaceOnUse" id="linear-gradient-2" x1="24.67" x2="24.67" y1="19.11" y2="36.7">
      <stop offset="0" stop-color="#eb0"/>
      <stop offset="1" stop-color="#daab00"/>
    </linearGradient>
  </defs>
  <title/>
  <g id="icons">
    <g data-name="Layer 3" id="Layer_3">
      <path class="cls-1" d="M39.87,22.6,27.19,9.92a3.47,3.47,0,0,0-4.9,0L9.6,22.6,8.19,21.19,20.87,8.51a5.47,5.47,0,0,1,7.73,0L41.29,21.19Z"/>
      <rect class="cls-2" height="23" rx="4.18" ry="4.18" width="42" x="3.67" y="18.09"/>
      <rect class="cls-3" height="21" rx="3.82" ry="3.82" width="39.57" x="4.89" y="20.09"/>
      <path class="cls-4" d="M13.82,31.66a2,2,0,0,1-.18.78,2.93,2.93,0,0,1-1.55,1.49,3.48,3.48,0,0,1-1.39.26,4.61,4.61,0,0,1-1.09-.12,2.81,2.81,0,0,1-.89-.35A2.77,2.77,0,0,1,8,33.08a3.67,3.67,0,0,1-.52-.8,4.73,4.73,0,0,1-.32-.94A5.32,5.32,0,0,1,7,30.27a4.76,4.76,0,0,1,.27-1.65,3.49,3.49,0,0,1,.76-1.24,3.34,3.34,0,0,1,1.17-.78,3.74,3.74,0,0,1,1.42-.27,3.52,3.52,0,0,1,1.65.37,2.79,2.79,0,0,1,1.1.91,1.77,1.77,0,0,1,.39,1,.7.7,0,0,1-.19.47.62.62,0,0,1-.45.2.65.65,0,0,1-.45-.14,3.16,3.16,0,0,1-.33-.48,2.33,2.33,0,0,0-.7-.85,1.72,1.72,0,0,0-1-.28,1.83,1.83,0,0,0-1.51.72,3.29,3.29,0,0,0-.56,2.05,3.7,3.7,0,0,0,.25,1.47,1.79,1.79,0,0,0,.7.88,1.91,1.91,0,0,0,1.07.29,1.86,1.86,0,0,0,1.12-.33,2,2,0,0,0,.7-1,1.4,1.4,0,0,1,.24-.49.54.54,0,0,1,.47-.19.64.64,0,0,1,.47.19A.66.66,0,0,1,13.82,31.66Z"/>
      <path class="cls-4" d="M16.71,27.26v5.53h3.12a.81.81,0,0,1,.57.18.59.59,0,0,1,.2.46.55.55,0,0,1-.19.45.86.86,0,0,1-.58.18H16.11a1,1,0,0,1-.72-.22,1,1,0,0,1-.22-.72V27.26a1,1,0,0,1,.21-.7.68.68,0,0,1,.55-.23.7.7,0,0,1,.56.23A1,1,0,0,1,16.71,27.26Z"/>
      <path class="cls-4" d="M24.43,26.33a4,4,0,0,1,2,.48,3.06,3.06,0,0,1,1.28,1.36,4.65,4.65,0,0,1,.44,2.08,5.07,5.07,0,0,1-.24,1.6,3.57,3.57,0,0,1-.71,1.25,3.19,3.19,0,0,1-1.18.81,4.34,4.34,0,0,1-1.59.28,4.26,4.26,0,0,1-1.6-.29,3.15,3.15,0,0,1-1.17-.81A3.55,3.55,0,0,1,21,31.83a5.35,5.35,0,0,1,0-3.2,3.68,3.68,0,0,1,.73-1.25,3.17,3.17,0,0,1,1.17-.78A4.16,4.16,0,0,1,24.43,26.33Zm2.19,3.91a3.57,3.57,0,0,0-.27-1.45,2,2,0,0,0-.77-.93,2.2,2.2,0,0,0-1.15-.31,2.15,2.15,0,0,0-.85.17,2,2,0,0,0-.68.51,2.52,2.52,0,0,0-.44.85,3.77,3.77,0,0,0-.17,1.16,3.89,3.89,0,0,0,.17,1.17,2.4,2.4,0,0,0,.46.87,1.93,1.93,0,0,0,.68.51,2,2,0,0,0,.85.17,2,2,0,0,0,1.09-.29,2.09,2.09,0,0,0,.79-.91A3.65,3.65,0,0,0,26.62,30.24Z"/>
      <path class="cls-4" d="M35.27,31.78A2.21,2.21,0,0,1,34.92,33a2.42,2.42,0,0,1-1,.86,4,4,0,0,1-1.62.31,3.61,3.61,0,0,1-1.86-.43,2.33,2.33,0,0,1-.84-.81,1.86,1.86,0,0,1-.33-1,.69.69,0,0,1,.2-.48.66.66,0,0,1,.49-.2.6.6,0,0,1,.41.16,1.14,1.14,0,0,1,.29.46,3.15,3.15,0,0,0,.32.61,1.33,1.33,0,0,0,.47.4,1.8,1.8,0,0,0,.8.16,1.86,1.86,0,0,0,1.12-.32,1,1,0,0,0,.42-.8.81.81,0,0,0-.23-.61,1.4,1.4,0,0,0-.59-.36c-.25-.09-.57-.17-1-.27a6.11,6.11,0,0,1-1.37-.45,2.2,2.2,0,0,1-.88-.7,2,2,0,0,1,0-2.21,2.11,2.11,0,0,1,1-.75,3.94,3.94,0,0,1,1.52-.26,3.71,3.71,0,0,1,1.22.17,2.58,2.58,0,0,1,.84.46,2,2,0,0,1,.5.61,1.4,1.4,0,0,1,.15.61.73.73,0,0,1-.19.5.61.61,0,0,1-.49.22.6.6,0,0,1-.4-.13,2,2,0,0,1-.3-.44,2,2,0,0,0-.5-.67,1.44,1.44,0,0,0-.93-.24,1.63,1.63,0,0,0-1,.26.79.79,0,0,0-.37.63.68.68,0,0,0,.13.4,1.06,1.06,0,0,0,.34.28,2.78,2.78,0,0,0,.44.19l.74.2a11.77,11.77,0,0,1,1.16.33,3.52,3.52,0,0,1,.89.44,1.88,1.88,0,0,1,.57.65A2.09,2.09,0,0,1,35.27,31.78Z"/>
      <path class="cls-4" d="M41.59,27.64H38.12v1.87h3.2a.72.72,0,0,1,.52.16.52.52,0,0,1,.18.42.54.54,0,0,1-.18.42.72.72,0,0,1-.52.16h-3.2v2.16h3.59a.82.82,0,0,1,.55.17.61.61,0,0,1,.18.45.57.57,0,0,1-.18.44.82.82,0,0,1-.55.17H37.52a1,1,0,0,1-.72-.22,1,1,0,0,1-.22-.72V27.4a1.21,1.21,0,0,1,.1-.54.67.67,0,0,1,.31-.31,1.36,1.36,0,0,1,.53-.09h4.07a.79.79,0,0,1,.55.16.6.6,0,0,1,0,.86A.79.79,0,0,1,41.59,27.64Z"/>
    </g>
  </g>
</svg>
