<?xml version="1.0" ?>
<svg viewBox="0 0 48 48"
  xmlns="http://www.w3.org/2000/svg"
  xmlns:xlink="http://www.w3.org/1999/xlink">
  <defs>
    <style>.cls-1{fill:#cc7c33;}.cls-2{fill:url(#linear-gradient);}.cls-3{fill:url(#linear-gradient-2);}.cls-4{fill:#fff;stroke:#fff;stroke-miterlimit:10;stroke-width:0.5px;}</style>
    <linearGradient gradientUnits="userSpaceOnUse" id="linear-gradient" x1="24.67" x2="24.67" y1="17.01" y2="36.28">
      <stop offset="0" stop-color="#9bfc7c"/>
      <stop offset="1" stop-color="#c4fdb9"/>
    </linearGradient>
    <linearGradient gradientUnits="userSpaceOnUse" id="linear-gradient-2" x1="24.67" x2="24.67" y1="19.11" y2="36.7">
      <stop offset="0" stop-color="#2bea10"/>
      <stop offset="1" stop-color="#26930a"/>
    </linearGradient>
  </defs>
  <title/>
  <g id="icons">
    <g data-name="Layer 3" id="Layer_3">
      <path class="cls-1" d="M39.87,22.6,27.19,9.92a3.47,3.47,0,0,0-4.9,0L9.6,22.6,8.19,21.19,20.87,8.51a5.47,5.47,0,0,1,7.73,0L41.29,21.19Z"/>
      <rect class="cls-2" height="23" rx="4.18" ry="4.18" width="40" x="4.67" y="18.09"/>
      <rect class="cls-3" height="21" rx="3.82" ry="3.82" width="37.57" x="5.89" y="20.09"/>
      <path class="cls-4" d="M13.52,26.33a4,4,0,0,1,2,.48,3.08,3.08,0,0,1,1.29,1.36,4.65,4.65,0,0,1,.43,2.08,5.07,5.07,0,0,1-.24,1.6,3.43,3.43,0,0,1-.71,1.25,3.23,3.23,0,0,1-1.17.81,4.43,4.43,0,0,1-1.6.28A4.21,4.21,0,0,1,12,33.9a3.11,3.11,0,0,1-1.18-.81,3.39,3.39,0,0,1-.71-1.26,5.09,5.09,0,0,1-.24-1.59,4.86,4.86,0,0,1,.25-1.61,3.38,3.38,0,0,1,.73-1.25A3,3,0,0,1,12,26.6,4.16,4.16,0,0,1,13.52,26.33Zm2.19,3.91a3.57,3.57,0,0,0-.27-1.45,2,2,0,0,0-.77-.93,2.25,2.25,0,0,0-2-.14,1.87,1.87,0,0,0-.67.51,2.36,2.36,0,0,0-.45.85,3.78,3.78,0,0,0-.16,1.16,3.9,3.9,0,0,0,.16,1.17,2.4,2.4,0,0,0,.46.87,1.88,1.88,0,0,0,.69.51,1.94,1.94,0,0,0,.84.17,2,2,0,0,0,1.09-.29,2.09,2.09,0,0,0,.79-.91A3.65,3.65,0,0,0,15.71,30.24Z"/>
      <path class="cls-4" d="M21.54,31.1H20.13v2.15a1,1,0,0,1-.22.7.76.76,0,0,1-1.11,0,1,1,0,0,1-.21-.69V27.4a1,1,0,0,1,.23-.73,1.11,1.11,0,0,1,.74-.21h2a5.27,5.27,0,0,1,1.35.13,2,2,0,0,1,.8.43,2,2,0,0,1,.52.74,2.55,2.55,0,0,1,.18,1,2.16,2.16,0,0,1-.72,1.76A3.26,3.26,0,0,1,21.54,31.1Zm-.37-3.49h-1v2.33h1a3,3,0,0,0,.91-.12,1,1,0,0,0,.55-.37,1.1,1.1,0,0,0,.2-.68,1.13,1.13,0,0,0-.3-.82A2,2,0,0,0,21.17,27.61Z"/>
      <path class="cls-4" d="M30.68,27.64H27.21v1.87h3.2a.72.72,0,0,1,.52.16.52.52,0,0,1,.18.42.57.57,0,0,1-.17.42.75.75,0,0,1-.53.16h-3.2v2.16H30.8a.8.8,0,0,1,.55.17.61.61,0,0,1,.18.45.57.57,0,0,1-.18.44.8.8,0,0,1-.55.17H26.62a1,1,0,0,1-.73-.22,1,1,0,0,1-.22-.72V27.4a1.37,1.37,0,0,1,.1-.54.67.67,0,0,1,.31-.31,1.38,1.38,0,0,1,.54-.09h4.06a.79.79,0,0,1,.55.16.6.6,0,0,1,0,.86A.79.79,0,0,1,30.68,27.64Z"/>
      <path class="cls-4" d="M34.76,27.25l3,4.48V27.21a1,1,0,0,1,.19-.66.64.64,0,0,1,.51-.22.65.65,0,0,1,.53.22,1,1,0,0,1,.19.66v6c0,.66-.28,1-.83,1a1.06,1.06,0,0,1-.37-.06.84.84,0,0,1-.31-.19,1.93,1.93,0,0,1-.27-.3l-.25-.36-2.89-4.43v4.46A.94.94,0,0,1,34,34a.68.68,0,0,1-.52.23A.67.67,0,0,1,33,34a1,1,0,0,1-.19-.65V27.44a1.52,1.52,0,0,1,.08-.58.83.83,0,0,1,.33-.39.93.93,0,0,1,.49-.14.88.88,0,0,1,.35.06.83.83,0,0,1,.26.19,1.47,1.47,0,0,1,.23.29Z"/>
    </g>
  </g>
</svg>
